Pfont-Light.ufo
<glyph name="exclam" format="1">
  <advance width="520"/>
  <unicode hex="0021"/>
  <outline>
    <contour>
      <point x="289" y="435" type="line"/>
      <point x="285" y="1338" type="line" smooth="yes"/>
      <point x="285" y="1354"/>
      <point x="268" y="1350"/>
      <point x="138" y="1302" type="curve" smooth="yes"/>
      <point x="127" y="1298"/>
      <point x="125" y="1295"/>
      <point x="125" y="1289" type="curve" smooth="yes"/>
      <point x="172" y="374" type="line"/>
    </contour>
    <component base="period" xOffset="16" yOffset="-25" xScale="0.803" yScale="0.803"/>
  </outline>
</glyph>
<glyph name="numbersign" format="1">
  <advance width="1340"/>
  <unicode hex="0023"/>
  <outline>
    <contour>
      <point x="412" y="-156" type="line" smooth="yes"/>
      <point x="422" y="-156"/>
      <point x="428" y="-153"/>
      <point x="429" y="-143" type="curve" smooth="yes"/>
      <point x="477" y="200" type="line"/>
      <point x="738" y="200" type="line"/>
      <point x="689" y="-136" type="line"/>
      <point x="686" y="-153"/>
      <point x="696" y="-156"/>
      <point x="707" y="-156" type="curve" smooth="yes"/>
      <point x="779" y="-156" type="line" smooth="yes"/>
      <point x="789" y="-156"/>
      <point x="798" y="-154"/>
      <point x="800" y="-141" type="curve" smooth="yes"/>
      <point x="846" y="200" type="line"/>
      <point x="1110" y="200" type="line" smooth="yes"/>
      <point x="1118" y="200"/>
      <point x="1127" y="205"/>
      <point x="1127" y="208" type="curve" smooth="yes"/>
      <point x="1138" y="276" type="line" smooth="yes"/>
      <point x="1139" y="285"/>
      <point x="1132" y="292"/>
      <point x="1120" y="292" type="curve" smooth="yes"/>
      <point x="861" y="292" type="line"/>
      <point x="911" y="643" type="line"/>
      <point x="1192" y="643" type="line" smooth="yes"/>
      <point x="1201" y="643"/>
      <point x="1207" y="647"/>
      <point x="1208" y="652" type="curve"/>
      <point x="1220" y="721" type="line" smooth="yes"/>
      <point x="1221" y="729"/>
      <point x="1214" y="735"/>
      <point x="1202" y="735" type="curve" smooth="yes"/>
      <point x="925" y="735" type="line"/>
      <point x="976" y="1093" type="line" smooth="yes"/>
      <point x="977" y="1100"/>
      <point x="968" y="1107"/>
      <point x="958" y="1107" type="curve" smooth="yes"/>
      <point x="885" y="1107" type="line" smooth="yes"/>
      <point x="878" y="1107"/>
      <point x="869" y="1101"/>
      <point x="868" y="1097" type="curve" smooth="yes"/>
      <point x="815" y="735" type="line"/>
      <point x="555" y="735" type="line"/>
      <point x="606" y="1093" type="line"/>
      <point x="607" y="1101"/>
      <point x="600" y="1107"/>
      <point x="588" y="1107" type="curve" smooth="yes"/>
      <point x="516" y="1107" type="line" smooth="yes"/>
      <point x="508" y="1107"/>
      <point x="499" y="1102"/>
      <point x="498" y="1097" type="curve" smooth="yes"/>
      <point x="446" y="735" type="line"/>
      <point x="215" y="735" type="line" smooth="yes"/>
      <point x="207" y="735"/>
      <point x="198" y="729"/>
      <point x="197" y="725" type="curve" smooth="yes"/>
      <point x="188" y="656" type="line"/>
      <point x="187" y="649"/>
      <point x="195" y="643"/>
      <point x="206" y="643" type="curve" smooth="yes"/>
      <point x="432" y="643" type="line"/>
      <point x="382" y="292" type="line"/>
      <point x="148" y="292" type="line" smooth="yes"/>
      <point x="140" y="292"/>
      <point x="131" y="287"/>
      <point x="130" y="282" type="curve" smooth="yes"/>
      <point x="120" y="213" type="line" smooth="yes"/>
      <point x="119" y="206"/>
      <point x="127" y="200"/>
      <point x="138" y="200" type="curve" smooth="yes"/>
      <point x="367" y="200" type="line"/>
      <point x="319" y="-137" type="line"/>
      <point x="316" y="-153"/>
      <point x="326" y="-156"/>
      <point x="336" y="-156" type="curve" smooth="yes"/>
    </contour>
    <contour>
      <point x="542" y="643" type="line"/>
      <point x="801" y="643" type="line"/>
      <point x="752" y="292" type="line"/>
      <point x="491" y="292" type="line"/>
    </contour>
  </outline>
</glyph>
<glyph name="quotesingle" format="1">
  <advance width="368"/>
  <unicode hex="0027"/>
  <outline>
    <contour>
      <point x="216" y="1101" type="line"/>
      <point x="248" y="1576" type="line"/>
      <point x="126" y="1576" type="line"/>
      <point x="120" y="1102" type="line"/>
    </contour>
  </outline>
</glyph>
<glyph name="parenleft" format="1">
  <advance width="652"/>
  <unicode hex="0028"/>
  <outline>
    <contour>
      <point x="517" y="-330" type="line" smooth="yes"/>
      <point x="525" y="-330"/>
      <point x="532" y="-327"/>
      <point x="532" y="-326" type="curve"/>
      <point x="532" y="-251"/>
      <point x="276" y="5"/>
      <point x="276" y="486" type="curve"/>
      <point x="276" y="962"/>
      <point x="532" y="1238"/>
      <point x="532" y="1274" type="curve"/>
      <point x="532" y="1278"/>
      <point x="528" y="1280"/>
      <point x="520" y="1281" type="curve"/>
      <point x="441" y="1281" type="line"/>
      <point x="431" y="1281"/>
      <point x="424" y="1278"/>
      <point x="421" y="1274" type="curve" smooth="yes"/>
      <point x="218" y="1003"/>
      <point x="120" y="737"/>
      <point x="120" y="471" type="curve" smooth="yes"/>
      <point x="120" y="206"/>
      <point x="221" y="-56"/>
      <point x="421" y="-323" type="curve" smooth="yes"/>
      <point x="424" y="-327"/>
      <point x="432" y="-330"/>
      <point x="441" y="-330" type="curve" smooth="yes"/>
    </contour>
  </outline>
</glyph>
<glyph name="parenright" format="1">
  <advance width="652"/>
  <unicode hex="0029"/>
  <outline>
    <contour>
      <point x="211" y="-330" type="line" smooth="yes"/>
      <point x="221" y="-330"/>
      <point x="229" y="-327"/>
      <point x="234" y="-321" type="curve"/>
      <point x="434" y="-57"/>
      <point x="532" y="205"/>
      <point x="532" y="471" type="curve"/>
      <point x="532" y="737"/>
      <point x="434" y="1003"/>
      <point x="232" y="1273" type="curve" smooth="yes"/>
      <point x="229" y="1277"/>
      <point x="221" y="1280"/>
      <point x="211" y="1280" type="curve" smooth="yes"/>
      <point x="136" y="1280" type="line" smooth="yes"/>
      <point x="115" y="1280"/>
      <point x="119" y="1267"/>
      <point x="134" y="1239" type="curve" smooth="yes"/>
      <point x="188" y="1139"/>
      <point x="377" y="902"/>
      <point x="377" y="486" type="curve" smooth="yes"/>
      <point x="377" y="68"/>
      <point x="176" y="-200"/>
      <point x="130" y="-296" type="curve" smooth="yes"/>
      <point x="118" y="-321"/>
      <point x="113" y="-330"/>
      <point x="135" y="-330" type="curve" smooth="yes"/>
    </contour>
  </outline>
</glyph>
<glyph name="asterisk" format="1">
  <advance width="1009"/>
  <unicode hex="002A"/>
  <outline>
    <contour>
      <point x="539" y="96"/>
      <point x="567" y="121"/>
      <point x="566" y="152" type="curve" smooth="yes"/>
      <point x="557" y="354" type="line"/>
      <point x="690" y="207" type="line" smooth="yes"/>
      <point x="698" y="198"/>
      <point x="716" y="191"/>
      <point x="734" y="191" type="curve" smooth="yes"/>
      <point x="770" y="191"/>
      <point x="795" y="213"/>
      <point x="795" y="245" type="curve"/>
      <point x="795" y="264"/>
      <point x="789" y="275"/>
      <point x="777" y="284" type="curve"/>
      <point x="619" y="428" type="line"/>
      <point x="827" y="420" type="line" smooth="yes"/>
      <point x="861" y="419"/>
      <point x="889" y="444"/>
      <point x="889" y="476" type="curve" smooth="yes"/>
      <point x="889" y="508"/>
      <point x="861" y="532"/>
      <point x="826" y="530" type="curve" smooth="yes"/>
      <point x="618" y="520" type="line"/>
      <point x="777" y="664" type="line"/>
      <point x="789" y="676"/>
      <point x="795" y="689"/>
      <point x="795" y="706" type="curve"/>
      <point x="795" y="736"/>
      <point x="768" y="759"/>
      <point x="733" y="759" type="curve" smooth="yes"/>
      <point x="717" y="759"/>
      <point x="700" y="752"/>
      <point x="689" y="741" type="curve"/>
      <point x="561" y="600" type="line"/>
      <point x="570" y="798" type="line" smooth="yes"/>
      <point x="571" y="826"/>
      <point x="543" y="853"/>
      <point x="511" y="853" type="curve" smooth="yes"/>
      <point x="474" y="853"/>
      <point x="448" y="829"/>
      <point x="449" y="797" type="curve" smooth="yes"/>
      <point x="456" y="599" type="line"/>
      <point x="321" y="745" type="line" smooth="yes"/>
      <point x="314" y="753"/>
      <point x="296" y="760"/>
      <point x="280" y="760" type="curve" smooth="yes"/>
      <point x="246" y="760"/>
      <point x="218" y="736"/>
      <point x="218" y="706" type="curve" smooth="yes"/>
      <point x="218" y="691"/>
      <point x="224" y="679"/>
      <point x="236" y="667" type="curve"/>
      <point x="396" y="520" type="line"/>
      <point x="182" y="530" type="line"/>
      <point x="151" y="533"/>
      <point x="120" y="507"/>
      <point x="120" y="477" type="curve" smooth="yes"/>
      <point x="120" y="444"/>
      <point x="147" y="419"/>
      <point x="182" y="420" type="curve" smooth="yes"/>
      <point x="391" y="428" type="line"/>
      <point x="233" y="285" type="line" smooth="yes"/>
      <point x="220" y="274"/>
      <point x="214" y="261"/>
      <point x="214" y="246" type="curve" smooth="yes"/>
      <point x="214" y="214"/>
      <point x="239" y="191"/>
      <point x="275" y="191" type="curve" smooth="yes"/>
      <point x="291" y="191"/>
      <point x="310" y="198"/>
      <point x="320" y="208" type="curve"/>
      <point x="452" y="354" type="line"/>
      <point x="444" y="151" type="line" smooth="yes"/>
      <point x="443" y="122"/>
      <point x="470" y="96"/>
      <point x="503" y="96" type="curve" smooth="yes"/>
    </contour>
    <contour>
      <point x="451" y="369"/>
      <point x="406" y="418"/>
      <point x="406" y="475" type="curve"/>
      <point x="406" y="532"/>
      <point x="452" y="581"/>
      <point x="505" y="581" type="curve" smooth="yes"/>
      <point x="559" y="581"/>
      <point x="605" y="532"/>
      <point x="605" y="475" type="curve" smooth="yes"/>
      <point x="605" y="419"/>
      <point x="558" y="369"/>
      <point x="505" y="369" type="curve" smooth="yes"/>
    </contour>
  </outline>
</glyph>
<glyph name="plus" format="1">
  <advance width="1171"/>
  <unicode hex="002B"/>
  <outline>
    <contour>
      <point x="665" y="44" type="line"/>
      <point x="658" y="419" type="line"/>
      <point x="1051" y="419" type="line"/>
      <point x="1051" y="557" type="line"/>
      <point x="662" y="557" type="line"/>
      <point x="659" y="908" type="line"/>
      <point x="505" y="907" type="line"/>
      <point x="512" y="557" type="line"/>
      <point x="120" y="557" type="line"/>
      <point x="120" y="419" type="line"/>
      <point x="512" y="419" type="line"/>
      <point x="519" y="42" type="line"/>
    </contour>
  </outline>
</glyph>
<glyph name="comma" format="1">
  <advance width="447"/>
  <unicode hex="002C"/>
  <outline>
    <contour>
      <point x="301" y="-116"/>
      <point x="326" y="-51"/>
      <point x="327" y="185" type="curve"/>
      <point x="327" y="192"/>
      <point x="320" y="197"/>
      <point x="310" y="197" type="curve" smooth="yes"/>
      <point x="137" y="197" type="line" smooth="yes"/>
      <point x="128" y="197"/>
      <point x="120" y="191"/>
      <point x="120" y="186" type="curve" smooth="yes"/>
      <point x="120" y="12" type="line" smooth="yes"/>
      <point x="120" y="7"/>
      <point x="128" y="1"/>
      <point x="137" y="1" type="curve" smooth="yes"/>
      <point x="229" y="1" type="line" smooth="yes"/>
      <point x="240" y="1"/>
      <point x="245" y="-7"/>
      <point x="245" y="-20" type="curve"/>
      <point x="237" y="-72"/>
      <point x="213" y="-115"/>
      <point x="167" y="-161" type="curve" smooth="yes"/>
      <point x="161" y="-167"/>
      <point x="161" y="-171"/>
      <point x="165" y="-177" type="curve" smooth="yes"/>
      <point x="184" y="-201" type="line"/>
      <point x="188" y="-206"/>
      <point x="193" y="-206"/>
      <point x="199" y="-201" type="curve" smooth="yes"/>
    </contour>
  </outline>
</glyph>
<glyph name="hyphen" format="1">
  <advance width="827"/>
  <unicode hex="002D"/>
  <outline>
    <contour>
      <point x="689" y="421" type="line" smooth="yes"/>
      <point x="699" y="421"/>
      <point x="707" y="426"/>
      <point x="707" y="431" type="curve" smooth="yes"/>
      <point x="707" y="518" type="line"/>
      <point x="707" y="524"/>
      <point x="699" y="529"/>
      <point x="689" y="529" type="curve" smooth="yes"/>
      <point x="137" y="529" type="line" smooth="yes"/>
      <point x="128" y="529"/>
      <point x="120" y="523"/>
      <point x="120" y="518" type="curve" smooth="yes"/>
      <point x="120" y="431" type="line" smooth="yes"/>
      <point x="120" y="426"/>
      <point x="128" y="421"/>
      <point x="137" y="421" type="curve" smooth="yes"/>
    </contour>
  </outline>
</glyph>
<glyph name="period" format="1">
  <advance width="589"/>
  <unicode hex="002E"/>
  <outline>
    <contour>
      <point x="311" y="-64"/>
      <point x="319" y="-66"/>
      <point x="324" y="-66" type="curve" smooth="yes"/>
      <point x="334" y="-66"/>
      <point x="344" y="-61"/>
      <point x="351" y="-52" type="curve"/>
      <point x="459" y="101" type="line" smooth="yes"/>
      <point x="467" y="113"/>
      <point x="469" y="118"/>
      <point x="469" y="127" type="curve"/>
      <point x="469" y="138"/>
      <point x="459" y="146"/>
      <point x="449" y="154" type="curve"/>
      <point x="290" y="262" type="line" smooth="yes"/>
      <point x="276" y="272"/>
      <point x="257" y="271"/>
      <point x="244" y="252" type="curve" smooth="yes"/>
      <point x="128" y="82" type="line"/>
      <point x="122" y="74"/>
      <point x="120" y="68"/>
      <point x="120" y="64" type="curve" smooth="yes"/>
      <point x="120" y="58"/>
      <point x="124" y="52"/>
      <point x="137" y="44" type="curve" smooth="yes"/>
      <point x="302" y="-60" type="line"/>
    </contour>
  </outline>
</glyph>
<glyph name="slash" format="1">
  <advance width="1000"/>
  <unicode hex="002F"/>
  <outline>
    <contour>
      <point x="215" y="-376" type="line" smooth="yes"/>
      <point x="222" y="-376"/>
      <point x="228" y="-373"/>
      <point x="229" y="-370" type="curve" smooth="yes"/>
      <point x="880" y="1317" type="line"/>
      <point x="879" y="1322"/>
      <point x="870" y="1327"/>
      <point x="858" y="1327" type="curve" smooth="yes"/>
      <point x="784" y="1327" type="line" smooth="yes"/>
      <point x="778" y="1327"/>
      <point x="772" y="1323"/>
      <point x="770" y="1319" type="curve" smooth="yes"/>
      <point x="120" y="-367" type="line"/>
      <point x="121" y="-372"/>
      <point x="129" y="-376"/>
      <point x="141" y="-376" type="curve" smooth="yes"/>
    </contour>
  </outline>
</glyph>
<glyph name="semicolon" format="1">
  <advance width="519"/>
  <unicode hex="003B"/>
  <outline>
    <contour>
      <point x="231" y="-93"/>
      <point x="242" y="-72" type="curve" smooth="yes"/>
      <point x="304" y="42" type="line" smooth="yes"/>
      <point x="349" y="125"/>
      <point x="399" y="221"/>
      <point x="399" y="309" type="curve" smooth="yes"/>
      <point x="399" y="385"/>
      <point x="343" y="462"/>
      <point x="263" y="489" type="curve" smooth="yes"/>
      <point x="251" y="493"/>
      <point x="241" y="483"/>
      <point x="235" y="473" type="curve" smooth="yes"/>
      <point x="180" y="374" type="line" smooth="yes"/>
      <point x="171" y="357"/>
      <point x="169" y="349"/>
      <point x="192" y="336" type="curve"/>
      <point x="238" y="310"/>
      <point x="282" y="277"/>
      <point x="282" y="214" type="curve" smooth="yes"/>
      <point x="282" y="178"/>
      <point x="268" y="135"/>
      <point x="240" y="87" type="curve" smooth="yes"/>
      <point x="167" y="-40" type="line"/>
      <point x="149" y="-69"/>
    </contour>
    <component base="period" xOffset="25" yOffset="837" xScale="0.795" yScale="0.795"/>
  </outline>
</glyph>
<glyph name="less" format="1">
  <advance width="1120"/>
  <unicode hex="003C"/>
  <outline>
    <contour>
      <point x="1000" y="89" type="line"/>
      <point x="232" y="476" type="line"/>
      <point x="1000" y="861" type="line"/>
      <point x="1000" y="973" type="line"/>
      <point x="120" y="532" type="line"/>
      <point x="120" y="419" type="line"/>
      <point x="1000" y="-23" type="line"/>
    </contour>
  </outline>
</glyph>
<glyph name="equal" format="1">
  <advance width="1171"/>
  <unicode hex="003D"/>
  <outline>
    <contour>
      <point x="1051" y="607" type="line"/>
      <point x="1051" y="745" type="line"/>
      <point x="120" y="745" type="line"/>
      <point x="120" y="607" type="line"/>
    </contour>
    <contour>
      <point x="1051" y="205" type="line"/>
      <point x="1051" y="343" type="line"/>
      <point x="120" y="343" type="line"/>
      <point x="120" y="205" type="line"/>
    </contour>
  </outline>
</glyph>
<glyph name="greater" format="1">
  <advance width="1120"/>
  <unicode hex="003E"/>
  <outline>
    <contour>
      <point x="1000" y="419" type="line"/>
      <point x="1000" y="532" type="line"/>
      <point x="120" y="973" type="line"/>
      <point x="120" y="861" type="line"/>
      <point x="888" y="476" type="line"/>
      <point x="120" y="89" type="line"/>
      <point x="120" y="-23" type="line"/>
    </contour>
  </outline>
</glyph>
<glyph name="at" format="1">
  <advance width="1335"/>
  <unicode hex="0040"/>
  <outline>
    <contour>
      <point x="824" y="-90"/>
      <point x="914" y="-73"/>
      <point x="988" y="-40" type="curve"/>
      <point x="962" y="32" type="line"/>
      <point x="891" y="2"/>
      <point x="811" y="-13"/>
      <point x="720" y="-13" type="curve" smooth="yes"/>
      <point x="396" y="-13"/>
      <point x="208" y="157"/>
      <point x="208" y="449" type="curve" smooth="yes"/>
      <point x="208" y="747"/>
      <point x="417" y="964"/>
      <point x="703" y="964" type="curve" smooth="yes"/>
      <point x="947" y="964"/>
      <point x="1126" y="803"/>
      <point x="1126" y="584" type="curve" smooth="yes"/>
      <point x="1126" y="452"/>
      <point x="1010" y="251"/>
      <point x="898" y="251" type="curve" smooth="yes"/>
      <point x="838" y="251"/>
      <point x="860" y="320"/>
      <point x="875" y="389" type="curve" smooth="yes"/>
      <point x="960" y="780" type="line"/>
      <point x="856" y="797" type="line"/>
      <point x="833" y="693" type="line"/>
      <point x="790" y="760"/>
      <point x="725" y="798"/>
      <point x="654" y="798" type="curve" smooth="yes"/>
      <point x="481" y="798"/>
      <point x="350" y="609"/>
      <point x="350" y="423" type="curve" smooth="yes"/>
      <point x="350" y="266"/>
      <point x="437" y="163"/>
      <point x="566" y="163" type="curve" smooth="yes"/>
      <point x="633" y="163"/>
      <point x="701" y="198"/>
      <point x="756" y="260" type="curve"/>
      <point x="756" y="209"/>
      <point x="806" y="162"/>
      <point x="858" y="162" type="curve" smooth="yes"/>
      <point x="1041" y="162"/>
      <point x="1215" y="367"/>
      <point x="1215" y="583" type="curve" smooth="yes"/>
      <point x="1215" y="849"/>
      <point x="1004" y="1040"/>
      <point x="708" y="1040" type="curve" smooth="yes"/>
      <point x="363" y="1040"/>
      <point x="120" y="792"/>
      <point x="120" y="439" type="curve" smooth="yes"/>
      <point x="120" y="110"/>
      <point x="347" y="-90"/>
      <point x="721" y="-90" type="curve" smooth="yes"/>
    </contour>
    <contour>
      <point x="447" y="546"/>
      <point x="542" y="721"/>
      <point x="661" y="721" type="curve" smooth="yes"/>
      <point x="745" y="721"/>
      <point x="810" y="644"/>
      <point x="810" y="546" type="curve" smooth="yes"/>
      <point x="810" y="343"/>
      <point x="687" y="237"/>
      <point x="588" y="237" type="curve" smooth="yes"/>
      <point x="504" y="237"/>
      <point x="447" y="306"/>
      <point x="447" y="409" type="curve"/>
    </contour>
  </outline>
</glyph>
<glyph name="bracketleft" format="1">
  <advance width="578"/>
  <unicode hex="005B"/>
  <outline>
    <contour>
      <point x="120" y="-514"/>
      <point x="129" y="-520"/>
      <point x="137" y="-520" type="curve" smooth="yes"/>
      <point x="440" y="-520" type="line" smooth="yes"/>
      <point x="449" y="-520"/>
      <point x="458" y="-514"/>
      <point x="458" y="-509" type="curve" smooth="yes"/>
      <point x="458" y="-455" type="line" smooth="yes"/>
      <point x="458" y="-450"/>
      <point x="449" y="-444"/>
      <point x="440" y="-444" type="curve" smooth="yes"/>
      <point x="242" y="-444" type="line"/>
      <point x="242" y="1394" type="line"/>
      <point x="440" y="1394" type="line" smooth="yes"/>
      <point x="449" y="1394"/>
      <point x="458" y="1400"/>
      <point x="458" y="1406" type="curve" smooth="yes"/>
      <point x="458" y="1460" type="line" smooth="yes"/>
      <point x="458" y="1465"/>
      <point x="449" y="1471"/>
      <point x="440" y="1471" type="curve" smooth="yes"/>
      <point x="137" y="1471" type="line" smooth="yes"/>
      <point x="130" y="1471"/>
      <point x="120" y="1465"/>
      <point x="120" y="1460" type="curve" smooth="yes"/>
      <point x="120" y="-509" type="line" smooth="yes"/>
    </contour>
  </outline>
</glyph>
<glyph name="backslash" format="1">
  <advance width="997"/>
  <unicode hex="005C"/>
  <outline>
    <contour>
      <point x="862" y="-376" type="line" smooth="yes"/>
      <point x="874" y="-376"/>
      <point x="880" y="-373"/>
      <point x="876" y="-362" type="curve" smooth="yes"/>
      <point x="227" y="1320" type="line" smooth="yes"/>
      <point x="226" y="1323"/>
      <point x="219" y="1327"/>
      <point x="213" y="1327" type="curve" smooth="yes"/>
      <point x="139" y="1327" type="line" smooth="yes"/>
      <point x="129" y="1327"/>
      <point x="115" y="1319"/>
      <point x="122" y="1304" type="curve"/>
      <point x="768" y="-371" type="line" smooth="yes"/>
      <point x="770" y="-377"/>
      <point x="776" y="-376"/>
      <point x="782" y="-376" type="curve" smooth="yes"/>
    </contour>
  </outline>
</glyph>
<glyph name="bracketright" format="1">
  <advance width="578"/>
  <unicode hex="005D"/>
  <outline>
    <contour>
      <point x="440" y="-520" type="line" smooth="yes"/>
      <point x="449" y="-520"/>
      <point x="458" y="-514"/>
      <point x="458" y="-509" type="curve" smooth="yes"/>
      <point x="458" y="1460" type="line" smooth="yes"/>
      <point x="458" y="1465"/>
      <point x="449" y="1471"/>
      <point x="440" y="1471" type="curve" smooth="yes"/>
      <point x="137" y="1471" type="line" smooth="yes"/>
      <point x="130" y="1471"/>
      <point x="120" y="1465"/>
      <point x="120" y="1460" type="curve" smooth="yes"/>
      <point x="120" y="1406" type="line" smooth="yes"/>
      <point x="120" y="1400"/>
      <point x="128" y="1394"/>
      <point x="137" y="1394" type="curve" smooth="yes"/>
      <point x="335" y="1394" type="line"/>
      <point x="335" y="-444" type="line"/>
      <point x="137" y="-444" type="line" smooth="yes"/>
      <point x="129" y="-444"/>
      <point x="120" y="-450"/>
      <point x="120" y="-455" type="curve" smooth="yes"/>
      <point x="120" y="-509" type="line" smooth="yes"/>
      <point x="120" y="-514"/>
      <point x="129" y="-520"/>
      <point x="137" y="-520" type="curve" smooth="yes"/>
    </contour>
  </outline>
</glyph>
<glyph name="asciicircum" format="1">
  <advance width="1302"/>
  <unicode hex="005E"/>
  <outline>
    <contour>
      <point x="261" y="607" type="line"/>
      <point x="650" y="1524" type="line"/>
      <point x="1041" y="607" type="line"/>
      <point x="1182" y="607" type="line"/>
      <point x="737" y="1667" type="line"/>
      <point x="565" y="1667" type="line"/>
      <point x="120" y="607" type="line"/>
    </contour>
  </outline>
</glyph>
<glyph name="underscore" format="1">
  <advance width="990"/>
  <unicode hex="005F"/>
  <outline>
    <contour>
      <point x="990" y="-274" type="line"/>
      <point x="990" y="-176" type="line"/>
      <point x="0" y="-176" type="line"/>
      <point x="0" y="-274" type="line"/>
    </contour>
  </outline>
</glyph>
<glyph name="braceleft" format="1">
  <advance width="718"/>
  <unicode hex="007B"/>
  <outline>
    <contour>
      <point x="580" y="-522" type="line" smooth="yes"/>
      <point x="589" y="-522"/>
      <point x="598" y="-516"/>
      <point x="598" y="-511" type="curve" smooth="yes"/>
      <point x="598" y="-457" type="line" smooth="yes"/>
      <point x="598" y="-451"/>
      <point x="589" y="-446"/>
      <point x="580" y="-446" type="curve" smooth="yes"/>
      <point x="416" y="-446" type="line" smooth="yes"/>
      <point x="397" y="-446"/>
      <point x="382" y="-429"/>
      <point x="382" y="-407" type="curve" smooth="yes"/>
      <point x="382" y="211" type="line" smooth="yes"/>
      <point x="382" y="336"/>
      <point x="308" y="408"/>
      <point x="247" y="475" type="curve"/>
      <point x="308" y="542"/>
      <point x="382" y="613"/>
      <point x="382" y="739" type="curve"/>
      <point x="382" y="1356" type="line" smooth="yes"/>
      <point x="382" y="1378"/>
      <point x="397" y="1395"/>
      <point x="416" y="1395" type="curve" smooth="yes"/>
      <point x="580" y="1395" type="line" smooth="yes"/>
      <point x="589" y="1395"/>
      <point x="598" y="1401"/>
      <point x="598" y="1407" type="curve" smooth="yes"/>
      <point x="598" y="1461" type="line" smooth="yes"/>
      <point x="598" y="1466"/>
      <point x="589" y="1471"/>
      <point x="580" y="1471" type="curve" smooth="yes"/>
      <point x="394" y="1471" type="line" smooth="yes"/>
      <point x="307" y="1471"/>
      <point x="261" y="1427"/>
      <point x="261" y="1344" type="curve" smooth="yes"/>
      <point x="261" y="769" type="line" smooth="yes"/>
      <point x="261" y="593"/>
      <point x="223" y="579"/>
      <point x="123" y="479" type="curve" smooth="yes"/>
      <point x="119" y="475"/>
      <point x="119" y="474"/>
      <point x="123" y="470" type="curve" smooth="yes"/>
      <point x="228" y="365"/>
      <point x="261" y="345"/>
      <point x="261" y="159" type="curve" smooth="yes"/>
      <point x="261" y="-395" type="line" smooth="yes"/>
      <point x="261" y="-478"/>
      <point x="307" y="-522"/>
      <point x="394" y="-522" type="curve" smooth="yes"/>
    </contour>
  </outline>
</glyph>
<glyph name="bar" format="1">
  <advance width="362"/>
  <unicode hex="007C"/>
  <outline>
    <contour>
      <point x="242" y="-520" type="line"/>
      <point x="242" y="1471" type="line"/>
      <point x="120" y="1471" type="line"/>
      <point x="120" y="-520" type="line"/>
    </contour>
  </outline>
</glyph>
<glyph name="braceright" format="1">
  <advance width="717"/>
  <unicode hex="007D"/>
  <outline>
    <contour>
      <point x="325" y="-522" type="line" smooth="yes"/>
      <point x="411" y="-522"/>
      <point x="458" y="-477"/>
      <point x="458" y="-395" type="curve" smooth="yes"/>
      <point x="458" y="159" type="line"/>
      <point x="458" y="345"/>
      <point x="489" y="365"/>
      <point x="593" y="469" type="curve" smooth="yes"/>
      <point x="599" y="475"/>
      <point x="598" y="475"/>
      <point x="594" y="479" type="curve"/>
      <point x="493" y="576"/>
      <point x="458" y="593"/>
      <point x="458" y="769" type="curve"/>
      <point x="458" y="1344" type="line" smooth="yes"/>
      <point x="458" y="1427"/>
      <point x="412" y="1471"/>
      <point x="325" y="1471" type="curve" smooth="yes"/>
      <point x="137" y="1471" type="line" smooth="yes"/>
      <point x="129" y="1471"/>
      <point x="120" y="1465"/>
      <point x="120" y="1461" type="curve" smooth="yes"/>
      <point x="120" y="1407" type="line" smooth="yes"/>
      <point x="120" y="1401"/>
      <point x="129" y="1395"/>
      <point x="137" y="1395" type="curve" smooth="yes"/>
      <point x="302" y="1395" type="line" smooth="yes"/>
      <point x="321" y="1395"/>
      <point x="335" y="1378"/>
      <point x="335" y="1356" type="curve" smooth="yes"/>
      <point x="335" y="739" type="line" smooth="yes"/>
      <point x="335" y="613"/>
      <point x="409" y="542"/>
      <point x="470" y="475" type="curve"/>
      <point x="409" y="408"/>
      <point x="335" y="336"/>
      <point x="335" y="211" type="curve" smooth="yes"/>
      <point x="335" y="-407" type="line" smooth="yes"/>
      <point x="335" y="-429"/>
      <point x="321" y="-446"/>
      <point x="302" y="-446" type="curve" smooth="yes"/>
      <point x="137" y="-446" type="line" smooth="yes"/>
      <point x="124" y="-446"/>
      <point x="120" y="-450"/>
      <point x="120" y="-457" type="curve" smooth="yes"/>
      <point x="120" y="-511" type="line" smooth="yes"/>
      <point x="120" y="-518"/>
      <point x="124" y="-522"/>
      <point x="137" y="-522" type="curve" smooth="yes"/>
    </contour>
  </outline>
</glyph>
<glyph name="asciitilde" format="1">
  <advance width="1251"/>
  <unicode hex="007E"/>
  <outline>
    <contour>
      <point x="269" y="455"/>
      <point x="356" y="485"/>
      <point x="440" y="485" type="curve" smooth="yes"/>
      <point x="629" y="485"/>
      <point x="696" y="350"/>
      <point x="892" y="350" type="curve" smooth="yes"/>
      <point x="977" y="350"/>
      <point x="1059" y="378"/>
      <point x="1131" y="430" type="curve"/>
      <point x="1070" y="520" type="line"/>
      <point x="1002" y="482"/>
      <point x="941" y="464"/>
      <point x="879" y="464" type="curve" smooth="yes"/>
      <point x="682" y="464"/>
      <point x="627" y="592"/>
      <point x="428" y="592" type="curve" smooth="yes"/>
      <point x="316" y="592"/>
      <point x="202" y="553"/>
      <point x="120" y="486" type="curve"/>
      <point x="174" y="394" type="line"/>
    </contour>
  </outline>
</glyph>
<glyph name="guillemetleft" format="1">
  <advance width="938"/>
  <unicode hex="00AB"/>
  <outline>
    <contour>
      <point x="418" y="-103"/>
      <point x="418" y="-103"/>
      <point x="427" y="-86" type="curve"/>
      <point x="498" y="57" type="line"/>
      <point x="559" y="-11"/>
      <point x="682" y="-95"/>
      <point x="723" y="-95" type="curve" smooth="yes"/>
      <point x="731" y="-95"/>
      <point x="737" y="-91"/>
      <point x="740" y="-86" type="curve" smooth="yes"/>
      <point x="816" y="65" type="line"/>
      <point x="818" y="75"/>
      <point x="822" y="78"/>
      <point x="806" y="84" type="curve" smooth="yes"/>
      <point x="648" y="146"/>
      <point x="579" y="218"/>
      <point x="579" y="323" type="curve" smooth="yes"/>
      <point x="579" y="488"/>
      <point x="767" y="740"/>
      <point x="767" y="782" type="curve"/>
      <point x="767" y="787"/>
      <point x="765" y="789"/>
      <point x="756" y="792" type="curve"/>
      <point x="685" y="819" type="line"/>
      <point x="680" y="820"/>
      <point x="672" y="816"/>
      <point x="670" y="811" type="curve" smooth="yes"/>
      <point x="559" y="620"/>
      <point x="427" y="420"/>
      <point x="434" y="247" type="curve" smooth="yes"/>
      <point x="438" y="149"/>
      <point x="467" y="99"/>
      <point x="459" y="102" type="curve" smooth="yes"/>
      <point x="406" y="123"/>
      <point x="266" y="231"/>
      <point x="266" y="322" type="curve" smooth="yes"/>
      <point x="266" y="487"/>
      <point x="454" y="742"/>
      <point x="454" y="782" type="curve" smooth="yes"/>
      <point x="454" y="786"/>
      <point x="452" y="789"/>
      <point x="442" y="792" type="curve"/>
      <point x="371" y="819" type="line"/>
      <point x="366" y="820"/>
      <point x="357" y="816"/>
      <point x="355" y="811" type="curve" smooth="yes"/>
      <point x="245" y="620"/>
      <point x="120" y="420"/>
      <point x="120" y="247" type="curve" smooth="yes"/>
      <point x="120" y="101"/>
      <point x="208" y="-8"/>
      <point x="395" y="-93" type="curve"/>
    </contour>
  </outline>
</glyph>
<glyph name="degree" format="1">
  <advance width="794"/>
  <unicode hex="00B0"/>
  <outline>
    <contour>
      <point x="550" y="1028"/>
      <point x="674" y="1149"/>
      <point x="674" y="1299" type="curve"/>
      <point x="674" y="1449"/>
      <point x="551" y="1570"/>
      <point x="397" y="1570" type="curve" smooth="yes"/>
      <point x="243" y="1570"/>
      <point x="120" y="1450"/>
      <point x="120" y="1299" type="curve" smooth="yes"/>
      <point x="120" y="1149"/>
      <point x="243" y="1028"/>
      <point x="397" y="1028" type="curve" smooth="yes"/>
    </contour>
    <contour>
      <point x="290" y="1100"/>
      <point x="203" y="1190"/>
      <point x="203" y="1299" type="curve"/>
      <point x="203" y="1409"/>
      <point x="290" y="1498"/>
      <point x="397" y="1498" type="curve" smooth="yes"/>
      <point x="504" y="1498"/>
      <point x="590" y="1409"/>
      <point x="590" y="1299" type="curve" smooth="yes"/>
      <point x="590" y="1189"/>
      <point x="504" y="1100"/>
      <point x="397" y="1100" type="curve" smooth="yes"/>
    </contour>
  </outline>
</glyph>
<glyph name="guillemetright" format="1">
  <advance width="938"/>
  <unicode hex="00BB"/>
  <outline>
    <contour>
      <point x="730" y="-22"/>
      <point x="818" y="87"/>
      <point x="818" y="233" type="curve" smooth="yes"/>
      <point x="818" y="406"/>
      <point x="696" y="608"/>
      <point x="583" y="797" type="curve" smooth="yes"/>
      <point x="580" y="802"/>
      <point x="572" y="806"/>
      <point x="567" y="805" type="curve"/>
      <point x="496" y="778" type="line"/>
      <point x="486" y="775"/>
      <point x="484" y="772"/>
      <point x="484" y="768" type="curve" smooth="yes"/>
      <point x="484" y="728"/>
      <point x="672" y="473"/>
      <point x="672" y="308" type="curve" smooth="yes"/>
      <point x="672" y="217"/>
      <point x="532" y="108"/>
      <point x="479" y="88" type="curve" smooth="yes"/>
      <point x="471" y="85"/>
      <point x="500" y="135"/>
      <point x="504" y="233" type="curve" smooth="yes"/>
      <point x="511" y="406"/>
      <point x="382" y="608"/>
      <point x="268" y="797" type="curve" smooth="yes"/>
      <point x="265" y="802"/>
      <point x="258" y="806"/>
      <point x="253" y="805" type="curve"/>
      <point x="182" y="778" type="line"/>
      <point x="173" y="775"/>
      <point x="171" y="773"/>
      <point x="171" y="768" type="curve"/>
      <point x="171" y="726"/>
      <point x="359" y="474"/>
      <point x="359" y="309" type="curve"/>
      <point x="359" y="204"/>
      <point x="291" y="130"/>
      <point x="132" y="70" type="curve" smooth="yes"/>
      <point x="116" y="64"/>
      <point x="120" y="61"/>
      <point x="122" y="51" type="curve"/>
      <point x="198" y="-100" type="line" smooth="yes"/>
      <point x="200" y="-105"/>
      <point x="207" y="-109"/>
      <point x="215" y="-109" type="curve" smooth="yes"/>
      <point x="256" y="-109"/>
      <point x="379" y="-25"/>
      <point x="440" y="43" type="curve"/>
      <point x="511" y="-100" type="line"/>
      <point x="520" y="-117"/>
      <point x="520" y="-117"/>
      <point x="543" y="-107" type="curve"/>
    </contour>
  </outline>
</glyph>
<glyph name="multiply" format="1">
  <advance width="1197"/>
  <unicode hex="00D7"/>
  <outline>
    <contour>
      <point x="600" y="399" type="line"/>
      <point x="981" y="-30" type="line"/>
      <point x="1077" y="44" type="line"/>
      <point x="679" y="488" type="line"/>
      <point x="1048" y="902" type="line"/>
      <point x="959" y="979" type="line"/>
      <point x="599" y="579" type="line"/>
      <point x="240" y="979" type="line"/>
      <point x="151" y="902" type="line"/>
      <point x="520" y="488" type="line"/>
      <point x="120" y="42" type="line"/>
      <point x="218" y="-29" type="line"/>
    </contour>
  </outline>
</glyph>
<glyph name="divide" format="1">
  <advance width="1171"/>
  <unicode hex="00F7"/>
  <outline>
    <contour>
      <point x="1051" y="375" type="line"/>
      <point x="1051" y="513" type="line"/>
      <point x="120" y="513" type="line"/>
      <point x="120" y="375" type="line"/>
    </contour>
    <contour>
      <point x="648" y="-66"/>
      <point x="692" y="-26"/>
      <point x="692" y="22" type="curve"/>
      <point x="692" y="72"/>
      <point x="649" y="113"/>
      <point x="596" y="113" type="curve" smooth="yes"/>
      <point x="544" y="113"/>
      <point x="501" y="72"/>
      <point x="501" y="22" type="curve" smooth="yes"/>
      <point x="501" y="-25"/>
      <point x="545" y="-66"/>
      <point x="596" y="-66" type="curve" smooth="yes"/>
    </contour>
    <contour>
      <point x="649" y="836"/>
      <point x="692" y="877"/>
      <point x="692" y="927" type="curve" smooth="yes"/>
      <point x="692" y="975"/>
      <point x="649" y="1015"/>
      <point x="596" y="1015" type="curve" smooth="yes"/>
      <point x="544" y="1015"/>
      <point x="501" y="975"/>
      <point x="501" y="927" type="curve" smooth="yes"/>
      <point x="501" y="877"/>
      <point x="544" y="836"/>
      <point x="596" y="836" type="curve" smooth="yes"/>
    </contour>
  </outline>
</glyph>
<glyph name="caron" format="1">
  <advance width="684"/>
  <unicode hex="02C7"/>
  <outline>
    <contour>
      <point x="412" y="1022" type="line"/>
      <point x="564" y="1426" type="line"/>
      <point x="505" y="1477" type="line"/>
      <point x="377" y="1142" type="line"/>
      <point x="313" y="1291"/>
      <point x="264" y="1425"/>
      <point x="191" y="1425" type="curve" smooth="yes"/>
      <point x="168" y="1425"/>
      <point x="144" y="1414"/>
      <point x="120" y="1394" type="curve"/>
      <point x="213" y="1278"/>
      <point x="268" y="1132"/>
      <point x="319" y="994" type="curve"/>
    </contour>
  </outline>
</glyph>
<glyph name="lowringmod" format="1">
  <advance width="745"/>
  <unicode hex="02F3"/>
  <outline>
    <contour>
      <point x="512" y="-461"/>
      <point x="625" y="-350"/>
      <point x="625" y="-213" type="curve"/>
      <point x="625" y="-78"/>
      <point x="511" y="33"/>
      <point x="372" y="33" type="curve" smooth="yes"/>
      <point x="234" y="33"/>
      <point x="120" y="-78"/>
      <point x="120" y="-213" type="curve" smooth="yes"/>
      <point x="120" y="-350"/>
      <point x="233" y="-461"/>
      <point x="372" y="-461" type="curve" smooth="yes"/>
    </contour>
    <contour>
      <point x="275" y="-395"/>
      <point x="197" y="-314"/>
      <point x="197" y="-212" type="curve"/>
      <point x="197" y="-112"/>
      <point x="275" y="-31"/>
      <point x="372" y="-31" type="curve" smooth="yes"/>
      <point x="469" y="-31"/>
      <point x="548" y="-113"/>
      <point x="548" y="-212" type="curve" smooth="yes"/>
      <point x="548" y="-314"/>
      <point x="470" y="-395"/>
      <point x="372" y="-395" type="curve" smooth="yes"/>
    </contour>
  </outline>
</glyph>
<glyph name="comma-ar" format="1">
  <advance width="484"/>
  <unicode hex="060C"/>
  <outline>
    <contour>
      <point x="360" y="107" type="line"/>
      <point x="363" y="115"/>
      <point x="369" y="125"/>
      <point x="354" y="128" type="curve"/>
      <point x="279" y="154"/>
      <point x="245" y="190"/>
      <point x="245" y="245" type="curve" smooth="yes"/>
      <point x="245" y="300"/>
      <point x="267" y="340"/>
      <point x="360" y="517" type="curve"/>
      <point x="361" y="525"/>
      <point x="360" y="527"/>
      <point x="353" y="533" type="curve"/>
      <point x="306" y="552" type="line"/>
      <point x="294" y="555"/>
      <point x="284" y="551"/>
      <point x="280" y="543" type="curve"/>
      <point x="152" y="310"/>
      <point x="120" y="245"/>
      <point x="120" y="148" type="curve" smooth="yes"/>
      <point x="120" y="64"/>
      <point x="175" y="-14"/>
      <point x="284" y="-34" type="curve"/>
    </contour>
  </outline>
</glyph>
<glyph name="tahabove-ar" format="1">
  <advance width="0"/>
  <unicode hex="0615"/>
  <outline>
    <contour>
      <point x="170" y="1228" type="line"/>
      <point x="170" y="1233"/>
      <point x="163" y="1238"/>
      <point x="153" y="1238" type="curve"/>
      <point x="106" y="1200" type="line"/>
      <point x="116" y="1076" type="line" smooth="yes"/>
      <point x="128" y="930"/>
      <point x="128" y="930"/>
      <point x="70" y="877" type="curve"/>
      <point x="17" y="881" type="line" smooth="yes"/>
      <point x="6" y="882"/>
      <point x="-2" y="876"/>
      <point x="0" y="867" type="curve"/>
      <point x="14" y="815"/>
      <point x="20" y="812"/>
      <point x="71" y="806" type="curve"/>
      <point x="92" y="805"/>
      <point x="118" y="804"/>
      <point x="145" y="804" type="curve" smooth="yes"/>
      <point x="337" y="804"/>
      <point x="470" y="862"/>
      <point x="470" y="944" type="curve" smooth="yes"/>
      <point x="470" y="1011"/>
      <point x="404" y="1074"/>
      <point x="335" y="1074" type="curve" smooth="yes"/>
      <point x="288" y="1074"/>
      <point x="235" y="1047"/>
      <point x="177" y="992" type="curve"/>
    </contour>
    <contour>
      <point x="344" y="882"/>
      <point x="239" y="864"/>
      <point x="113" y="869" type="curve"/>
      <point x="224" y="982"/>
      <point x="261" y="1010"/>
      <point x="312" y="1010" type="curve" smooth="yes"/>
      <point x="362" y="1010"/>
      <point x="407" y="976"/>
      <point x="427" y="923" type="curve"/>
    </contour>
    <contour>
      <point x="246" y="1462" type="move" name="top"/>
    </contour>
    <contour>
      <point x="256" y="804" type="move" name="_top"/>
    </contour>
  </outline>
</glyph>
<glyph name="alefLamYehabove-ar" format="1">
  <advance width="0"/>
  <unicode hex="0616"/>
  <outline>
    <contour>
      <point x="478" y="556" type="line"/>
      <point x="518" y="1015" type="line"/>
      <point x="518" y="1106"/>
      <point x="514" y="1144"/>
      <point x="424" y="1245" type="curve" smooth="yes"/>
      <point x="416" y="1254"/>
      <point x="412" y="1257"/>
      <point x="403" y="1251" type="curve" smooth="yes"/>
      <point x="322" y="1195" type="line"/>
      <point x="348" y="696" type="line"/>
      <point x="195" y="657"/>
      <point x="30" y="619"/>
      <point x="1" y="443" type="curve" smooth="yes"/>
      <point x="-8" y="389"/>
      <point x="52" y="370"/>
      <point x="206" y="370" type="curve" smooth="yes"/>
      <point x="295" y="370"/>
      <point x="531" y="381"/>
      <point x="769" y="396" type="curve"/>
      <point x="774" y="448" type="line"/>
      <point x="609" y="436"/>
      <point x="408" y="426"/>
      <point x="254" y="426" type="curve" smooth="yes"/>
      <point x="160" y="426"/>
      <point x="92" y="433"/>
      <point x="36" y="448" type="curve"/>
      <point x="58" y="565"/>
      <point x="214" y="604"/>
      <point x="332" y="631" type="curve" smooth="yes"/>
      <point x="371" y="640"/>
      <point x="393" y="699"/>
      <point x="393" y="800" type="curve"/>
      <point x="373" y="1203" type="line"/>
      <point x="465" y="1086"/>
      <point x="465" y="1084"/>
      <point x="462" y="941" type="curve"/>
      <point x="430" y="549" type="line"/>
    </contour>
    <contour>
      <point x="413" y="1468" type="move" name="top"/>
    </contour>
    <contour>
      <point x="413" y="370" type="move" name="_top"/>
    </contour>
  </outline>
</glyph>
<glyph name="question-ar" format="1">
  <advance width="793"/>
  <unicode hex="061F"/>
  <outline>
    <contour>
      <point x="458" y="386" type="curve"/>
      <point x="544" y="418" type="line"/>
      <point x="554" y="423"/>
      <point x="555" y="426"/>
      <point x="555" y="431" type="curve" smooth="yes"/>
      <point x="558" y="542" type="line" smooth="yes"/>
      <point x="565" y="805"/>
      <point x="230" y="922"/>
      <point x="206" y="1020" type="curve" smooth="yes"/>
      <point x="205" y="1024"/>
      <point x="205" y="1029"/>
      <point x="206" y="1034" type="curve"/>
      <point x="252" y="1140"/>
      <point x="344" y="1197"/>
      <point x="461" y="1197" type="curve" smooth="yes"/>
      <point x="527" y="1197"/>
      <point x="592" y="1178"/>
      <point x="650" y="1142" type="curve"/>
      <point x="659" y="1139"/>
      <point x="671" y="1143"/>
      <point x="671" y="1153" type="curve"/>
      <point x="671" y="1255" type="line"/>
      <point x="671" y="1262"/>
      <point x="670" y="1264"/>
      <point x="659" y="1273" type="curve" smooth="yes"/>
      <point x="603" y="1319"/>
      <point x="528" y="1342"/>
      <point x="454" y="1342" type="curve" smooth="yes"/>
      <point x="280" y="1342"/>
      <point x="120" y="1211"/>
      <point x="120" y="990" type="curve" smooth="yes"/>
      <point x="120" y="841"/>
      <point x="226" y="804"/>
      <point x="344" y="691" type="curve" smooth="yes"/>
      <point x="414" y="624"/>
      <point x="451" y="593"/>
      <point x="449" y="494" type="curve" smooth="yes"/>
      <point x="447" y="401" type="line" smooth="yes"/>
      <point x="447" y="391"/>
      <point x="447" y="382"/>
    </contour>
    <component base="period" xOffset="262" yOffset="-20" xScale="0.876" yScale="0.876"/>
  </outline>
</glyph>
<glyph name="hamza-ar" format="1">
  <advance width="993"/>
  <unicode hex="0621"/>
  <outline>
    <contour>
      <point x="849" y="316" type="line"/>
      <point x="859" y="432"/>
      <point x="849" y="470"/>
      <point x="821" y="454" type="curve" smooth="yes"/>
      <point x="490" y="257" type="line" smooth="yes"/>
      <point x="479" y="251"/>
      <point x="474" y="252"/>
      <point x="466" y="260" type="curve"/>
      <point x="275" y="436" type="line"/>
      <point x="266" y="445"/>
      <point x="266" y="462"/>
      <point x="275" y="468" type="curve" smooth="yes"/>
      <point x="388" y="544"/>
      <point x="478" y="597"/>
      <point x="603" y="597" type="curve" smooth="yes"/>
      <point x="653" y="597"/>
      <point x="658" y="599"/>
      <point x="657" y="605" type="curve" smooth="yes"/>
      <point x="647" y="701" type="line"/>
      <point x="595" y="718"/>
      <point x="562" y="720"/>
      <point x="522" y="720" type="curve" smooth="yes"/>
      <point x="333" y="720"/>
      <point x="180" y="590"/>
      <point x="180" y="430" type="curve" smooth="yes"/>
      <point x="180" y="342"/>
      <point x="275" y="243"/>
      <point x="346" y="193" type="curve" smooth="yes"/>
      <point x="356" y="186"/>
      <point x="355" y="165"/>
      <point x="344" y="160" type="curve"/>
      <point x="230" y="91" type="line" smooth="yes"/>
      <point x="220" y="85"/>
      <point x="218" y="83"/>
      <point x="218" y="75" type="curve" smooth="yes"/>
      <point x="217" y="-24" type="line" smooth="yes"/>
      <point x="217" y="-32"/>
      <point x="229" y="-33"/>
      <point x="238" y="-31" type="curve"/>
    </contour>
    <contour>
      <point x="514" y="921" type="move" name="top"/>
    </contour>
    <contour>
      <point x="534" y="-145" type="move" name="bottom"/>
    </contour>
  </outline>
</glyph>
<glyph name="alef-ar" format="1">
  <advance width="493"/>
  <unicode hex="0627"/>
  <outline>
    <contour>
      <point x="180" y="1393" type="line"/>
      <point x="234" y="-19" type="line"/>
      <point x="235" y="-29"/>
      <point x="243" y="-39"/>
      <point x="263" y="-31" type="curve" smooth="yes"/>
      <point x="353" y="6" type="line"/>
      <point x="345" y="1453" type="line"/>
      <point x="345" y="1466"/>
      <point x="328" y="1473"/>
      <point x="314" y="1466" type="curve"/>
    </contour>
    <contour>
      <point x="271" y="1622" type="move" name="top"/>
    </contour>
    <contour>
      <point x="294" y="-223" type="move" name="bottom"/>
    </contour>
  </outline>
</glyph>
<glyph name="tehMarbuta-ar" format="1">
  <advance width="1020"/>
  <unicode hex="0629"/>
  <outline>
    <component base="heh-ar"/>
    <component base="twodotshorizontalabove-ar" xOffset="96" yOffset="237"/>
    <contour>
      <point x="454" y="-230" type="move" name="bottom"/>
    </contour>
  </outline>
</glyph>
<glyph name="theh-ar" format="1">
  <advance width="1774"/>
  <unicode hex="062B"/>
  <outline>
    <component base="behDotless-ar"/>
    <component base="threedotsupabove-ar" xOffset="518" yOffset="231"/>
    <contour>
      <point x="786" y="-230" type="move" name="bottom"/>
    </contour>
  </outline>
</glyph>
<glyph name="hah-ar" format="1">
  <advance width="1404"/>
  <unicode hex="062D"/>
  <outline>
    <contour>
      <point x="196" y="669"/>
      <point x="194" y="666"/>
      <point x="194" y="661" type="curve" smooth="yes"/>
      <point x="194" y="657"/>
      <point x="196" y="652"/>
      <point x="199" y="645" type="curve" smooth="yes"/>
      <point x="229" y="573" type="line" smooth="yes"/>
      <point x="233" y="563"/>
      <point x="240" y="559"/>
      <point x="247" y="559" type="curve" smooth="yes"/>
      <point x="253" y="559"/>
      <point x="260" y="563"/>
      <point x="265" y="568" type="curve" smooth="yes"/>
      <point x="333" y="636"/>
      <point x="374" y="660"/>
      <point x="424" y="660" type="curve" smooth="yes"/>
      <point x="464" y="660"/>
      <point x="472" y="657"/>
      <point x="807" y="561" type="curve"/>
      <point x="806" y="551" type="line"/>
      <point x="414" y="486"/>
      <point x="180" y="146"/>
      <point x="180" y="-193" type="curve" smooth="yes"/>
      <point x="180" y="-564"/>
      <point x="386" y="-696"/>
      <point x="727" y="-696" type="curve" smooth="yes"/>
      <point x="810" y="-696"/>
      <point x="902" y="-688"/>
      <point x="1000" y="-674" type="curve" smooth="yes"/>
      <point x="1194" y="-646"/>
      <point x="1238" y="-617"/>
      <point x="1288" y="-490" type="curve"/>
      <point x="1288" y="-491" type="line"/>
      <point x="1290" y="-480"/>
      <point x="1283" y="-474"/>
      <point x="1267" y="-474" type="curve" smooth="yes"/>
      <point x="1233" y="-474"/>
      <point x="1050" y="-527"/>
      <point x="816" y="-527" type="curve" smooth="yes"/>
      <point x="484" y="-527"/>
      <point x="291" y="-399"/>
      <point x="291" y="-177" type="curve"/>
      <point x="291" y="204"/>
      <point x="662" y="483"/>
      <point x="1193" y="483" type="curve" smooth="yes"/>
      <point x="1199" y="483"/>
      <point x="1207" y="486"/>
      <point x="1207" y="489" type="curve"/>
      <point x="1258" y="622" type="line"/>
      <point x="1262" y="633"/>
      <point x="1264" y="641"/>
      <point x="1264" y="647" type="curve" smooth="yes"/>
      <point x="1264" y="664"/>
      <point x="1247" y="666"/>
      <point x="1201" y="666" type="curve" smooth="yes"/>
      <point x="1189" y="666"/>
      <point x="1174" y="666"/>
      <point x="1157" y="666" type="curve" smooth="yes"/>
      <point x="788" y="666"/>
      <point x="638" y="819"/>
      <point x="449" y="819" type="curve" smooth="yes"/>
      <point x="364" y="819"/>
      <point x="301" y="782"/>
      <point x="199" y="672" type="curve"/>
    </contour>
    <contour>
      <point x="810" y="-45" type="move" name="center"/>
    </contour>
    <contour>
      <point x="725" y="-895" type="move" name="bottom"/>
    </contour>
    <contour>
      <point x="447" y="1020" type="move" name="top"/>
    </contour>
  </outline>
</glyph>
<glyph name="dal-ar" format="1">
  <advance width="1129"/>
  <unicode hex="062F"/>
  <outline>
    <contour>
      <point x="577" y="-38"/>
      <point x="836" y="8"/>
      <point x="918" y="65" type="curve" smooth="yes"/>
      <point x="967" y="99"/>
      <point x="989" y="153"/>
      <point x="989" y="240" type="curve"/>
      <point x="989" y="422"/>
      <point x="901" y="525"/>
      <point x="653" y="928" type="curve" smooth="yes"/>
      <point x="645" y="941"/>
      <point x="633" y="943"/>
      <point x="626" y="933" type="curve"/>
      <point x="549" y="800" type="line"/>
      <point x="787" y="445"/>
      <point x="870" y="298"/>
      <point x="886" y="194" type="curve"/>
      <point x="762" y="148"/>
      <point x="606" y="121"/>
      <point x="471" y="121" type="curve" smooth="yes"/>
      <point x="301" y="121"/>
      <point x="279" y="132"/>
      <point x="279" y="305" type="curve" smooth="yes"/>
      <point x="279" y="312"/>
      <point x="272" y="317"/>
      <point x="261" y="317" type="curve" smooth="yes"/>
      <point x="202" y="317" type="line" smooth="yes"/>
      <point x="191" y="317"/>
      <point x="185" y="314"/>
      <point x="185" y="307" type="curve" smooth="yes"/>
      <point x="185" y="273"/>
      <point x="180" y="241"/>
      <point x="180" y="211" type="curve" smooth="yes"/>
      <point x="180" y="35"/>
      <point x="257" y="-38"/>
      <point x="443" y="-38" type="curve" smooth="yes"/>
    </contour>
    <contour>
      <point x="641" y="1144" type="move" name="top"/>
    </contour>
    <contour>
      <point x="487" y="-233" type="move" name="bottom"/>
    </contour>
    <contour>
      <point x="886" y="52" type="move" name="ring"/>
    </contour>
  </outline>
</glyph>
<glyph name="reh-ar" format="1">
  <advance width="885"/>
  <unicode hex="0631"/>
  <outline>
    <contour>
      <point x="621" y="-289"/>
      <point x="745" y="-22"/>
      <point x="745" y="165" type="curve"/>
      <point x="745" y="295"/>
      <point x="692" y="478"/>
      <point x="638" y="666" type="curve" smooth="yes"/>
      <point x="636" y="673"/>
      <point x="622" y="675"/>
      <point x="615" y="668" type="curve"/>
      <point x="508" y="560" type="line"/>
      <point x="646" y="128" type="line" smooth="yes"/>
      <point x="649" y="119"/>
      <point x="648" y="111"/>
      <point x="645" y="102" type="curve"/>
      <point x="534" y="-167"/>
      <point x="388" y="-285"/>
      <point x="164" y="-285" type="curve" smooth="yes"/>
      <point x="102" y="-285"/>
      <point x="38" y="-277"/>
      <point x="-29" y="-262" type="curve" smooth="yes"/>
      <point x="-38" y="-260"/>
      <point x="-47" y="-265"/>
      <point x="-50" y="-273" type="curve" smooth="yes"/>
      <point x="-72" y="-342" type="line"/>
      <point x="14" y="-375"/>
      <point x="198" y="-419"/>
      <point x="276" y="-419" type="curve" smooth="yes"/>
      <point x="345" y="-419"/>
      <point x="407" y="-404"/>
      <point x="463" y="-374" type="curve" smooth="yes"/>
    </contour>
    <contour>
      <point x="615" y="864" type="move" name="top"/>
    </contour>
    <contour>
      <point x="287" y="-619" type="move" name="bottom"/>
    </contour>
    <contour>
      <point x="549" y="-320" type="move" name="ring"/>
    </contour>
  </outline>
</glyph>
<glyph name="seen-ar" format="1">
  <advance width="2565"/>
  <unicode hex="0633"/>
  <outline>
    <contour>
      <point x="799" y="-510"/>
      <point x="1145" y="-420"/>
      <point x="1258" y="-262" type="curve" smooth="yes"/>
      <point x="1305" y="-196"/>
      <point x="1302" y="-102"/>
      <point x="1289" y="20" type="curve"/>
      <point x="1324" y="5"/>
      <point x="1395" y="-5"/>
      <point x="1469" y="-5" type="curve" smooth="yes"/>
      <point x="1622" y="-5"/>
      <point x="1761" y="34"/>
      <point x="1804" y="89" type="curve"/>
      <point x="1907" y="26"/>
      <point x="2021" y="-7"/>
      <point x="2135" y="-7" type="curve" smooth="yes"/>
      <point x="2357" y="-7"/>
      <point x="2432" y="69"/>
      <point x="2425" y="290" type="curve" smooth="yes"/>
      <point x="2422" y="386"/>
      <point x="2385" y="635"/>
      <point x="2352" y="798" type="curve" smooth="yes"/>
      <point x="2350" y="808"/>
      <point x="2343" y="808"/>
      <point x="2336" y="801" type="curve" smooth="yes"/>
      <point x="2223" y="690" type="line"/>
      <point x="2321" y="245" type="line"/>
      <point x="2342" y="154"/>
      <point x="2234" y="150"/>
      <point x="2154" y="150" type="curve" smooth="yes"/>
      <point x="2065" y="150"/>
      <point x="1977" y="168"/>
      <point x="1890" y="205" type="curve"/>
      <point x="1926" y="561" type="line"/>
      <point x="1927" y="568"/>
      <point x="1921" y="572"/>
      <point x="1910" y="573" type="curve" smooth="yes"/>
      <point x="1839" y="579" type="line" smooth="yes"/>
      <point x="1830" y="580"/>
      <point x="1822" y="575"/>
      <point x="1821" y="570" type="curve" smooth="yes"/>
      <point x="1787" y="327" type="line" smooth="yes"/>
      <point x="1770" y="205"/>
      <point x="1710" y="156"/>
      <point x="1510" y="156" type="curve" smooth="yes"/>
      <point x="1308" y="156"/>
      <point x="1274" y="171"/>
      <point x="1258" y="283" type="curve" smooth="yes"/>
      <point x="1222" y="540" type="line"/>
      <point x="1221" y="548"/>
      <point x="1210" y="556"/>
      <point x="1199" y="551" type="curve"/>
      <point x="1076" y="463" type="line"/>
      <point x="1191" y="-186" type="line"/>
      <point x="1132" y="-215"/>
      <point x="860" y="-328"/>
      <point x="607" y="-328" type="curve" smooth="yes"/>
      <point x="404" y="-328"/>
      <point x="296" y="-231"/>
      <point x="296" y="-50" type="curve"/>
      <point x="296" y="10"/>
      <point x="306" y="40"/>
      <point x="339" y="237" type="curve" smooth="yes"/>
      <point x="340" y="243"/>
      <point x="334" y="247"/>
      <point x="323" y="249" type="curve" smooth="yes"/>
      <point x="252" y="260" type="line" smooth="yes"/>
      <point x="243" y="261"/>
      <point x="235" y="257"/>
      <point x="234" y="252" type="curve"/>
      <point x="186" y="-7"/>
      <point x="180" y="-31"/>
      <point x="180" y="-111" type="curve" smooth="yes"/>
      <point x="180" y="-368"/>
      <point x="323" y="-510"/>
      <point x="581" y="-510" type="curve" smooth="yes"/>
    </contour>
    <contour>
      <point x="718" y="633" type="move" name="top"/>
    </contour>
    <contour>
      <point x="594" y="-710" type="move" name="bottom"/>
    </contour>
  </outline>
</glyph>
<glyph name="sad-ar" format="1">
  <advance width="2616"/>
  <unicode hex="0635"/>
  <outline>
    <contour>
      <point x="801" y="-519"/>
      <point x="1146" y="-420"/>
      <point x="1259" y="-272" type="curve" smooth="yes"/>
      <point x="1288" y="-234"/>
      <point x="1298" y="-203"/>
      <point x="1298" y="-128" type="curve" smooth="yes"/>
      <point x="1298" y="-81"/>
      <point x="1294" y="-18"/>
      <point x="1286" y="70" type="curve"/>
      <point x="1378" y="13"/>
      <point x="1551" y="-21"/>
      <point x="1746" y="-21" type="curve" smooth="yes"/>
      <point x="2082" y="-21"/>
      <point x="2476" y="55"/>
      <point x="2476" y="324" type="curve"/>
      <point x="2476" y="516"/>
      <point x="2289" y="728"/>
      <point x="2053" y="729" type="curve" smooth="yes"/>
      <point x="1881" y="730"/>
      <point x="1670" y="662"/>
      <point x="1315" y="226" type="curve"/>
      <point x="1251" y="280"/>
      <point x="1256" y="390"/>
      <point x="1236" y="538" type="curve"/>
      <point x="1234" y="553"/>
      <point x="1212" y="556"/>
      <point x="1204" y="548" type="curve"/>
      <point x="1096" y="469" type="line" smooth="yes"/>
      <point x="1090" y="464"/>
      <point x="1090" y="464"/>
      <point x="1091" y="456" type="curve" smooth="yes"/>
      <point x="1181" y="-184" type="line"/>
      <point x="1181" y="-195"/>
      <point x="1176" y="-205"/>
      <point x="1170" y="-207" type="curve"/>
      <point x="1090" y="-245"/>
      <point x="903" y="-337"/>
      <point x="609" y="-337" type="curve" smooth="yes"/>
      <point x="402" y="-337"/>
      <point x="297" y="-245"/>
      <point x="297" y="-63" type="curve"/>
      <point x="297" y="-10"/>
      <point x="307" y="18"/>
      <point x="340" y="227" type="curve" smooth="yes"/>
      <point x="343" y="246"/>
      <point x="238" y="263"/>
      <point x="235" y="241" type="curve"/>
      <point x="188" y="-14"/>
      <point x="180" y="-55"/>
      <point x="180" y="-138" type="curve" smooth="yes"/>
      <point x="180" y="-388"/>
      <point x="318" y="-519"/>
      <point x="582" y="-519" type="curve" smooth="yes"/>
    </contour>
    <contour>
      <point x="1668" y="510"/>
      <point x="1819" y="572"/>
      <point x="1977" y="572" type="curve" smooth="yes"/>
      <point x="2176" y="572"/>
      <point x="2329" y="380"/>
      <point x="2373" y="295" type="curve"/>
      <point x="2378" y="287"/>
      <point x="2375" y="270"/>
      <point x="2366" y="266" type="curve"/>
      <point x="2225" y="181"/>
      <point x="2028" y="134"/>
      <point x="1808" y="134" type="curve" smooth="yes"/>
      <point x="1665" y="134"/>
      <point x="1525" y="153"/>
      <point x="1403" y="188" type="curve"/>
    </contour>
    <contour>
      <point x="717" y="619" type="move" name="top"/>
    </contour>
    <contour>
      <point x="614" y="-715" type="move" name="bottom"/>
    </contour>
  </outline>
</glyph>
<glyph name="tah-ar" format="1">
  <advance width="1751"/>
  <unicode hex="0637"/>
  <outline>
    <contour>
      <point x="444" y="-16"/>
      <point x="526" y="-18"/>
      <point x="612" y="-18" type="curve" smooth="yes"/>
      <point x="1013" y="-18"/>
      <point x="1611" y="77"/>
      <point x="1611" y="403" type="curve" smooth="yes"/>
      <point x="1611" y="598"/>
      <point x="1409" y="794"/>
      <point x="1207" y="795" type="curve" smooth="yes"/>
      <point x="1041" y="796"/>
      <point x="853" y="683"/>
      <point x="653" y="465" type="curve"/>
      <point x="648" y="470" type="line"/>
      <point x="668" y="536"/>
      <point x="676" y="603"/>
      <point x="676" y="721" type="curve"/>
      <point x="656" y="1445" type="line" smooth="yes"/>
      <point x="656" y="1462"/>
      <point x="634" y="1467"/>
      <point x="621" y="1457" type="curve"/>
      <point x="489" y="1356" type="line"/>
      <point x="526" y="781"/>
      <point x="526" y="781"/>
      <point x="538" y="540" type="curve" smooth="yes"/>
      <point x="547" y="354"/>
      <point x="505" y="290"/>
      <point x="392" y="176" type="curve"/>
      <point x="388" y="174"/>
      <point x="386" y="173"/>
      <point x="382" y="173" type="curve" smooth="yes"/>
      <point x="321" y="173"/>
      <point x="261" y="184"/>
      <point x="200" y="191" type="curve" smooth="yes"/>
      <point x="191" y="192"/>
      <point x="179" y="189"/>
      <point x="180" y="174" type="curve"/>
      <point x="227" y="32"/>
      <point x="250" y="-5"/>
      <point x="374" y="-12" type="curve" smooth="yes"/>
    </contour>
    <contour>
      <point x="850" y="531"/>
      <point x="964" y="621"/>
      <point x="1129" y="621" type="curve" smooth="yes"/>
      <point x="1348" y="621"/>
      <point x="1465" y="435"/>
      <point x="1493" y="351" type="curve" smooth="yes"/>
      <point x="1496" y="342"/>
      <point x="1491" y="330"/>
      <point x="1484" y="327" type="curve" smooth="yes"/>
      <point x="1246" y="225"/>
      <point x="945" y="153"/>
      <point x="652" y="161" type="curve" smooth="yes"/>
      <point x="496" y="165" type="line"/>
    </contour>
    <contour>
      <point x="1209" y="991" type="move" name="top"/>
    </contour>
    <contour>
      <point x="806" y="-211" type="move" name="bottom"/>
    </contour>
  </outline>
</glyph>
<glyph name="ain-ar" format="1">
  <advance width="1249"/>
  <unicode hex="0639"/>
  <outline>
    <contour>
      <point x="1051" y="-498"/>
      <point x="910" y="-508"/>
      <point x="780" y="-508" type="curve" smooth="yes"/>
      <point x="489" y="-508"/>
      <point x="345" y="-432"/>
      <point x="345" y="-154" type="curve" smooth="yes"/>
      <point x="345" y="195"/>
      <point x="725" y="423"/>
      <point x="1082" y="502" type="curve" smooth="yes"/>
      <point x="1091" y="504"/>
      <point x="1095" y="507"/>
      <point x="1096" y="516" type="curve"/>
      <point x="1109" y="666" type="line" smooth="yes"/>
      <point x="1110" y="673"/>
      <point x="1106" y="676"/>
      <point x="1097" y="676" type="curve" smooth="yes"/>
      <point x="1042" y="676"/>
      <point x="732" y="538"/>
      <point x="618" y="484" type="curve"/>
      <point x="585" y="467"/>
      <point x="560" y="466"/>
      <point x="526" y="493" type="curve" smooth="yes"/>
      <point x="388" y="600"/>
      <point x="321" y="708"/>
      <point x="305" y="831" type="curve"/>
      <point x="381" y="940"/>
      <point x="472" y="978"/>
      <point x="614" y="978" type="curve" smooth="yes"/>
      <point x="688" y="978"/>
      <point x="767" y="967"/>
      <point x="854" y="934" type="curve" smooth="yes"/>
      <point x="862" y="931"/>
      <point x="877" y="935"/>
      <point x="875" y="942" type="curve"/>
      <point x="842" y="1065" type="line"/>
      <point x="839" y="1075"/>
      <point x="839" y="1075"/>
      <point x="830" y="1080" type="curve" smooth="yes"/>
      <point x="757" y="1121"/>
      <point x="670" y="1137"/>
      <point x="587" y="1137" type="curve" smooth="yes"/>
      <point x="348" y="1137"/>
      <point x="170" y="978"/>
      <point x="180" y="773" type="curve" smooth="yes"/>
      <point x="187" y="623"/>
      <point x="264" y="495"/>
      <point x="440" y="338" type="curve"/>
      <point x="306" y="189"/>
      <point x="226" y="-13"/>
      <point x="226" y="-198" type="curve" smooth="yes"/>
      <point x="226" y="-539"/>
      <point x="385" y="-696"/>
      <point x="729" y="-696" type="curve" smooth="yes"/>
      <point x="802" y="-696"/>
      <point x="879" y="-689"/>
      <point x="955" y="-674" type="curve" smooth="yes"/>
      <point x="1111" y="-643"/>
      <point x="1155" y="-609"/>
      <point x="1206" y="-481" type="curve" smooth="yes"/>
      <point x="1212" y="-467"/>
      <point x="1194" y="-462"/>
      <point x="1179" y="-466" type="curve" smooth="yes"/>
    </contour>
    <contour>
      <point x="586" y="1333" type="move" name="top"/>
    </contour>
    <contour>
      <point x="729" y="-894" type="move" name="bottom"/>
    </contour>
  </outline>
</glyph>
<glyph name="kashida-ar" format="1">
  <advance width="444"/>
  <unicode hex="0640"/>
  <outline>
    <contour>
      <point x="463" y="0" type="line"/>
      <point x="490" y="32"/>
      <point x="502" y="63"/>
      <point x="502" y="96" type="curve" smooth="yes"/>
      <point x="502" y="128"/>
      <point x="490" y="159"/>
      <point x="463" y="191" type="curve"/>
      <point x="-19" y="191" type="line" smooth="yes"/>
      <point x="-83" y="191"/>
      <point x="-113" y="143"/>
      <point x="-113" y="96" type="curve" smooth="yes"/>
      <point x="-113" y="48"/>
      <point x="-83" y="0"/>
      <point x="-19" y="0" type="curve" smooth="yes"/>
    </contour>
  </outline>
</glyph>
<glyph name="qaf-ar" format="1">
  <advance width="1589"/>
  <unicode hex="0642"/>
  <outline>
    <component base="qafDotless-ar"/>
    <component base="twodotshorizontalabove-ar" xOffset="757" yOffset="137"/>
    <contour>
      <point x="630" y="-708" type="move" name="bottom"/>
    </contour>
  </outline>
</glyph>
<glyph name="lam-ar" format="1">
  <advance width="1407"/>
  <unicode hex="0644"/>
  <outline>
    <contour>
      <point x="821" y="-503"/>
      <point x="1260" y="-415"/>
      <point x="1267" y="-150" type="curve"/>
      <point x="1228" y="1455" type="line" smooth="yes"/>
      <point x="1228" y="1466"/>
      <point x="1211" y="1464"/>
      <point x="1207" y="1459" type="curve"/>
      <point x="1071" y="1357" type="line" smooth="yes"/>
      <point x="1064" y="1351"/>
      <point x="1063" y="1349"/>
      <point x="1063" y="1342" type="curve" smooth="yes"/>
      <point x="1147" y="-220" type="line"/>
      <point x="1135" y="-223"/>
      <point x="877" y="-328"/>
      <point x="594" y="-328" type="curve" smooth="yes"/>
      <point x="407" y="-328"/>
      <point x="295" y="-236"/>
      <point x="295" y="-81" type="curve"/>
      <point x="295" y="-35"/>
      <point x="300" y="0"/>
      <point x="378" y="314" type="curve" smooth="yes"/>
      <point x="380" y="322"/>
      <point x="377" y="325"/>
      <point x="365" y="328" type="curve" smooth="yes"/>
      <point x="296" y="343" type="line" smooth="yes"/>
      <point x="286" y="345"/>
      <point x="279" y="342"/>
      <point x="277" y="335" type="curve"/>
      <point x="187" y="-27"/>
      <point x="180" y="-61"/>
      <point x="180" y="-143" type="curve" smooth="yes"/>
      <point x="180" y="-374"/>
      <point x="315" y="-503"/>
      <point x="556" y="-503" type="curve" smooth="yes"/>
    </contour>
    <contour>
      <point x="639" y="585" type="move" name="top"/>
    </contour>
    <contour>
      <point x="579" y="-703" type="move" name="bottom"/>
    </contour>
  </outline>
</glyph>
<glyph name="meem-ar" format="1">
  <advance width="1225"/>
  <unicode hex="0645"/>
  <outline>
    <contour>
      <point x="345" y="-600" type="line" smooth="yes"/>
      <point x="368" y="-591"/>
      <point x="370" y="-587"/>
      <point x="366" y="-553" type="curve" smooth="yes"/>
      <point x="291" y="27" type="line" smooth="yes"/>
      <point x="288" y="49"/>
      <point x="297" y="66"/>
      <point x="315" y="73" type="curve"/>
      <point x="450" y="118"/>
      <point x="620" y="142"/>
      <point x="805" y="142" type="curve" smooth="yes"/>
      <point x="871" y="142"/>
      <point x="937" y="139"/>
      <point x="1009" y="132" type="curve"/>
      <point x="1029" y="131"/>
      <point x="1039" y="142"/>
      <point x="1046" y="157" type="curve" smooth="yes"/>
      <point x="1085" y="241"/>
      <point x="1085" y="274"/>
      <point x="1085" y="356" type="curve"/>
      <point x="1082" y="547"/>
      <point x="806" y="836"/>
      <point x="627" y="836" type="curve" smooth="yes"/>
      <point x="404" y="836"/>
      <point x="340" y="599"/>
      <point x="340" y="431" type="curve" smooth="yes"/>
      <point x="340" y="229" type="line"/>
      <point x="211" y="159"/>
      <point x="180" y="89"/>
      <point x="180" y="-92" type="curve"/>
      <point x="216" y="-649" type="line"/>
    </contour>
    <contour>
      <point x="598" y="300"/>
      <point x="533" y="274"/>
      <point x="495" y="274" type="curve" smooth="yes"/>
      <point x="481" y="274"/>
      <point x="471" y="285"/>
      <point x="466" y="305" type="curve"/>
      <point x="433" y="430" type="line"/>
      <point x="433" y="488"/>
      <point x="508" y="658"/>
      <point x="607" y="658" type="curve" smooth="yes"/>
      <point x="725" y="658"/>
      <point x="874" y="525"/>
      <point x="973" y="331" type="curve"/>
      <point x="986" y="303"/>
      <point x="981" y="294"/>
      <point x="967" y="294" type="curve"/>
      <point x="904" y="298"/>
      <point x="846" y="300"/>
      <point x="791" y="300" type="curve" smooth="yes"/>
    </contour>
    <contour>
      <point x="629" y="1027" type="move" name="top"/>
    </contour>
    <contour>
      <point x="292" y="-825" type="move" name="bottom"/>
    </contour>
  </outline>
</glyph>
<glyph name="heh-ar" format="1">
  <advance width="1020"/>
  <unicode hex="0647"/>
  <outline>
    <contour>
      <point x="180" y="82"/>
      <point x="284" y="-38"/>
      <point x="443" y="-38" type="curve" smooth="yes"/>
      <point x="655" y="-38"/>
      <point x="880" y="191"/>
      <point x="880" y="405" type="curve" smooth="yes"/>
      <point x="880" y="530"/>
      <point x="721" y="691"/>
      <point x="437" y="854" type="curve"/>
      <point x="424" y="861"/>
      <point x="405" y="858"/>
      <point x="399" y="848" type="curve" smooth="yes"/>
      <point x="272" y="637"/>
      <point x="180" y="464"/>
      <point x="180" y="267" type="curve" smooth="yes"/>
    </contour>
    <contour>
      <point x="276" y="440"/>
      <point x="313" y="540"/>
      <point x="386" y="650" type="curve"/>
      <point x="395" y="667"/>
      <point x="405" y="668"/>
      <point x="422" y="659" type="curve" smooth="yes"/>
      <point x="548" y="587"/>
      <point x="781" y="410"/>
      <point x="781" y="375" type="curve"/>
      <point x="761" y="277"/>
      <point x="594" y="123"/>
      <point x="469" y="123" type="curve" smooth="yes"/>
      <point x="358" y="123"/>
      <point x="276" y="217"/>
      <point x="276" y="345" type="curve" smooth="yes"/>
    </contour>
    <contour>
      <point x="419" y="1057" type="move" name="top"/>
    </contour>
    <contour>
      <point x="455" y="-237" type="move" name="bottom"/>
    </contour>
  </outline>
</glyph>
<glyph name="waw-ar" format="1">
  <advance width="1023"/>
  <unicode hex="0648"/>
  <outline>
    <contour>
      <point x="693" y="-472"/>
      <point x="883" y="-137"/>
      <point x="883" y="227" type="curve" smooth="yes"/>
      <point x="883" y="511"/>
      <point x="764" y="818"/>
      <point x="546" y="818" type="curve" smooth="yes"/>
      <point x="322" y="818"/>
      <point x="182" y="515"/>
      <point x="182" y="289" type="curve" smooth="yes"/>
      <point x="182" y="89"/>
      <point x="278" y="-10"/>
      <point x="473" y="-10" type="curve" smooth="yes"/>
      <point x="551" y="-10"/>
      <point x="646" y="7"/>
      <point x="758" y="41" type="curve"/>
      <point x="643" y="-209"/>
      <point x="476" y="-325"/>
      <point x="231" y="-325" type="curve" smooth="yes"/>
      <point x="164" y="-325"/>
      <point x="92" y="-317"/>
      <point x="10" y="-299" type="curve" smooth="yes"/>
      <point x="1" y="-297"/>
      <point x="-9" y="-302"/>
      <point x="-11" y="-310" type="curve"/>
      <point x="-33" y="-385" type="line" smooth="yes"/>
      <point x="-35" y="-390"/>
      <point x="-31" y="-394"/>
      <point x="-21" y="-397" type="curve"/>
      <point x="135" y="-448"/>
      <point x="258" y="-472"/>
      <point x="358" y="-472" type="curve" smooth="yes"/>
    </contour>
    <contour>
      <point x="667" y="183"/>
      <point x="588" y="173"/>
      <point x="515" y="173" type="curve" smooth="yes"/>
      <point x="419" y="173"/>
      <point x="345" y="190"/>
      <point x="289" y="227" type="curve"/>
      <point x="283" y="232"/>
      <point x="279" y="242"/>
      <point x="279" y="253" type="curve"/>
      <point x="271" y="431"/>
      <point x="392" y="635"/>
      <point x="508" y="635" type="curve" smooth="yes"/>
      <point x="627" y="635"/>
      <point x="756" y="408"/>
      <point x="755" y="203" type="curve"/>
    </contour>
    <contour>
      <point x="546" y="1017" type="move" name="top"/>
    </contour>
    <contour>
      <point x="361" y="-671" type="move" name="bottom"/>
    </contour>
  </outline>
</glyph>
<glyph name="alefMaksura-ar" format="1">
  <advance width="1587"/>
  <unicode hex="0649"/>
  <outline>
    <contour>
      <point x="180" y="-426"/>
      <point x="335" y="-567"/>
      <point x="639" y="-567" type="curve" smooth="yes"/>
      <point x="942" y="-567"/>
      <point x="1447" y="-361"/>
      <point x="1447" y="-96" type="curve" smooth="yes"/>
      <point x="1447" y="-20"/>
      <point x="1407" y="5"/>
      <point x="1273" y="17" type="curve" smooth="yes"/>
      <point x="1047" y="37" type="line" smooth="yes"/>
      <point x="926" y="48"/>
      <point x="865" y="85"/>
      <point x="865" y="141" type="curve" smooth="yes"/>
      <point x="865" y="251"/>
      <point x="1113" y="497"/>
      <point x="1223" y="497" type="curve" smooth="yes"/>
      <point x="1252" y="497"/>
      <point x="1280" y="489"/>
      <point x="1312" y="470" type="curve"/>
      <point x="1324" y="464"/>
      <point x="1332" y="465"/>
      <point x="1337" y="477" type="curve"/>
      <point x="1382" y="603" type="line"/>
      <point x="1356" y="639"/>
      <point x="1301" y="663"/>
      <point x="1238" y="663" type="curve" smooth="yes"/>
      <point x="1021" y="663"/>
      <point x="751" y="265"/>
      <point x="751" y="41" type="curve" smooth="yes"/>
      <point x="751" y="-61"/>
      <point x="823" y="-112"/>
      <point x="999" y="-129" type="curve" smooth="yes"/>
      <point x="1349" y="-163" type="line"/>
      <point x="1353" y="-165"/>
      <point x="1353" y="-168"/>
      <point x="1350" y="-172" type="curve"/>
      <point x="1148" y="-307"/>
      <point x="892" y="-388"/>
      <point x="667" y="-388" type="curve" smooth="yes"/>
      <point x="424" y="-388"/>
      <point x="302" y="-281"/>
      <point x="302" y="-69" type="curve" smooth="yes"/>
      <point x="302" y="25"/>
      <point x="314" y="71"/>
      <point x="370" y="289" type="curve"/>
      <point x="372" y="295"/>
      <point x="367" y="299"/>
      <point x="357" y="302" type="curve" smooth="yes"/>
      <point x="311" y="316"/>
      <point x="274" y="332"/>
      <point x="266" y="307" type="curve" smooth="yes"/>
      <point x="188" y="46"/>
      <point x="180" y="-24"/>
      <point x="180" y="-148" type="curve" smooth="yes"/>
    </contour>
    <contour>
      <point x="532" y="565" type="move" name="top"/>
    </contour>
    <contour>
      <point x="632" y="-765" type="move" name="bottom"/>
    </contour>
  </outline>
</glyph>
<glyph name="fathatan-ar" format="1">
  <advance width="0"/>
  <unicode hex="064B"/>
  <outline>
    <component base="fatha-ar" yOffset="16"/>
    <component base="fatha-ar" yOffset="-239"/>
    <contour>
      <point x="258" y="1374" type="move" name="top"/>
    </contour>
    <contour>
      <point x="258" y="717" type="move" name="_top"/>
    </contour>
  </outline>
</glyph>
<glyph name="dammatan-ar" format="1">
  <advance width="0"/>
  <unicode hex="064C"/>
  <outline>
    <contour>
      <point x="375" y="835"/>
      <point x="421" y="912" type="curve"/>
      <point x="517" y="923" type="line"/>
      <point x="514" y="867"/>
      <point x="525" y="1027"/>
      <point x="522" y="991" type="curve"/>
      <point x="430" y="976" type="line"/>
      <point x="443" y="1103"/>
      <point x="433" y="1217"/>
      <point x="322" y="1217" type="curve" smooth="yes"/>
      <point x="247" y="1217"/>
      <point x="184" y="1103"/>
      <point x="184" y="1014" type="curve" smooth="yes"/>
      <point x="184" y="934"/>
      <point x="247" y="891"/>
      <point x="347" y="904" type="curve"/>
      <point x="349" y="895" type="line"/>
      <point x="285" y="827"/>
      <point x="210" y="752"/>
      <point x="172" y="718" type="curve"/>
      <point x="180" y="860"/>
      <point x="160" y="920"/>
      <point x="109" y="920" type="curve" smooth="yes"/>
      <point x="81" y="920"/>
      <point x="42" y="901"/>
      <point x="0" y="885" type="curve"/>
      <point x="3" y="805" type="line"/>
      <point x="14" y="805"/>
      <point x="74" y="840"/>
      <point x="93" y="840" type="curve" smooth="yes"/>
      <point x="115" y="840"/>
      <point x="126" y="817"/>
      <point x="125" y="770" type="curve" smooth="yes"/>
      <point x="124" y="701" type="line"/>
      <point x="125" y="700"/>
      <point x="125" y="700"/>
      <point x="200" y="653" type="curve"/>
      <point x="333" y="794"/>
    </contour>
    <contour>
      <point x="283" y="961"/>
      <point x="228" y="980"/>
      <point x="228" y="1019" type="curve" smooth="yes"/>
      <point x="228" y="1086"/>
      <point x="264" y="1145"/>
      <point x="307" y="1145" type="curve" smooth="yes"/>
      <point x="353" y="1145"/>
      <point x="385" y="1066"/>
      <point x="382" y="963" type="curve"/>
    </contour>
    <contour>
      <point x="262" y="1417" type="move" name="top"/>
    </contour>
    <contour>
      <point x="263" y="660" type="move" name="_top"/>
    </contour>
  </outline>
</glyph>
<glyph name="kasratan-ar" format="1">
  <advance width="0"/>
  <unicode hex="064D"/>
  <outline>
    <component base="fathatan-ar" yOffset="-1460"/>
    <contour>
      <point x="258" y="-245" type="move" name="_bottom"/>
    </contour>
    <contour>
      <point x="258" y="-930" type="move" name="bottom"/>
    </contour>
  </outline>
</glyph>
<glyph name="fatha-ar" format="1">
  <advance width="0"/>
  <unicode hex="064E"/>
  <outline>
    <contour>
      <point x="499" y="1099" type="line"/>
      <point x="499" y="1192" type="line"/>
      <point x="1" y="1020" type="line"/>
      <point x="1" y="926" type="line"/>
      <point x="1" y="927"/>
      <point x="1" y="928"/>
      <point x="0" y="928" type="curve"/>
    </contour>
    <contour>
      <point x="250" y="1300" type="move" name="top"/>
    </contour>
    <contour>
      <point x="250" y="936" type="move" name="_top"/>
    </contour>
  </outline>
</glyph>
<glyph name="damma-ar" format="1">
  <advance width="0"/>
  <unicode hex="064F"/>
  <outline>
    <contour>
      <point x="70" y="665" type="line"/>
      <point x="171" y="772"/>
      <point x="209" y="812"/>
      <point x="250" y="880" type="curve"/>
      <point x="346" y="891" type="line"/>
      <point x="343" y="835"/>
      <point x="354" y="995"/>
      <point x="351" y="959" type="curve"/>
      <point x="269" y="944" type="line"/>
      <point x="282" y="1071"/>
      <point x="222" y="1185"/>
      <point x="151" y="1185" type="curve" smooth="yes"/>
      <point x="75" y="1185"/>
      <point x="13" y="1071"/>
      <point x="13" y="982" type="curve" smooth="yes"/>
      <point x="13" y="902"/>
      <point x="75" y="860"/>
      <point x="175" y="872" type="curve"/>
      <point x="108" y="789"/>
      <point x="81" y="758"/>
      <point x="0" y="686" type="curve"/>
    </contour>
    <contour>
      <point x="112" y="929"/>
      <point x="57" y="948"/>
      <point x="57" y="987" type="curve" smooth="yes"/>
      <point x="57" y="1054"/>
      <point x="93" y="1113"/>
      <point x="136" y="1113" type="curve" smooth="yes"/>
      <point x="182" y="1113"/>
      <point x="214" y="1034"/>
      <point x="211" y="931" type="curve"/>
    </contour>
    <contour>
      <point x="176" y="1388" type="move" name="top"/>
    </contour>
    <contour>
      <point x="172" y="669" type="move" name="_top"/>
    </contour>
  </outline>
</glyph>
<glyph name="shadda-ar" format="1">
  <advance width="0"/>
  <unicode hex="0651"/>
  <outline>
    <contour>
      <point x="0" y="878"/>
      <point x="47" y="838"/>
      <point x="153" y="838" type="curve" smooth="yes"/>
      <point x="211" y="838"/>
      <point x="272" y="855"/>
      <point x="307" y="880" type="curve"/>
      <point x="334" y="856"/>
      <point x="379" y="842"/>
      <point x="429" y="842" type="curve" smooth="yes"/>
      <point x="477" y="842"/>
      <point x="532" y="855"/>
      <point x="582" y="880" type="curve" smooth="yes"/>
      <point x="592" y="885"/>
      <point x="594" y="888"/>
      <point x="596" y="895" type="curve" smooth="yes"/>
      <point x="605" y="926"/>
      <point x="612" y="958"/>
      <point x="612" y="998" type="curve" smooth="yes"/>
      <point x="612" y="1057"/>
      <point x="598" y="1132"/>
      <point x="577" y="1236" type="curve" smooth="yes"/>
      <point x="576" y="1241"/>
      <point x="572" y="1244"/>
      <point x="565" y="1244" type="curve" smooth="yes"/>
      <point x="561" y="1244"/>
      <point x="557" y="1243"/>
      <point x="554" y="1241" type="curve" smooth="yes"/>
      <point x="513" y="1212" type="line" smooth="yes"/>
      <point x="507" y="1207"/>
      <point x="505" y="1205"/>
      <point x="504" y="1203" type="curve"/>
      <point x="563" y="974" type="line"/>
      <point x="522" y="960"/>
      <point x="481" y="945"/>
      <point x="435" y="945" type="curve" smooth="yes"/>
      <point x="405" y="945"/>
      <point x="376" y="951"/>
      <point x="341" y="964" type="curve"/>
      <point x="334" y="1151" type="line"/>
      <point x="334" y="1158"/>
      <point x="327" y="1163"/>
      <point x="317" y="1163" type="curve" smooth="yes"/>
      <point x="295" y="1163" type="line" smooth="yes"/>
      <point x="286" y="1163"/>
      <point x="278" y="1158"/>
      <point x="278" y="1152" type="curve" smooth="yes"/>
      <point x="273" y="962" type="line"/>
      <point x="236" y="949"/>
      <point x="201" y="940"/>
      <point x="162" y="940" type="curve" smooth="yes"/>
      <point x="127" y="940"/>
      <point x="95" y="946"/>
      <point x="60" y="958" type="curve"/>
      <point x="80" y="1177" type="line" smooth="yes"/>
      <point x="81" y="1184"/>
      <point x="75" y="1189"/>
      <point x="63" y="1191" type="curve"/>
      <point x="42" y="1193" type="line" smooth="yes"/>
      <point x="32" y="1194"/>
      <point x="23" y="1189"/>
      <point x="22" y="1182" type="curve" smooth="yes"/>
      <point x="1" y="1038"/>
      <point x="0" y="993"/>
      <point x="0" y="968" type="curve" smooth="yes"/>
    </contour>
    <contour>
      <point x="306" y="1390" type="move" name="top"/>
    </contour>
    <contour>
      <point x="306" y="835" type="move" name="_top"/>
    </contour>
  </outline>
</glyph>
<glyph name="sukun-ar" format="1">
  <advance width="0"/>
  <unicode hex="0652"/>
  <outline>
    <contour>
      <point x="254" y="721"/>
      <point x="364" y="852"/>
      <point x="364" y="997" type="curve"/>
      <point x="364" y="1120"/>
      <point x="286" y="1216"/>
      <point x="187" y="1216" type="curve" smooth="yes"/>
      <point x="79" y="1216"/>
      <point x="0" y="1049"/>
      <point x="0" y="912" type="curve" smooth="yes"/>
      <point x="0" y="797"/>
      <point x="47" y="733"/>
      <point x="133" y="728" type="curve" smooth="yes"/>
    </contour>
    <contour>
      <point x="98" y="842"/>
      <point x="55" y="887"/>
      <point x="55" y="947" type="curve" smooth="yes"/>
      <point x="55" y="999"/>
      <point x="108" y="1107"/>
      <point x="167" y="1107" type="curve" smooth="yes"/>
      <point x="231" y="1107"/>
      <point x="304" y="994"/>
      <point x="304" y="955" type="curve" smooth="yes"/>
      <point x="304" y="905"/>
      <point x="220" y="842"/>
      <point x="156" y="842" type="curve" smooth="yes"/>
    </contour>
    <contour>
      <point x="182" y="1420" type="move" name="top"/>
    </contour>
    <contour>
      <point x="182" y="732" type="move" name="_top"/>
    </contour>
  </outline>
</glyph>
<glyph name="madda-ar" format="1">
  <advance width="0"/>
  <unicode hex="0653"/>
  <outline>
    <contour>
      <point x="130" y="1066" type="line"/>
      <point x="203" y="1043"/>
      <point x="297" y="1029"/>
      <point x="391" y="1029" type="curve" smooth="yes"/>
      <point x="456" y="1029"/>
      <point x="619" y="1053"/>
      <point x="664" y="1083" type="curve"/>
      <point x="688" y="1209" type="line"/>
      <point x="613" y="1186"/>
      <point x="592" y="1171"/>
      <point x="450" y="1171" type="curve" smooth="yes"/>
      <point x="335" y="1171"/>
      <point x="187" y="1212"/>
      <point x="156" y="1212" type="curve" smooth="yes"/>
      <point x="101" y="1212"/>
      <point x="57" y="1167"/>
      <point x="0" y="1051" type="curve"/>
      <point x="87" y="966" type="line"/>
    </contour>
    <contour>
      <point x="348" y="1415" type="move" name="top"/>
    </contour>
    <contour>
      <point x="348" y="1009" type="move" name="_top"/>
    </contour>
  </outline>
</glyph>
<glyph name="hamzaabove-ar" format="1">
  <advance width="0"/>
  <unicode hex="0654"/>
  <outline>
    <component base="hamzacenter-ar" yOffset="631"/>
    <contour>
      <point x="282" y="1538" type="move" name="top"/>
    </contour>
    <contour>
      <point x="264" y="671" type="move" name="_top"/>
    </contour>
  </outline>
</glyph>
<glyph name="noonghunnaabove-ar" format="1">
  <advance width="0"/>
  <unicode hex="0658"/>
  <outline>
    <contour>
      <point x="242" y="902"/>
      <point x="402" y="937"/>
      <point x="405" y="1030" type="curve"/>
      <point x="405" y="1078"/>
      <point x="390" y="1197"/>
      <point x="383" y="1247" type="curve"/>
      <point x="308" y="1209" type="line"/>
      <point x="342" y="1017" type="line"/>
      <point x="303" y="998"/>
      <point x="232" y="977"/>
      <point x="158" y="977" type="curve" smooth="yes"/>
      <point x="94" y="977"/>
      <point x="62" y="1007"/>
      <point x="62" y="1067" type="curve"/>
      <point x="62" y="1099"/>
      <point x="73" y="1138"/>
      <point x="73" y="1150" type="curve" smooth="yes"/>
      <point x="73" y="1163"/>
      <point x="63" y="1171"/>
      <point x="45" y="1171" type="curve" smooth="yes"/>
      <point x="32" y="1171"/>
      <point x="19" y="1162"/>
      <point x="17" y="1153" type="curve" smooth="yes"/>
      <point x="2" y="1085"/>
      <point x="0" y="1066"/>
      <point x="0" y="1043" type="curve" smooth="yes"/>
      <point x="0" y="955"/>
      <point x="56" y="902"/>
      <point x="149" y="902" type="curve" smooth="yes"/>
    </contour>
    <contour>
      <point x="183" y="1433" type="move" name="top"/>
    </contour>
    <contour>
      <point x="193" y="905" type="move" name="_top"/>
    </contour>
  </outline>
</glyph>
<glyph name="vabove-ar" format="1">
  <advance width="0"/>
  <unicode hex="065A"/>
  <outline>
    <contour>
      <point x="277" y="811" type="curve" smooth="yes"/>
      <point x="442" y="1216" type="line" smooth="yes"/>
      <point x="444" y="1220"/>
      <point x="444" y="1222"/>
      <point x="444" y="1224" type="curve" smooth="yes"/>
      <point x="444" y="1228"/>
      <point x="442" y="1230"/>
      <point x="435" y="1231" type="curve" smooth="yes"/>
      <point x="379" y="1237" type="line"/>
      <point x="371" y="1237"/>
      <point x="367" y="1235"/>
      <point x="365" y="1231" type="curve" smooth="yes"/>
      <point x="258" y="961" type="line" smooth="yes"/>
      <point x="249" y="939"/>
      <point x="232" y="939"/>
      <point x="222" y="961" type="curve" smooth="yes"/>
      <point x="117" y="1194" type="line" smooth="yes"/>
      <point x="102" y="1226"/>
      <point x="99" y="1230"/>
      <point x="82" y="1224" type="curve" smooth="yes"/>
      <point x="10" y="1198" type="line" smooth="yes"/>
      <point x="2" y="1195"/>
      <point x="-2" y="1186"/>
      <point x="2" y="1178" type="curve" smooth="yes"/>
      <point x="184" y="805" type="line" smooth="yes"/>
      <point x="190" y="792"/>
      <point x="271" y="797"/>
    </contour>
    <contour>
      <point x="219" y="1446" type="move" name="top"/>
    </contour>
    <contour>
      <point x="229" y="801" type="move" name="_top"/>
    </contour>
  </outline>
</glyph>
<glyph name="vinvertedabove-ar" format="1">
  <advance width="0"/>
  <unicode hex="065B"/>
  <outline>
    <contour>
      <point x="167" y="1191" type="line" smooth="yes"/>
      <point x="3" y="786" type="line" smooth="yes"/>
      <point x="1" y="782"/>
      <point x="0" y="780"/>
      <point x="0" y="778" type="curve" smooth="yes"/>
      <point x="0" y="774"/>
      <point x="2" y="772"/>
      <point x="9" y="771" type="curve" smooth="yes"/>
      <point x="65" y="765" type="line"/>
      <point x="73" y="765"/>
      <point x="77" y="767"/>
      <point x="79" y="771" type="curve" smooth="yes"/>
      <point x="187" y="1041" type="line" smooth="yes"/>
      <point x="196" y="1063"/>
      <point x="212" y="1063"/>
      <point x="222" y="1041" type="curve" smooth="yes"/>
      <point x="327" y="808" type="line" smooth="yes"/>
      <point x="342" y="776"/>
      <point x="345" y="772"/>
      <point x="362" y="778" type="curve" smooth="yes"/>
      <point x="434" y="804" type="line" smooth="yes"/>
      <point x="442" y="807"/>
      <point x="446" y="816"/>
      <point x="442" y="824" type="curve" smooth="yes"/>
      <point x="260" y="1197" type="line"/>
    </contour>
    <contour>
      <point x="216" y="1398" type="move" name="top"/>
    </contour>
    <contour>
      <point x="232" y="757" type="move" name="_top"/>
    </contour>
  </outline>
</glyph>
<glyph name="zero-ar" format="1">
  <advance width="819"/>
  <unicode hex="0660"/>
  <outline>
    <contour>
      <point x="358" y="187"/>
      <point x="386" y="176"/>
      <point x="413" y="176" type="curve" smooth="yes"/>
      <point x="440" y="176"/>
      <point x="468" y="188"/>
      <point x="484" y="205" type="curve" smooth="yes"/>
      <point x="671" y="395" type="line" smooth="yes"/>
      <point x="690" y="415"/>
      <point x="699" y="436"/>
      <point x="699" y="461" type="curve"/>
      <point x="699" y="487"/>
      <point x="689" y="509"/>
      <point x="669" y="529" type="curve" smooth="yes"/>
      <point x="484" y="713" type="line" smooth="yes"/>
      <point x="465" y="732"/>
      <point x="439" y="743"/>
      <point x="413" y="743" type="curve" smooth="yes"/>
      <point x="386" y="743"/>
      <point x="359" y="732"/>
      <point x="341" y="714" type="curve" smooth="yes"/>
      <point x="152" y="530" type="line" smooth="yes"/>
      <point x="131" y="510"/>
      <point x="120" y="487"/>
      <point x="120" y="462" type="curve" smooth="yes"/>
      <point x="120" y="437"/>
      <point x="131" y="414"/>
      <point x="151" y="394" type="curve" smooth="yes"/>
      <point x="340" y="205" type="line" smooth="yes"/>
    </contour>
    <contour>
      <point x="241" y="460" type="line"/>
      <point x="411" y="626" type="line"/>
      <point x="577" y="460" type="line"/>
      <point x="411" y="291" type="line"/>
    </contour>
  </outline>
</glyph>
<glyph name="one-ar" format="1">
  <advance width="570"/>
  <unicode hex="0661"/>
  <outline>
    <contour>
      <point x="430" y="-14" type="line"/>
      <point x="448" y="-9"/>
      <point x="450" y="-7"/>
      <point x="450" y="0" type="curve" smooth="yes"/>
      <point x="450" y="548"/>
      <point x="429" y="867"/>
      <point x="266" y="1193" type="curve" smooth="yes"/>
      <point x="264" y="1197"/>
      <point x="258" y="1201"/>
      <point x="253" y="1201" type="curve" smooth="yes"/>
      <point x="248" y="1201"/>
      <point x="244" y="1199"/>
      <point x="241" y="1195" type="curve" smooth="yes"/>
      <point x="120" y="1028" type="line"/>
      <point x="292" y="747"/>
      <point x="343" y="486"/>
      <point x="343" y="-22" type="curve" smooth="yes"/>
      <point x="343" y="-29"/>
      <point x="343" y="-35"/>
      <point x="355" y="-32" type="curve"/>
    </contour>
  </outline>
</glyph>
<glyph name="two-ar" format="1">
  <advance width="965"/>
  <unicode hex="0662"/>
  <outline>
    <contour>
      <point x="442" y="0" type="line"/>
      <point x="444" y="129" type="line"/>
      <point x="444" y="343"/>
      <point x="453" y="558"/>
      <point x="396" y="758" type="curve" smooth="yes"/>
      <point x="392" y="772"/>
      <point x="400" y="784"/>
      <point x="412" y="781" type="curve" smooth="yes"/>
      <point x="443" y="773"/>
      <point x="477" y="771"/>
      <point x="508" y="771" type="curve" smooth="yes"/>
      <point x="716" y="771"/>
      <point x="845" y="911"/>
      <point x="845" y="1200" type="curve" smooth="yes"/>
      <point x="845" y="1205"/>
      <point x="841" y="1208"/>
      <point x="827" y="1209" type="curve"/>
      <point x="752" y="1223" type="line" smooth="yes"/>
      <point x="744" y="1225"/>
      <point x="736" y="1219"/>
      <point x="735" y="1209" type="curve" smooth="yes"/>
      <point x="719" y="1053"/>
      <point x="642" y="969"/>
      <point x="512" y="969" type="curve" smooth="yes"/>
      <point x="480" y="969"/>
      <point x="400" y="978"/>
      <point x="382" y="996" type="curve" smooth="yes"/>
      <point x="344" y="1034"/>
      <point x="309" y="1119"/>
      <point x="258" y="1196" type="curve" smooth="yes"/>
      <point x="256" y="1199"/>
      <point x="250" y="1202"/>
      <point x="245" y="1202" type="curve" smooth="yes"/>
      <point x="241" y="1202"/>
      <point x="236" y="1199"/>
      <point x="233" y="1196" type="curve"/>
      <point x="120" y="1026" type="line"/>
      <point x="340" y="657"/>
      <point x="335" y="242"/>
      <point x="335" y="-21" type="curve" smooth="yes"/>
      <point x="335" y="-28"/>
      <point x="338" y="-31"/>
      <point x="347" y="-31" type="curve"/>
    </contour>
  </outline>
</glyph>
<glyph name="three-ar" format="1">
  <advance width="1220"/>
  <unicode hex="0663"/>
  <outline>
    <contour>
      <point x="346" y="-32" type="curve"/>
      <point x="442" y="0" type="line"/>
      <point x="442" y="325"/>
      <point x="451" y="443"/>
      <point x="391" y="783" type="curve"/>
      <point x="429" y="776"/>
      <point x="460" y="773"/>
      <point x="488" y="773" type="curve" smooth="yes"/>
      <point x="577" y="773"/>
      <point x="651" y="805"/>
      <point x="692" y="860" type="curve"/>
      <point x="745" y="824"/>
      <point x="802" y="805"/>
      <point x="856" y="805" type="curve" smooth="yes"/>
      <point x="999" y="805"/>
      <point x="1104" y="928"/>
      <point x="1100" y="1095" type="curve" smooth="yes"/>
      <point x="1097" y="1237" type="line" smooth="yes"/>
      <point x="1097" y="1243"/>
      <point x="1093" y="1247"/>
      <point x="1081" y="1248" type="curve" smooth="yes"/>
      <point x="1022" y="1255" type="line"/>
      <point x="1011" y="1256"/>
      <point x="1003" y="1251"/>
      <point x="1003" y="1245" type="curve" smooth="yes"/>
      <point x="1003" y="1054"/>
      <point x="960" y="977"/>
      <point x="851" y="977" type="curve" smooth="yes"/>
      <point x="819" y="977"/>
      <point x="781" y="983"/>
      <point x="735" y="996" type="curve"/>
      <point x="739" y="1236" type="line"/>
      <point x="739" y="1241"/>
      <point x="731" y="1246"/>
      <point x="721" y="1247" type="curve" smooth="yes"/>
      <point x="663" y="1250" type="line" smooth="yes"/>
      <point x="653" y="1251"/>
      <point x="646" y="1245"/>
      <point x="646" y="1237" type="curve" smooth="yes"/>
      <point x="646" y="1061"/>
      <point x="625" y="964"/>
      <point x="496" y="960" type="curve" smooth="yes"/>
      <point x="350" y="955"/>
      <point x="309" y="1042"/>
      <point x="258" y="1195" type="curve" smooth="yes"/>
      <point x="257" y="1198"/>
      <point x="252" y="1201"/>
      <point x="246" y="1201" type="curve" smooth="yes"/>
      <point x="241" y="1201"/>
      <point x="236" y="1198"/>
      <point x="233" y="1195" type="curve" smooth="yes"/>
      <point x="120" y="1045" type="line"/>
      <point x="278" y="766"/>
      <point x="335" y="471"/>
      <point x="335" y="-22" type="curve" smooth="yes"/>
      <point x="335" y="-29"/>
      <point x="338" y="-32"/>
    </contour>
  </outline>
</glyph>
<glyph name="four-ar" format="1">
  <advance width="969"/>
  <unicode hex="0664"/>
  <outline>
    <contour>
      <point x="797" y="-4"/>
      <point x="802" y="0"/>
      <point x="804" y="6" type="curve" smooth="yes"/>
      <point x="849" y="148" type="line"/>
      <point x="848" y="152"/>
      <point x="841" y="152"/>
      <point x="831" y="151" type="curve"/>
      <point x="732" y="133"/>
      <point x="630" y="124"/>
      <point x="535" y="124" type="curve" smooth="yes"/>
      <point x="349" y="124"/>
      <point x="222" y="166"/>
      <point x="222" y="230" type="curve" smooth="yes"/>
      <point x="222" y="291"/>
      <point x="404" y="439"/>
      <point x="609" y="551" type="curve" smooth="yes"/>
      <point x="620" y="557"/>
      <point x="621" y="560"/>
      <point x="620" y="567" type="curve" smooth="yes"/>
      <point x="590" y="711" type="line" smooth="yes"/>
      <point x="589" y="716"/>
      <point x="582" y="720"/>
      <point x="571" y="721" type="curve" smooth="yes"/>
      <point x="481" y="729"/>
      <point x="345" y="757"/>
      <point x="254" y="829" type="curve"/>
      <point x="336" y="922"/>
      <point x="467" y="1006"/>
      <point x="608" y="1089" type="curve"/>
      <point x="621" y="1095"/>
      <point x="622" y="1097"/>
      <point x="622" y="1104" type="curve" smooth="yes"/>
      <point x="624" y="1232" type="line"/>
      <point x="624" y="1240"/>
      <point x="619" y="1244"/>
      <point x="604" y="1239" type="curve" smooth="yes"/>
      <point x="318" y="1144"/>
      <point x="157" y="941"/>
      <point x="157" y="745" type="curve" smooth="yes"/>
      <point x="157" y="673"/>
      <point x="242" y="620"/>
      <point x="415" y="587" type="curve"/>
      <point x="416" y="578" type="line"/>
      <point x="273" y="480"/>
      <point x="120" y="310"/>
      <point x="120" y="148" type="curve" smooth="yes"/>
      <point x="120" y="27"/>
      <point x="237" y="-36"/>
      <point x="464" y="-36" type="curve" smooth="yes"/>
      <point x="585" y="-36"/>
      <point x="708" y="-18"/>
      <point x="787" y="-6" type="curve"/>
    </contour>
  </outline>
</glyph>
<glyph name="five-ar" format="1">
  <advance width="914"/>
  <unicode hex="0665"/>
  <outline>
    <contour>
      <point x="627" y="131"/>
      <point x="794" y="329"/>
      <point x="794" y="629" type="curve" smooth="yes"/>
      <point x="794" y="840"/>
      <point x="594" y="1044"/>
      <point x="438" y="1044" type="curve" smooth="yes"/>
      <point x="239" y="1044"/>
      <point x="120" y="670"/>
      <point x="120" y="456" type="curve" smooth="yes"/>
      <point x="120" y="231"/>
      <point x="198" y="131"/>
      <point x="373" y="131" type="curve" smooth="yes"/>
    </contour>
    <contour>
      <point x="287" y="320"/>
      <point x="212" y="387"/>
      <point x="212" y="505" type="curve" smooth="yes"/>
      <point x="212" y="586"/>
      <point x="241" y="839"/>
      <point x="389" y="839" type="curve" smooth="yes"/>
      <point x="504" y="839"/>
      <point x="700" y="682"/>
      <point x="700" y="527" type="curve" smooth="yes"/>
      <point x="700" y="437"/>
      <point x="540" y="320"/>
      <point x="418" y="320" type="curve" smooth="yes"/>
    </contour>
  </outline>
</glyph>
<glyph name="six-ar" format="1">
  <advance width="1027"/>
  <unicode hex="0666"/>
  <outline>
    <contour>
      <point x="120" y="1036"/>
      <point x="124" y="1031"/>
      <point x="135" y="1027" type="curve" smooth="yes"/>
      <point x="209" y="1000"/>
      <point x="320" y="999"/>
      <point x="427" y="999" type="curve" smooth="yes"/>
      <point x="522" y="999"/>
      <point x="618" y="1006"/>
      <point x="686" y="1014" type="curve"/>
      <point x="667" y="853"/>
      <point x="654" y="707"/>
      <point x="654" y="569" type="curve" smooth="yes"/>
      <point x="654" y="365"/>
      <point x="676" y="176"/>
      <point x="759" y="-23" type="curve"/>
      <point x="902" y="79" type="line" smooth="yes"/>
      <point x="907" y="82"/>
      <point x="908" y="86"/>
      <point x="905" y="94" type="curve"/>
      <point x="827" y="289"/>
      <point x="770" y="497"/>
      <point x="770" y="737" type="curve" smooth="yes"/>
      <point x="770" y="829"/>
      <point x="776" y="890"/>
      <point x="791" y="1032" type="curve"/>
      <point x="765" y="1156"/>
      <point x="763" y="1199"/>
      <point x="732" y="1196" type="curve"/>
      <point x="666" y="1191"/>
      <point x="587" y="1186"/>
      <point x="507" y="1186" type="curve" smooth="yes"/>
      <point x="237" y="1186"/>
      <point x="209" y="1197"/>
      <point x="140" y="1206" type="curve" smooth="yes"/>
      <point x="132" y="1207"/>
      <point x="126" y="1202"/>
      <point x="126" y="1197" type="curve" smooth="yes"/>
      <point x="120" y="1041" type="line" smooth="yes"/>
    </contour>
  </outline>
</glyph>
<glyph name="seven-ar" format="1">
  <advance width="1178"/>
  <unicode hex="0667"/>
  <outline>
    <contour>
      <point x="603" y="-16" type="curve"/>
      <point x="724" y="38" type="line"/>
      <point x="775" y="238"/>
      <point x="863" y="750"/>
      <point x="1058" y="1143" type="curve"/>
      <point x="970" y="1268" type="line" smooth="yes"/>
      <point x="965" y="1275"/>
      <point x="958" y="1269"/>
      <point x="956" y="1266" type="curve" smooth="yes"/>
      <point x="819" y="964"/>
      <point x="722" y="624"/>
      <point x="656" y="312" type="curve"/>
      <point x="650" y="312" type="line"/>
      <point x="603" y="653"/>
      <point x="378" y="1013"/>
      <point x="254" y="1238" type="curve" smooth="yes"/>
      <point x="253" y="1240"/>
      <point x="247" y="1247"/>
      <point x="241" y="1240" type="curve" smooth="yes"/>
      <point x="125" y="1095" type="line" smooth="yes"/>
      <point x="119" y="1087"/>
      <point x="118" y="1085"/>
      <point x="123" y="1078" type="curve" smooth="yes"/>
      <point x="413" y="595"/>
      <point x="494" y="477"/>
      <point x="587" y="-8" type="curve" smooth="yes"/>
      <point x="588" y="-15"/>
      <point x="593" y="-21"/>
    </contour>
  </outline>
</glyph>
<glyph name="eight-ar" format="1">
  <advance width="1153"/>
  <unicode hex="0668"/>
  <outline>
    <contour>
      <point x="202" y="-16"/>
      <point x="206" y="-18"/>
      <point x="211" y="-18" type="curve" smooth="yes"/>
      <point x="217" y="-18"/>
      <point x="220" y="-15"/>
      <point x="223" y="-10" type="curve" smooth="yes"/>
      <point x="356" y="282"/>
      <point x="454" y="645"/>
      <point x="502" y="916" type="curve"/>
      <point x="508" y="916" type="line"/>
      <point x="558" y="634"/>
      <point x="758" y="206"/>
      <point x="901" y="-7" type="curve"/>
      <point x="906" y="-15"/>
      <point x="919" y="-18"/>
      <point x="926" y="-8" type="curve" smooth="yes"/>
      <point x="1033" y="151" type="line"/>
      <point x="800" y="501"/>
      <point x="678" y="793"/>
      <point x="571" y="1257" type="curve" smooth="yes"/>
      <point x="569" y="1266"/>
      <point x="552" y="1266"/>
      <point x="548" y="1262" type="curve" smooth="yes"/>
      <point x="454" y="1192" type="line" smooth="yes"/>
      <point x="448" y="1187"/>
      <point x="445" y="1183"/>
      <point x="444" y="1177" type="curve" smooth="yes"/>
      <point x="414" y="849"/>
      <point x="287" y="444"/>
      <point x="122" y="116" type="curve" smooth="yes"/>
      <point x="118" y="110"/>
      <point x="120" y="107"/>
      <point x="125" y="100" type="curve" smooth="yes"/>
      <point x="199" y="-12" type="line" smooth="yes"/>
    </contour>
  </outline>
</glyph>
<glyph name="nine-ar" format="1">
  <advance width="982"/>
  <unicode hex="0669"/>
  <outline>
    <contour>
      <point x="120" y="635"/>
      <point x="215" y="537"/>
      <point x="375" y="537" type="curve" smooth="yes"/>
      <point x="458" y="537"/>
      <point x="552" y="566"/>
      <point x="604" y="608" type="curve"/>
      <point x="614" y="395"/>
      <point x="629" y="195"/>
      <point x="709" y="-25" type="curve"/>
      <point x="712" y="-32"/>
      <point x="722" y="-38"/>
      <point x="732" y="-28" type="curve"/>
      <point x="856" y="110" type="line"/>
      <point x="863" y="117"/>
      <point x="863" y="118"/>
      <point x="860" y="127" type="curve" smooth="yes"/>
      <point x="777" y="334"/>
      <point x="732" y="522"/>
      <point x="717" y="731" type="curve" smooth="yes"/>
      <point x="701" y="952"/>
      <point x="676" y="1255"/>
      <point x="424" y="1255" type="curve" smooth="yes"/>
      <point x="234" y="1255"/>
      <point x="120" y="992"/>
      <point x="120" y="800" type="curve" smooth="yes"/>
    </contour>
    <contour>
      <point x="223" y="779"/>
      <point x="223" y="794" type="curve" smooth="yes"/>
      <point x="223" y="951"/>
      <point x="304" y="1086"/>
      <point x="410" y="1086" type="curve" smooth="yes"/>
      <point x="507" y="1086"/>
      <point x="592" y="934"/>
      <point x="592" y="762" type="curve" smooth="yes"/>
      <point x="592" y="751"/>
      <point x="586" y="741"/>
      <point x="578" y="739" type="curve"/>
      <point x="515" y="718"/>
      <point x="448" y="707"/>
      <point x="387" y="707" type="curve" smooth="yes"/>
      <point x="322" y="707"/>
      <point x="264" y="720"/>
      <point x="225" y="748" type="curve"/>
      <point x="223" y="763"/>
    </contour>
  </outline>
</glyph>
<glyph name="percent-ar" format="1">
  <advance width="1005"/>
  <unicode hex="066A"/>
  <outline>
    <contour>
      <point x="818" y="1099" type="line"/>
      <point x="811" y="1151"/>
      <point x="792" y="1194"/>
      <point x="761" y="1230" type="curve"/>
      <point x="132" y="62" type="line"/>
      <point x="149" y="16"/>
      <point x="175" y="-19"/>
      <point x="212" y="-45" type="curve"/>
    </contour>
    <component base="period" xOffset="508" yOffset="103" xScale="0.803" yScale="0.803"/>
    <component base="period" xOffset="24" yOffset="870" xScale="0.803" yScale="0.803"/>
  </outline>
</glyph>
<glyph name="decimalseparator-ar" format="1">
  <advance width="747"/>
  <unicode hex="066B"/>
  <outline>
    <contour>
      <point x="199" y="-396" type="line"/>
      <point x="209" y="-396"/>
      <point x="213" y="-393"/>
      <point x="216" y="-389" type="curve"/>
      <point x="627" y="685" type="line"/>
      <point x="628" y="689"/>
      <point x="625" y="692"/>
      <point x="610" y="694" type="curve" smooth="yes"/>
      <point x="551" y="701" type="line" smooth="yes"/>
      <point x="542" y="702"/>
      <point x="536" y="699"/>
      <point x="534" y="694" type="curve" smooth="yes"/>
      <point x="120" y="-381" type="line"/>
      <point x="119" y="-387"/>
      <point x="128" y="-389"/>
      <point x="137" y="-390" type="curve"/>
    </contour>
  </outline>
</glyph>
<glyph name="thousandseparator-ar" format="1">
  <advance width="590"/>
  <unicode hex="066C"/>
  <outline>
    <contour>
      <point x="202" y="15"/>
      <point x="207" y="19"/>
      <point x="209" y="22" type="curve" smooth="yes"/>
      <point x="470" y="549" type="line"/>
      <point x="471" y="554"/>
      <point x="461" y="557"/>
      <point x="453" y="558" type="curve" smooth="yes"/>
      <point x="399" y="564" type="line" smooth="yes"/>
      <point x="392" y="565"/>
      <point x="386" y="564"/>
      <point x="383" y="559" type="curve"/>
      <point x="120" y="31" type="line"/>
      <point x="118" y="26"/>
      <point x="129" y="24"/>
      <point x="138" y="23" type="curve" smooth="yes"/>
      <point x="193" y="16" type="line" smooth="yes"/>
    </contour>
  </outline>
</glyph>
<glyph name="asterisk-ar" format="1">
  <advance width="823"/>
  <unicode hex="066D"/>
  <outline>
    <contour>
      <point x="415" y="337" type="line"/>
      <point x="581" y="211" type="line"/>
      <point x="601" y="229" type="line"/>
      <point x="526" y="419" type="line"/>
      <point x="703" y="534" type="line"/>
      <point x="697" y="552" type="line"/>
      <point x="488" y="542" type="line"/>
      <point x="427" y="747" type="line"/>
      <point x="396" y="747" type="line"/>
      <point x="346" y="542" type="line"/>
      <point x="126" y="549" type="line"/>
      <point x="120" y="534" type="line"/>
      <point x="306" y="419" type="line"/>
      <point x="234" y="219" type="line"/>
      <point x="253" y="204" type="line"/>
    </contour>
  </outline>
</glyph>
<glyph name="behDotless-ar" format="1">
  <advance width="1774"/>
  <unicode hex="066E"/>
  <outline>
    <contour>
      <point x="180" y="80"/>
      <point x="339" y="-38"/>
      <point x="693" y="-38" type="curve" smooth="yes"/>
      <point x="801" y="-38"/>
      <point x="941" y="-25"/>
      <point x="1112" y="1" type="curve" smooth="yes"/>
      <point x="1402" y="45"/>
      <point x="1634" y="134"/>
      <point x="1634" y="404" type="curve" smooth="yes"/>
      <point x="1634" y="491"/>
      <point x="1570" y="761"/>
      <point x="1527" y="931" type="curve" smooth="yes"/>
      <point x="1526" y="935"/>
      <point x="1519" y="940"/>
      <point x="1512" y="934" type="curve" smooth="yes"/>
      <point x="1398" y="825" type="line"/>
      <point x="1510" y="340" type="line"/>
      <point x="1525" y="283"/>
      <point x="1528" y="271"/>
      <point x="1512" y="263" type="curve" smooth="yes"/>
      <point x="1382" y="198"/>
      <point x="1063" y="123"/>
      <point x="767" y="123" type="curve" smooth="yes"/>
      <point x="450" y="123"/>
      <point x="282" y="220"/>
      <point x="282" y="404" type="curve"/>
      <point x="282" y="421"/>
      <point x="274" y="437"/>
      <point x="297" y="573" type="curve" smooth="yes"/>
      <point x="298" y="579"/>
      <point x="293" y="584"/>
      <point x="282" y="585" type="curve" smooth="yes"/>
      <point x="217" y="590" type="line" smooth="yes"/>
      <point x="208" y="591"/>
      <point x="203" y="585"/>
      <point x="202" y="579" type="curve" smooth="yes"/>
      <point x="176" y="422"/>
      <point x="180" y="383"/>
      <point x="180" y="341" type="curve" smooth="yes"/>
    </contour>
    <contour>
      <point x="818" y="841" type="move" name="top"/>
    </contour>
    <contour>
      <point x="800" y="-232" type="move" name="bottom"/>
    </contour>
    <contour>
      <point x="327" y="39" type="move" name="ring"/>
    </contour>
  </outline>
</glyph>
<glyph name="qafDotless-ar" format="1">
  <advance width="1589"/>
  <unicode hex="066F"/>
  <outline>
    <contour>
      <point x="797" y="-508"/>
      <point x="1260" y="-446"/>
      <point x="1387" y="-261" type="curve" smooth="yes"/>
      <point x="1439" y="-185"/>
      <point x="1443" y="-84"/>
      <point x="1448" y="50" type="curve" smooth="yes"/>
      <point x="1460" y="363"/>
      <point x="1302" y="759"/>
      <point x="1079" y="759" type="curve" smooth="yes"/>
      <point x="855" y="759"/>
      <point x="726" y="445"/>
      <point x="726" y="220" type="curve" smooth="yes"/>
      <point x="726" y="50"/>
      <point x="825" y="-39"/>
      <point x="1016" y="-39" type="curve" smooth="yes"/>
      <point x="1113" y="-39"/>
      <point x="1227" y="-12"/>
      <point x="1307" y="26" type="curve"/>
      <point x="1322" y="32"/>
      <point x="1322" y="32"/>
      <point x="1322" y="7" type="curve"/>
      <point x="1322" y="-169" type="line"/>
      <point x="1322" y="-200"/>
      <point x="1310" y="-206"/>
      <point x="1298" y="-211" type="curve"/>
      <point x="1231" y="-235"/>
      <point x="957" y="-326"/>
      <point x="630" y="-326" type="curve" smooth="yes"/>
      <point x="408" y="-326"/>
      <point x="287" y="-212"/>
      <point x="297" y="-12" type="curve" smooth="yes"/>
      <point x="298" y="9"/>
      <point x="301" y="30"/>
      <point x="344" y="260" type="curve" smooth="yes"/>
      <point x="345" y="267"/>
      <point x="343" y="271"/>
      <point x="331" y="275" type="curve"/>
      <point x="255" y="290" type="line" smooth="yes"/>
      <point x="246" y="292"/>
      <point x="236" y="287"/>
      <point x="235" y="282" type="curve"/>
      <point x="187" y="0"/>
      <point x="180" y="-38"/>
      <point x="180" y="-98" type="curve" smooth="yes"/>
      <point x="180" y="-355"/>
      <point x="338" y="-508"/>
      <point x="603" y="-508" type="curve" smooth="yes"/>
    </contour>
    <contour>
      <point x="1151" y="125"/>
      <point x="1058" y="125" type="curve" smooth="yes"/>
      <point x="971" y="125"/>
      <point x="851" y="133"/>
      <point x="845" y="183" type="curve"/>
      <point x="830" y="390"/>
      <point x="919" y="587"/>
      <point x="1040" y="587" type="curve" smooth="yes"/>
      <point x="1160" y="587"/>
      <point x="1295" y="385"/>
      <point x="1314" y="178" type="curve"/>
      <point x="1302" y="158"/>
    </contour>
    <contour>
      <point x="1080" y="957" type="move" name="top"/>
    </contour>
    <contour>
      <point x="612" y="-708" type="move" name="bottom"/>
    </contour>
  </outline>
</glyph>
<glyph name="alefabove-ar" format="1">
  <advance width="0"/>
  <unicode hex="0670"/>
  <outline>
    <contour>
      <point x="110" y="838" type="line"/>
      <point x="108" y="1210" type="line"/>
      <point x="0" y="1145" type="line"/>
      <point x="20" y="775" type="line"/>
    </contour>
    <contour>
      <point x="55" y="1401" type="move" name="top"/>
    </contour>
    <contour>
      <point x="55" y="778" type="move" name="_top"/>
    </contour>
  </outline>
</glyph>
<glyph name="highhamza-ar" format="1">
  <advance width="0"/>
  <unicode hex="0674"/>
  <outline>
    <component base="hamzacenter-ar" yOffset="296"/>
    <contour>
      <point x="246" y="1135" type="move" name="top"/>
    </contour>
    <contour>
      <point x="286" y="347" type="move" name="bottom"/>
    </contour>
  </outline>
</glyph>
<glyph name="hahThreedotsabove-ar" format="1">
  <advance width="1404"/>
  <unicode hex="0685"/>
  <outline>
    <component base="hah-ar"/>
    <component base="threedotsupabove-ar" xOffset="147" yOffset="410"/>
    <contour>
      <point x="756" y="-891" type="move" name="bottom"/>
    </contour>
  </outline>
</glyph>
<glyph name="dalRing-ar" format="1">
  <advance width="1129"/>
  <unicode hex="0689"/>
  <outline>
    <component base="dal-ar"/>
    <component base="ringbelow-ar" xOffset="745" yOffset="425"/>
    <contour>
      <point x="531" y="-330" type="move" name="bottom"/>
    </contour>
  </outline>
</glyph>
<glyph name="rehRing-ar" format="1">
  <advance width="889"/>
  <unicode hex="0693"/>
  <outline>
    <component base="reh-ar"/>
    <component base="ringbelow-ar" xOffset="437" yOffset="54"/>
    <contour>
      <point x="263" y="-840" type="move" name="bottom"/>
    </contour>
  </outline>
</glyph>
<glyph name="jeh-ar" format="1">
  <advance width="885"/>
  <unicode hex="0698"/>
  <outline>
    <component base="reh-ar"/>
    <component base="threedotsupabove-ar" xOffset="315" yOffset="254"/>
    <contour>
      <point x="393" y="-610" type="move" name="bottom"/>
    </contour>
  </outline>
</glyph>
<glyph name="fehDotless-ar" format="1">
  <advance width="1797"/>
  <unicode hex="06A1"/>
  <outline>
    <contour>
      <point x="1194" y="479"/>
      <point x="1088" y="506"/>
      <point x="1083" y="541" type="curve"/>
      <point x="1083" y="740"/>
      <point x="1161" y="878"/>
      <point x="1277" y="878" type="curve" smooth="yes"/>
      <point x="1391" y="878"/>
      <point x="1488" y="740"/>
      <point x="1523" y="505" type="curve"/>
      <point x="1506" y="500"/>
      <point x="1413" y="479"/>
      <point x="1307" y="479" type="curve" smooth="yes"/>
    </contour>
    <contour>
      <point x="1549" y="264" type="line"/>
      <point x="1432" y="207"/>
      <point x="1074" y="122"/>
      <point x="764" y="122" type="curve" smooth="yes"/>
      <point x="450" y="122"/>
      <point x="283" y="219"/>
      <point x="283" y="403" type="curve" smooth="yes"/>
      <point x="283" y="423"/>
      <point x="277" y="455"/>
      <point x="297" y="572" type="curve" smooth="yes"/>
      <point x="298" y="578"/>
      <point x="293" y="581"/>
      <point x="281" y="582" type="curve"/>
      <point x="221" y="588" type="line" smooth="yes"/>
      <point x="211" y="589"/>
      <point x="202" y="584"/>
      <point x="201" y="577" type="curve" smooth="yes"/>
      <point x="179" y="425"/>
      <point x="180" y="378"/>
      <point x="180" y="340" type="curve" smooth="yes"/>
      <point x="180" y="78"/>
      <point x="338" y="-39"/>
      <point x="694" y="-39" type="curve" smooth="yes"/>
      <point x="912" y="-39"/>
      <point x="1157" y="-6"/>
      <point x="1342" y="42" type="curve" smooth="yes"/>
      <point x="1557" y="98"/>
      <point x="1657" y="220"/>
      <point x="1657" y="424" type="curve"/>
      <point x="1657" y="686"/>
      <point x="1520" y="1051"/>
      <point x="1316" y="1051" type="curve" smooth="yes"/>
      <point x="1093" y="1051"/>
      <point x="985" y="781"/>
      <point x="985" y="556" type="curve" smooth="yes"/>
      <point x="985" y="408"/>
      <point x="1083" y="325"/>
      <point x="1258" y="325" type="curve" smooth="yes"/>
      <point x="1345" y="325"/>
      <point x="1452" y="344"/>
      <point x="1523" y="379" type="curve"/>
      <point x="1536" y="387"/>
      <point x="1544" y="386"/>
      <point x="1543" y="359" type="curve"/>
    </contour>
    <contour>
      <point x="1315" y="1248" type="move" name="top"/>
    </contour>
    <contour>
      <point x="709" y="-241" type="move" name="bottom"/>
    </contour>
  </outline>
</glyph>
<glyph name="veh-ar" format="1">
  <advance width="1803"/>
  <unicode hex="06A4"/>
  <outline>
    <component base="fehDotless-ar"/>
    <component base="threedotsupabove-ar" xOffset="1002" yOffset="660"/>
    <contour>
      <point x="740" y="-240" type="move" name="bottom"/>
    </contour>
  </outline>
</glyph>
<glyph name="keheh-ar" format="1">
  <advance width="1657"/>
  <unicode hex="06A9"/>
  <outline>
    <contour>
      <point x="180" y="77"/>
      <point x="337" y="-38"/>
      <point x="704" y="-38" type="curve" smooth="yes"/>
      <point x="1030" y="-38"/>
      <point x="1320" y="49"/>
      <point x="1451" y="107" type="curve"/>
      <point x="1469" y="117"/>
      <point x="1517" y="228"/>
      <point x="1517" y="334" type="curve"/>
      <point x="1517" y="528"/>
      <point x="1256" y="878"/>
      <point x="1018" y="1010" type="curve"/>
      <point x="1004" y="1019"/>
      <point x="1009" y="1034"/>
      <point x="1020" y="1037" type="curve"/>
      <point x="1648" y="1235" type="line"/>
      <point x="1681" y="1388" type="line"/>
      <point x="1682" y="1396"/>
      <point x="1679" y="1401"/>
      <point x="1670" y="1398" type="curve" smooth="yes"/>
      <point x="1006" y="1176" type="line"/>
      <point x="882" y="907" type="line"/>
      <point x="1132" y="772"/>
      <point x="1392" y="462"/>
      <point x="1431" y="242" type="curve"/>
      <point x="1318" y="197"/>
      <point x="1058" y="123"/>
      <point x="764" y="123" type="curve" smooth="yes"/>
      <point x="449" y="123"/>
      <point x="281" y="220"/>
      <point x="281" y="404" type="curve" smooth="yes"/>
      <point x="281" y="411"/>
      <point x="281" y="434"/>
      <point x="296" y="572" type="curve" smooth="yes"/>
      <point x="297" y="578"/>
      <point x="291" y="582"/>
      <point x="280" y="583" type="curve" smooth="yes"/>
      <point x="220" y="588" type="line" smooth="yes"/>
      <point x="209" y="589"/>
      <point x="201" y="584"/>
      <point x="200" y="577" type="curve" smooth="yes"/>
      <point x="177" y="413"/>
      <point x="180" y="392"/>
      <point x="180" y="345" type="curve" smooth="yes"/>
    </contour>
    <contour>
      <point x="574" y="1062" type="move" name="top"/>
    </contour>
    <contour>
      <point x="708" y="-245" type="move" name="bottom"/>
    </contour>
    <contour>
      <point x="1484" y="1020" type="move" name="ring"/>
    </contour>
  </outline>
</glyph>
<glyph name="ng-ar" format="1">
  <advance width="1461"/>
  <unicode hex="06AD"/>
  <outline>
    <component base="kaf-ar"/>
    <component base="threedotsupabove-ar" xOffset="376" yOffset="394"/>
    <contour>
      <point x="675" y="-236" type="move" name="bottom"/>
    </contour>
  </outline>
</glyph>
<glyph name="gaf-ar" format="1">
  <advance width="1657"/>
  <unicode hex="06AF"/>
  <outline>
    <contour>
      <point x="1520" y="1512" type="line" smooth="yes"/>
      <point x="1531" y="1516"/>
      <point x="1535" y="1520"/>
      <point x="1537" y="1526" type="curve" smooth="yes"/>
      <point x="1556" y="1599" type="line" smooth="yes"/>
      <point x="1558" y="1606"/>
      <point x="1555" y="1611"/>
      <point x="1545" y="1609" type="curve"/>
      <point x="1124" y="1475" type="line" smooth="yes"/>
      <point x="1114" y="1472"/>
      <point x="1110" y="1469"/>
      <point x="1107" y="1463" type="curve"/>
      <point x="1079" y="1373" type="line"/>
    </contour>
    <contour>
      <point x="180" y="77"/>
      <point x="337" y="-38"/>
      <point x="704" y="-38" type="curve" smooth="yes"/>
      <point x="1030" y="-38"/>
      <point x="1320" y="49"/>
      <point x="1451" y="107" type="curve"/>
      <point x="1469" y="117"/>
      <point x="1517" y="228"/>
      <point x="1517" y="334" type="curve"/>
      <point x="1517" y="528"/>
      <point x="1256" y="878"/>
      <point x="1018" y="1010" type="curve"/>
      <point x="1004" y="1019"/>
      <point x="1009" y="1034"/>
      <point x="1020" y="1037" type="curve"/>
      <point x="1648" y="1235" type="line"/>
      <point x="1681" y="1388" type="line"/>
      <point x="1682" y="1396"/>
      <point x="1679" y="1401"/>
      <point x="1670" y="1398" type="curve" smooth="yes"/>
      <point x="1006" y="1176" type="line"/>
      <point x="882" y="907" type="line"/>
      <point x="1132" y="772"/>
      <point x="1392" y="462"/>
      <point x="1431" y="242" type="curve"/>
      <point x="1318" y="197"/>
      <point x="1058" y="123"/>
      <point x="764" y="123" type="curve" smooth="yes"/>
      <point x="449" y="123"/>
      <point x="281" y="220"/>
      <point x="281" y="404" type="curve" smooth="yes"/>
      <point x="281" y="411"/>
      <point x="281" y="434"/>
      <point x="296" y="572" type="curve" smooth="yes"/>
      <point x="297" y="578"/>
      <point x="291" y="582"/>
      <point x="280" y="583" type="curve" smooth="yes"/>
      <point x="220" y="588" type="line" smooth="yes"/>
      <point x="209" y="589"/>
      <point x="201" y="584"/>
      <point x="200" y="577" type="curve" smooth="yes"/>
      <point x="177" y="413"/>
      <point x="180" y="392"/>
      <point x="180" y="345" type="curve" smooth="yes"/>
    </contour>
    <contour>
      <point x="584" y="1068" type="move" name="top"/>
    </contour>
    <contour>
      <point x="705" y="-238" type="move" name="bottom"/>
    </contour>
  </outline>
</glyph>
<glyph name="noonghunna-ar" format="1">
  <advance width="1461"/>
  <unicode hex="06BA"/>
  <outline>
    <contour>
      <point x="801" y="-510"/>
      <point x="1164" y="-409"/>
      <point x="1278" y="-262" type="curve" smooth="yes"/>
      <point x="1309" y="-222"/>
      <point x="1321" y="-184"/>
      <point x="1321" y="-124" type="curve"/>
      <point x="1321" y="-71"/>
      <point x="1314" y="-33"/>
      <point x="1242" y="540" type="curve" smooth="yes"/>
      <point x="1241" y="548"/>
      <point x="1230" y="559"/>
      <point x="1220" y="552" type="curve" smooth="yes"/>
      <point x="1102" y="471" type="line"/>
      <point x="1200" y="-175" type="line" smooth="yes"/>
      <point x="1202" y="-185"/>
      <point x="1200" y="-192"/>
      <point x="1191" y="-197" type="curve" smooth="yes"/>
      <point x="1137" y="-227"/>
      <point x="905" y="-328"/>
      <point x="609" y="-328" type="curve" smooth="yes"/>
      <point x="406" y="-328"/>
      <point x="296" y="-231"/>
      <point x="296" y="-53" type="curve" smooth="yes"/>
      <point x="296" y="3"/>
      <point x="314" y="59"/>
      <point x="340" y="215" type="curve" smooth="yes"/>
      <point x="341" y="221"/>
      <point x="337" y="225"/>
      <point x="324" y="227" type="curve" smooth="yes"/>
      <point x="253" y="238" type="line" smooth="yes"/>
      <point x="242" y="240"/>
      <point x="236" y="236"/>
      <point x="234" y="227" type="curve" smooth="yes"/>
      <point x="195" y="51"/>
      <point x="180" y="-43"/>
      <point x="180" y="-115" type="curve" smooth="yes"/>
      <point x="180" y="-368"/>
      <point x="325" y="-510"/>
      <point x="582" y="-510" type="curve" smooth="yes"/>
    </contour>
    <contour>
      <point x="703" y="511" type="move" name="top"/>
    </contour>
    <contour>
      <point x="649" y="-710" type="move" name="bottom"/>
    </contour>
    <contour>
      <point x="278" y="-407" type="move" name="ring"/>
    </contour>
  </outline>
</glyph>
<glyph name="hehDoachashmee-ar" format="1">
  <advance width="1341"/>
  <unicode hex="06BE"/>
  <outline>
    <contour>
      <point x="180" y="244"/>
      <point x="251" y="157"/>
      <point x="380" y="115" type="curve"/>
      <point x="397" y="111"/>
      <point x="400" y="109"/>
      <point x="384" y="93" type="curve"/>
      <point x="188" y="-153" type="line"/>
      <point x="188" y="-161"/>
      <point x="250" y="-177"/>
      <point x="288" y="-177" type="curve" smooth="yes"/>
      <point x="348" y="-177"/>
      <point x="391" y="-145"/>
      <point x="452" y="-57" type="curve" smooth="yes"/>
      <point x="565" y="107" type="line"/>
      <point x="580" y="125"/>
      <point x="579" y="125"/>
      <point x="1127" y="30" type="curve"/>
      <point x="1178" y="153"/>
      <point x="1201" y="192"/>
      <point x="1201" y="306" type="curve" smooth="yes"/>
      <point x="1201" y="512"/>
      <point x="1058" y="712"/>
      <point x="667" y="1054" type="curve"/>
      <point x="658" y="1061"/>
      <point x="647" y="1061"/>
      <point x="642" y="1053" type="curve"/>
      <point x="563" y="903" type="line"/>
      <point x="557" y="893"/>
      <point x="554" y="889"/>
      <point x="547" y="886" type="curve" smooth="yes"/>
      <point x="365" y="808"/>
      <point x="180" y="548"/>
      <point x="180" y="357" type="curve" smooth="yes"/>
    </contour>
    <contour>
      <point x="506" y="267" type="line"/>
      <point x="360" y="298"/>
      <point x="287" y="360"/>
      <point x="287" y="454" type="curve"/>
      <point x="287" y="613"/>
      <point x="434" y="725"/>
      <point x="557" y="725" type="curve" smooth="yes"/>
      <point x="623" y="725"/>
      <point x="678" y="693"/>
      <point x="712" y="634" type="curve"/>
    </contour>
    <contour>
      <point x="700" y="271" type="line" smooth="yes"/>
      <point x="691" y="273"/>
      <point x="686" y="283"/>
      <point x="687" y="295" type="curve"/>
      <point x="830" y="659" type="line"/>
      <point x="942" y="549"/>
      <point x="1099" y="353"/>
      <point x="1105" y="215" type="curve"/>
      <point x="1105" y="201"/>
      <point x="1099" y="193"/>
      <point x="1088" y="195" type="curve"/>
    </contour>
    <contour>
      <point x="660" y="1255" type="move" name="top"/>
    </contour>
    <contour>
      <point x="664" y="-335" type="move" name="bottom"/>
    </contour>
  </outline>
</glyph>
<glyph name="tehMarbutagoal-ar" format="1">
  <advance width="1026"/>
  <unicode hex="06C3"/>
  <outline>
    <component base="heh-ar"/>
    <component base="twodotshorizontalabove-ar" xOffset="90" yOffset="250"/>
    <contour>
      <point x="464" y="-230" type="move" name="bottom"/>
    </contour>
  </outline>
</glyph>
<glyph name="wawTwodots-ar" format="1">
  <advance width="1023"/>
  <unicode hex="06CA"/>
  <outline>
    <component base="waw-ar"/>
    <component base="twodotshorizontalabove-ar" xOffset="223" yOffset="197"/>
    <contour>
      <point x="394" y="-670" type="move" name="bottom"/>
    </contour>
  </outline>
</glyph>
<glyph name="yehTail-ar" format="1">
  <advance width="2003"/>
  <unicode hex="06CD"/>
  <outline>
    <contour>
      <point x="1358" y="-587"/>
      <point x="1863" y="-380"/>
      <point x="1863" y="-115" type="curve" smooth="yes"/>
      <point x="1863" y="-39"/>
      <point x="1823" y="-13"/>
      <point x="1689" y="-2" type="curve" smooth="yes"/>
      <point x="1382" y="23"/>
      <point x="1280" y="34"/>
      <point x="1280" y="122" type="curve"/>
      <point x="1280" y="230"/>
      <point x="1530" y="478"/>
      <point x="1639" y="478" type="curve" smooth="yes"/>
      <point x="1667" y="478"/>
      <point x="1694" y="469"/>
      <point x="1729" y="450" type="curve"/>
      <point x="1738" y="447"/>
      <point x="1745" y="446"/>
      <point x="1753" y="459" type="curve"/>
      <point x="1801" y="564" type="line" smooth="yes"/>
      <point x="1803" y="569"/>
      <point x="1805" y="570"/>
      <point x="1803" y="573" type="curve" smooth="yes"/>
      <point x="1776" y="613"/>
      <point x="1703" y="644"/>
      <point x="1655" y="644" type="curve" smooth="yes"/>
      <point x="1436" y="644"/>
      <point x="1168" y="248"/>
      <point x="1168" y="22" type="curve" smooth="yes"/>
      <point x="1168" y="-81"/>
      <point x="1240" y="-131"/>
      <point x="1415" y="-148" type="curve" smooth="yes"/>
      <point x="1726" y="-179" type="line"/>
      <point x="1761" y="-182"/>
      <point x="1764" y="-192"/>
      <point x="1727" y="-216" type="curve"/>
      <point x="1532" y="-337"/>
      <point x="1294" y="-407"/>
      <point x="1083" y="-407" type="curve" smooth="yes"/>
      <point x="838" y="-407"/>
      <point x="718" y="-302"/>
      <point x="718" y="-86" type="curve" smooth="yes"/>
      <point x="718" y="3"/>
      <point x="733" y="94"/>
      <point x="733" y="157" type="curve"/>
      <point x="733" y="226"/>
      <point x="705" y="251"/>
      <point x="658" y="238" type="curve"/>
      <point x="346" y="141"/>
      <point x="190" y="94"/>
      <point x="182" y="81" type="curve" smooth="yes"/>
      <point x="167" y="57"/>
      <point x="225" y="-29"/>
      <point x="326" y="-29" type="curve" smooth="yes"/>
      <point x="368" y="-29"/>
      <point x="446" y="-10"/>
      <point x="626" y="62" type="curve"/>
      <point x="614" y="-20"/>
      <point x="607" y="-93"/>
      <point x="607" y="-158" type="curve" smooth="yes"/>
      <point x="607" y="-453"/>
      <point x="747" y="-587"/>
      <point x="1055" y="-587" type="curve" smooth="yes"/>
    </contour>
    <contour>
      <point x="906" y="498" type="move" name="top"/>
    </contour>
    <contour>
      <point x="1057" y="-783" type="move" name="bottom"/>
    </contour>
  </outline>
</glyph>
<glyph name="yehbarree-ar" format="1">
  <advance width="1798"/>
  <unicode hex="06D2"/>
  <outline>
    <contour>
      <point x="1658" y="-59" type="line"/>
      <point x="1658" y="76"/>
      <point x="1653" y="106"/>
      <point x="1552" y="106" type="curve" smooth="yes"/>
      <point x="443" y="107" type="line" smooth="yes"/>
      <point x="337" y="107"/>
      <point x="262" y="135"/>
      <point x="288" y="222" type="curve"/>
      <point x="334" y="343"/>
      <point x="666" y="420"/>
      <point x="794" y="629" type="curve" smooth="yes"/>
      <point x="816" y="665"/>
      <point x="891" y="570"/>
      <point x="943" y="582" type="curve"/>
      <point x="989" y="707" type="line"/>
      <point x="959" y="749"/>
      <point x="875" y="801"/>
      <point x="797" y="798" type="curve"/>
      <point x="729" y="763"/>
      <point x="747" y="683"/>
      <point x="524" y="557" type="curve" smooth="yes"/>
      <point x="331" y="448"/>
      <point x="180" y="291"/>
      <point x="180" y="95" type="curve" smooth="yes"/>
      <point x="180" y="-6"/>
      <point x="254" y="-59"/>
      <point x="395" y="-59" type="curve" smooth="yes"/>
    </contour>
    <contour>
      <point x="824" y="1005" type="move" name="top"/>
    </contour>
    <contour>
      <point x="880" y="-258" type="move" name="bottom"/>
    </contour>
  </outline>
</glyph>
<glyph name="fullstop-ar" format="1">
  <advance width="757"/>
  <unicode hex="06D4"/>
  <outline>
    <contour>
      <point x="597" y="308" type="line" smooth="yes"/>
      <point x="605" y="308"/>
      <point x="612" y="313"/>
      <point x="613" y="317" type="curve"/>
      <point x="637" y="424" type="line"/>
      <point x="639" y="434"/>
      <point x="631" y="440"/>
      <point x="619" y="440" type="curve" smooth="yes"/>
      <point x="160" y="440" type="line" smooth="yes"/>
      <point x="153" y="440"/>
      <point x="145" y="436"/>
      <point x="144" y="432" type="curve"/>
      <point x="120" y="324" type="line" smooth="yes"/>
      <point x="118" y="314"/>
      <point x="125" y="308"/>
      <point x="138" y="308" type="curve" smooth="yes"/>
    </contour>
  </outline>
</glyph>
<glyph name="sadLamAlefMaksuraabove-ar" format="1">
  <advance width="0"/>
  <unicode hex="06D6"/>
  <outline>
    <contour>
      <point x="1303" y="354" type="line" smooth="yes"/>
      <point x="1317" y="354"/>
      <point x="1330" y="359"/>
      <point x="1332" y="364" type="curve"/>
      <point x="1334" y="362" type="line"/>
      <point x="1341" y="392" type="line"/>
      <point x="1347" y="408" type="line"/>
      <point x="1344" y="408"/>
      <point x="1329" y="409"/>
      <point x="1328" y="409" type="curve" smooth="yes"/>
      <point x="237" y="383" type="line" smooth="yes"/>
      <point x="165" y="381"/>
      <point x="112" y="390"/>
      <point x="55" y="401" type="curve" smooth="yes"/>
      <point x="45" y="403"/>
      <point x="42" y="415"/>
      <point x="45" y="429" type="curve" smooth="yes"/>
      <point x="68" y="536"/>
      <point x="181" y="562"/>
      <point x="287" y="585" type="curve"/>
      <point x="326" y="595"/>
      <point x="336" y="647"/>
      <point x="336" y="664" type="curve"/>
      <point x="360" y="595"/>
      <point x="419" y="559"/>
      <point x="471" y="559" type="curve" smooth="yes"/>
      <point x="510" y="559"/>
      <point x="548" y="576"/>
      <point x="572" y="604" type="curve"/>
      <point x="576" y="612"/>
      <point x="580" y="614"/>
      <point x="591" y="610" type="curve"/>
      <point x="637" y="589"/>
      <point x="707" y="578"/>
      <point x="769" y="578" type="curve" smooth="yes"/>
      <point x="926" y="578"/>
      <point x="1057" y="647"/>
      <point x="1057" y="727" type="curve"/>
      <point x="1057" y="780"/>
      <point x="958" y="858"/>
      <point x="891" y="859" type="curve" smooth="yes"/>
      <point x="831" y="860"/>
      <point x="765" y="800"/>
      <point x="640" y="651" type="curve"/>
      <point x="590" y="668" type="line"/>
      <point x="585" y="669"/>
      <point x="579" y="666"/>
      <point x="576" y="662" type="curve" smooth="yes"/>
      <point x="551" y="629"/>
      <point x="522" y="612"/>
      <point x="488" y="612" type="curve" smooth="yes"/>
      <point x="338" y="612"/>
      <point x="357" y="752"/>
      <point x="334" y="1147" type="curve" smooth="yes"/>
      <point x="333" y="1164"/>
      <point x="325" y="1161"/>
      <point x="319" y="1156" type="curve" smooth="yes"/>
      <point x="289" y="1131" type="line" smooth="yes"/>
      <point x="280" y="1123"/>
      <point x="279" y="1121"/>
      <point x="279" y="1115" type="curve" smooth="yes"/>
      <point x="296" y="654" type="line"/>
      <point x="296" y="644"/>
      <point x="290" y="636"/>
      <point x="281" y="634" type="curve"/>
      <point x="93" y="593"/>
      <point x="35" y="541"/>
      <point x="0" y="389" type="curve"/>
      <point x="0" y="348"/>
      <point x="64" y="324"/>
      <point x="196" y="327" type="curve" smooth="yes"/>
    </contour>
    <contour>
      <point x="773" y="613"/>
      <point x="668" y="635" type="curve"/>
      <point x="749" y="737"/>
      <point x="814" y="807"/>
      <point x="865" y="807" type="curve" smooth="yes"/>
      <point x="925" y="807"/>
      <point x="979" y="752"/>
      <point x="1006" y="720" type="curve"/>
      <point x="1018" y="708"/>
      <point x="1017" y="694"/>
      <point x="1004" y="683" type="curve"/>
      <point x="901" y="631"/>
    </contour>
    <contour>
      <point x="609" y="1405" type="move" name="top"/>
    </contour>
    <contour>
      <point x="669" y="337" type="move" name="_top"/>
    </contour>
  </outline>
</glyph>
<glyph name="qafLamAlefMaksuraabove-ar" format="1">
  <advance width="0"/>
  <unicode hex="06D7"/>
  <outline>
    <contour>
      <point x="652" y="759"/>
      <point x="576" y="754"/>
      <point x="524" y="779" type="curve"/>
      <point x="522" y="865"/>
      <point x="557" y="944"/>
      <point x="598" y="944" type="curve" smooth="yes"/>
      <point x="653" y="944"/>
      <point x="699" y="882"/>
      <point x="723" y="776" type="curve"/>
    </contour>
    <contour>
      <point x="838" y="390" type="line"/>
      <point x="729" y="384"/>
      <point x="463" y="367"/>
      <point x="256" y="367" type="curve" smooth="yes"/>
      <point x="161" y="367"/>
      <point x="95" y="374"/>
      <point x="38" y="391" type="curve"/>
      <point x="67" y="511"/>
      <point x="215" y="545"/>
      <point x="331" y="569" type="curve"/>
      <point x="349" y="573"/>
      <point x="365" y="587"/>
      <point x="381" y="640" type="curve"/>
      <point x="400" y="583"/>
      <point x="476" y="544"/>
      <point x="567" y="544" type="curve" smooth="yes"/>
      <point x="679" y="544"/>
      <point x="767" y="599"/>
      <point x="772" y="671" type="curve" smooth="yes"/>
      <point x="783" y="826"/>
      <point x="726" y="1008"/>
      <point x="612" y="1008" type="curve" smooth="yes"/>
      <point x="527" y="1008"/>
      <point x="487" y="878"/>
      <point x="487" y="791" type="curve" smooth="yes"/>
      <point x="487" y="736"/>
      <point x="529" y="706"/>
      <point x="605" y="706" type="curve" smooth="yes"/>
      <point x="651" y="706"/>
      <point x="705" y="718"/>
      <point x="731" y="734" type="curve"/>
      <point x="730" y="633" type="line"/>
      <point x="691" y="611"/>
      <point x="642" y="599"/>
      <point x="589" y="599" type="curve" smooth="yes"/>
      <point x="502" y="599"/>
      <point x="432" y="631"/>
      <point x="407" y="692" type="curve" smooth="yes"/>
      <point x="394" y="724"/>
      <point x="386" y="767"/>
      <point x="370" y="1131" type="curve"/>
      <point x="314" y="1102" type="line"/>
      <point x="346" y="623" type="line"/>
      <point x="199" y="591"/>
      <point x="0" y="537"/>
      <point x="0" y="374" type="curve" smooth="yes"/>
      <point x="0" y="332"/>
      <point x="65" y="312"/>
      <point x="212" y="312" type="curve" smooth="yes"/>
      <point x="280" y="312"/>
      <point x="647" y="327"/>
      <point x="824" y="337" type="curve"/>
    </contour>
    <contour>
      <point x="437" y="1356" type="move" name="top"/>
    </contour>
    <contour>
      <point x="447" y="317" type="move" name="_top"/>
    </contour>
  </outline>
</glyph>
<glyph name="endofayah-ar" format="1">
  <advance width="2847"/>
  <unicode hex="06DD"/>
  <outline>
    <contour>
      <point x="1499" y="-1034" type="line" smooth="yes"/>
      <point x="1508" y="-1034"/>
      <point x="1516" y="-1028"/>
      <point x="1516" y="-1023" type="curve"/>
      <point x="1516" y="-840" type="line" smooth="yes"/>
      <point x="1516" y="-827"/>
      <point x="1522" y="-818"/>
      <point x="1532" y="-818" type="curve"/>
      <point x="2206" y="-762"/>
      <point x="2727" y="-198"/>
      <point x="2727" y="475" type="curve" smooth="yes"/>
      <point x="2727" y="1148"/>
      <point x="2206" y="1711"/>
      <point x="1531" y="1767" type="curve"/>
      <point x="1522" y="1767"/>
      <point x="1516" y="1776"/>
      <point x="1516" y="1789" type="curve" smooth="yes"/>
      <point x="1516" y="1972" type="line"/>
      <point x="1516" y="1978"/>
      <point x="1508" y="1983"/>
      <point x="1499" y="1983" type="curve" smooth="yes"/>
      <point x="1346" y="1983" type="line" smooth="yes"/>
      <point x="1337" y="1983"/>
      <point x="1329" y="1978"/>
      <point x="1329" y="1972" type="curve" smooth="yes"/>
      <point x="1329" y="1790" type="line" smooth="yes"/>
      <point x="1329" y="1777"/>
      <point x="1323" y="1768"/>
      <point x="1314" y="1768" type="curve"/>
      <point x="640" y="1711"/>
      <point x="120" y="1149"/>
      <point x="120" y="475" type="curve" smooth="yes"/>
      <point x="120" y="-199"/>
      <point x="641" y="-763"/>
      <point x="1315" y="-819" type="curve"/>
      <point x="1323" y="-819"/>
      <point x="1329" y="-828"/>
      <point x="1329" y="-841" type="curve" smooth="yes"/>
      <point x="1329" y="-1023" type="line" smooth="yes"/>
      <point x="1329" y="-1028"/>
      <point x="1337" y="-1034"/>
      <point x="1346" y="-1034" type="curve" smooth="yes"/>
    </contour>
    <contour>
      <point x="1350" y="-730"/>
      <point x="1293" y="-671"/>
      <point x="1293" y="-596" type="curve"/>
      <point x="1293" y="-520"/>
      <point x="1352" y="-456"/>
      <point x="1422" y="-456" type="curve" smooth="yes"/>
      <point x="1493" y="-456"/>
      <point x="1555" y="-521"/>
      <point x="1555" y="-596" type="curve" smooth="yes"/>
      <point x="1555" y="-670"/>
      <point x="1495" y="-730"/>
      <point x="1422" y="-730" type="curve" smooth="yes"/>
    </contour>
    <contour>
      <point x="399" y="-174"/>
      <point x="258" y="135"/>
      <point x="258" y="475" type="curve"/>
      <point x="258" y="818"/>
      <point x="408" y="1130"/>
      <point x="652" y="1350" type="curve" smooth="yes"/>
      <point x="662" y="1359"/>
      <point x="665" y="1359"/>
      <point x="673" y="1353" type="curve"/>
      <point x="707" y="1318"/>
      <point x="720" y="1305"/>
      <point x="746" y="1305" type="curve" smooth="yes"/>
      <point x="762" y="1305"/>
      <point x="778" y="1311"/>
      <point x="790" y="1322" type="curve" smooth="yes"/>
      <point x="875" y="1399"/>
      <point x="972" y="1428"/>
      <point x="1068" y="1428" type="curve" smooth="yes"/>
      <point x="1178" y="1428"/>
      <point x="1292" y="1382"/>
      <point x="1411" y="1290" type="curve"/>
      <point x="1419" y="1284"/>
      <point x="1429" y="1283"/>
      <point x="1435" y="1289" type="curve"/>
      <point x="1551" y="1380"/>
      <point x="1663" y="1428"/>
      <point x="1778" y="1428" type="curve" smooth="yes"/>
      <point x="1875" y="1428"/>
      <point x="1968" y="1393"/>
      <point x="2057" y="1322" type="curve"/>
      <point x="2068" y="1312"/>
      <point x="2085" y="1305"/>
      <point x="2100" y="1305" type="curve" smooth="yes"/>
      <point x="2117" y="1305"/>
      <point x="2134" y="1313"/>
      <point x="2149" y="1328" type="curve" smooth="yes"/>
      <point x="2173" y="1352" type="line"/>
      <point x="2181" y="1359"/>
      <point x="2184" y="1359"/>
      <point x="2194" y="1352" type="curve"/>
      <point x="2444" y="1138"/>
      <point x="2588" y="818"/>
      <point x="2588" y="475" type="curve" smooth="yes"/>
      <point x="2588" y="135"/>
      <point x="2447" y="-175"/>
      <point x="2195" y="-388" type="curve"/>
      <point x="2176" y="-396"/>
      <point x="2177" y="-395"/>
      <point x="2149" y="-366" type="curve" smooth="yes"/>
      <point x="2133" y="-349"/>
      <point x="2117" y="-343"/>
      <point x="2100" y="-343" type="curve" smooth="yes"/>
      <point x="2086" y="-343"/>
      <point x="2068" y="-350"/>
      <point x="2057" y="-360" type="curve"/>
      <point x="1962" y="-436"/>
      <point x="1867" y="-473"/>
      <point x="1767" y="-473" type="curve" smooth="yes"/>
      <point x="1658" y="-473"/>
      <point x="1548" y="-429"/>
      <point x="1432" y="-339" type="curve"/>
      <point x="1425" y="-334"/>
      <point x="1415" y="-335"/>
      <point x="1410" y="-340" type="curve" smooth="yes"/>
      <point x="1307" y="-443"/>
      <point x="1186" y="-473"/>
      <point x="1078" y="-473" type="curve" smooth="yes"/>
      <point x="980" y="-473"/>
      <point x="883" y="-440"/>
      <point x="790" y="-361" type="curve" smooth="yes"/>
      <point x="777" y="-350"/>
      <point x="761" y="-343"/>
      <point x="745" y="-343" type="curve" smooth="yes"/>
      <point x="729" y="-343"/>
      <point x="713" y="-351"/>
      <point x="698" y="-366" type="curve" smooth="yes"/>
      <point x="675" y="-389" type="line" smooth="yes"/>
      <point x="666" y="-398"/>
      <point x="662" y="-398"/>
      <point x="652" y="-388" type="curve"/>
    </contour>
    <contour>
      <point x="1348" y="1405"/>
      <point x="1292" y="1464"/>
      <point x="1292" y="1539" type="curve"/>
      <point x="1292" y="1616"/>
      <point x="1350" y="1679"/>
      <point x="1421" y="1679" type="curve" smooth="yes"/>
      <point x="1492" y="1679"/>
      <point x="1554" y="1614"/>
      <point x="1554" y="1539" type="curve" smooth="yes"/>
      <point x="1554" y="1465"/>
      <point x="1494" y="1405"/>
      <point x="1421" y="1405" type="curve" smooth="yes"/>
    </contour>
  </outline>
</glyph>
<glyph name="asteriskArt-ar" format="1">
  <advance width="1337"/>
  <unicode hex="06DE"/>
  <outline>
    <contour>
      <point x="698" y="-155" type="line" smooth="yes"/>
      <point x="705" y="-155"/>
      <point x="709" y="-153"/>
      <point x="709" y="-152" type="curve"/>
      <point x="709" y="-87" type="line"/>
      <point x="709" y="-75"/>
      <point x="715" y="-67"/>
      <point x="725" y="-67" type="curve"/>
      <point x="1008" y="-41"/>
      <point x="1217" y="190"/>
      <point x="1217" y="475" type="curve"/>
      <point x="1217" y="760"/>
      <point x="1009" y="990"/>
      <point x="726" y="1015" type="curve"/>
      <point x="716" y="1015"/>
      <point x="709" y="1023"/>
      <point x="709" y="1036" type="curve" smooth="yes"/>
      <point x="709" y="1100" type="line" smooth="yes"/>
      <point x="709" y="1102"/>
      <point x="705" y="1104"/>
      <point x="698" y="1104" type="curve" smooth="yes"/>
      <point x="637" y="1104" type="line" smooth="yes"/>
      <point x="632" y="1104"/>
      <point x="628" y="1102"/>
      <point x="628" y="1100" type="curve" smooth="yes"/>
      <point x="628" y="1036" type="line" smooth="yes"/>
      <point x="628" y="1024"/>
      <point x="621" y="1015"/>
      <point x="611" y="1015" type="curve"/>
      <point x="329" y="990"/>
      <point x="120" y="759"/>
      <point x="120" y="475" type="curve" smooth="yes"/>
      <point x="120" y="191"/>
      <point x="329" y="-41"/>
      <point x="610" y="-67" type="curve"/>
      <point x="621" y="-69"/>
      <point x="628" y="-75"/>
      <point x="628" y="-87" type="curve" smooth="yes"/>
      <point x="628" y="-152" type="line" smooth="yes"/>
      <point x="628" y="-152"/>
      <point x="633" y="-155"/>
      <point x="637" y="-155" type="curve" smooth="yes"/>
    </contour>
    <contour>
      <point x="642" y="-26"/>
      <point x="623" y="-4"/>
      <point x="623" y="25" type="curve" smooth="yes"/>
      <point x="623" y="57"/>
      <point x="643" y="83"/>
      <point x="668" y="83" type="curve" smooth="yes"/>
      <point x="695" y="83"/>
      <point x="717" y="56"/>
      <point x="717" y="25" type="curve" smooth="yes"/>
      <point x="717" y="-4"/>
      <point x="696" y="-26"/>
      <point x="668" y="-26" type="curve" smooth="yes"/>
    </contour>
    <contour>
      <point x="237" y="205"/>
      <point x="183" y="330"/>
      <point x="183" y="475" type="curve" smooth="yes"/>
      <point x="183" y="630"/>
      <point x="238" y="760"/>
      <point x="339" y="843" type="curve"/>
      <point x="347" y="846"/>
      <point x="350" y="847"/>
      <point x="359" y="836" type="curve"/>
      <point x="370" y="823"/>
      <point x="388" y="821"/>
      <point x="403" y="832" type="curve"/>
      <point x="480" y="884"/>
      <point x="552" y="885"/>
      <point x="632" y="836" type="curve"/>
      <point x="635" y="835"/>
      <point x="639" y="827"/>
      <point x="639" y="820" type="curve" smooth="yes"/>
      <point x="639" y="525" type="line" smooth="yes"/>
      <point x="639" y="512"/>
      <point x="631" y="502"/>
      <point x="621" y="502" type="curve" smooth="yes"/>
      <point x="302" y="502" type="line" smooth="yes"/>
      <point x="290" y="502"/>
      <point x="281" y="494"/>
      <point x="281" y="484" type="curve" smooth="yes"/>
      <point x="281" y="466" type="line" smooth="yes"/>
      <point x="281" y="458"/>
      <point x="291" y="450"/>
      <point x="302" y="450" type="curve" smooth="yes"/>
      <point x="621" y="450" type="line" smooth="yes"/>
      <point x="631" y="450"/>
      <point x="639" y="440"/>
      <point x="639" y="427" type="curve" smooth="yes"/>
      <point x="639" y="129" type="line" smooth="yes"/>
      <point x="639" y="121"/>
      <point x="635" y="112"/>
      <point x="631" y="111" type="curve"/>
      <point x="554" y="63"/>
      <point x="485" y="69"/>
      <point x="403" y="122" type="curve" smooth="yes"/>
      <point x="389" y="131"/>
      <point x="373" y="131"/>
      <point x="360" y="118" type="curve" smooth="yes"/>
      <point x="350" y="108"/>
      <point x="345" y="108"/>
      <point x="338" y="115" type="curve"/>
    </contour>
    <contour>
      <point x="641" y="866"/>
      <point x="621" y="889"/>
      <point x="621" y="919" type="curve"/>
      <point x="621" y="949"/>
      <point x="643" y="975"/>
      <point x="668" y="975" type="curve" smooth="yes"/>
      <point x="694" y="975"/>
      <point x="717" y="948"/>
      <point x="717" y="919" type="curve" smooth="yes"/>
      <point x="717" y="890"/>
      <point x="695" y="866"/>
      <point x="668" y="866" type="curve" smooth="yes"/>
    </contour>
    <contour>
      <point x="991" y="108"/>
      <point x="986" y="109"/>
      <point x="976" y="119" type="curve" smooth="yes"/>
      <point x="966" y="129"/>
      <point x="949" y="130"/>
      <point x="934" y="121" type="curve"/>
      <point x="858" y="68"/>
      <point x="783" y="59"/>
      <point x="709" y="108" type="curve" smooth="yes"/>
      <point x="703" y="112"/>
      <point x="699" y="119"/>
      <point x="699" y="128" type="curve"/>
      <point x="699" y="427" type="line"/>
      <point x="699" y="440"/>
      <point x="706" y="450"/>
      <point x="716" y="450" type="curve" smooth="yes"/>
      <point x="1035" y="450" type="line" smooth="yes"/>
      <point x="1046" y="450"/>
      <point x="1057" y="458"/>
      <point x="1057" y="466" type="curve" smooth="yes"/>
      <point x="1057" y="484" type="line"/>
      <point x="1057" y="494"/>
      <point x="1047" y="502"/>
      <point x="1035" y="502" type="curve" smooth="yes"/>
      <point x="716" y="502" type="line" smooth="yes"/>
      <point x="706" y="502"/>
      <point x="699" y="512"/>
      <point x="699" y="525" type="curve" smooth="yes"/>
      <point x="699" y="821" type="line"/>
      <point x="699" y="828"/>
      <point x="701" y="835"/>
      <point x="707" y="840" type="curve"/>
      <point x="785" y="886"/>
      <point x="860" y="883"/>
      <point x="934" y="832" type="curve" smooth="yes"/>
      <point x="947" y="823"/>
      <point x="966" y="824"/>
      <point x="976" y="833" type="curve"/>
      <point x="986" y="843"/>
      <point x="989" y="844"/>
      <point x="997" y="841" type="curve"/>
      <point x="1097" y="753"/>
      <point x="1153" y="623"/>
      <point x="1153" y="475" type="curve" smooth="yes"/>
      <point x="1153" y="338"/>
      <point x="1094" y="211"/>
      <point x="999" y="116" type="curve" smooth="yes"/>
    </contour>
    <component base="period" xOffset="316" yOffset="628" xScale="0.438" yScale="0.438" xyScale="-0.085" yxScale="0.085"/>
    <component base="period" xOffset="728" yOffset="628" xScale="0.438" yScale="0.438" xyScale="-0.085" yxScale="0.085"/>
    <component base="period" xOffset="317" yOffset="292" xScale="0.438" yScale="0.438" xyScale="-0.085" yxScale="0.085"/>
    <component base="period" xOffset="727" yOffset="292" xScale="0.438" yScale="0.438" xyScale="-0.085" yxScale="0.085"/>
  </outline>
</glyph>
<glyph name="sajdah-ar" format="1">
  <advance width="907"/>
  <unicode hex="06E9"/>
  <outline>
    <contour>
      <point x="715" y="661" type="line" smooth="yes"/>
      <point x="760" y="661"/>
      <point x="787" y="688"/>
      <point x="787" y="735" type="curve"/>
      <point x="787" y="934"/>
      <point x="749" y="930"/>
      <point x="464" y="1145" type="curve"/>
      <point x="457" y="1149"/>
      <point x="446" y="1148"/>
      <point x="441" y="1143" type="curve"/>
      <point x="160" y="932"/>
      <point x="120" y="935"/>
      <point x="120" y="735" type="curve" smooth="yes"/>
      <point x="120" y="690"/>
      <point x="151" y="661"/>
      <point x="200" y="661" type="curve" smooth="yes"/>
    </contour>
    <contour>
      <point x="694" y="0" type="line" smooth="yes"/>
      <point x="703" y="0"/>
      <point x="711" y="6"/>
      <point x="711" y="11" type="curve"/>
      <point x="711" y="302" type="line"/>
      <point x="711" y="307"/>
      <point x="703" y="313"/>
      <point x="694" y="313" type="curve" smooth="yes"/>
      <point x="214" y="313" type="line" smooth="yes"/>
      <point x="204" y="313"/>
      <point x="196" y="308"/>
      <point x="196" y="302" type="curve" smooth="yes"/>
      <point x="196" y="11" type="line" smooth="yes"/>
      <point x="196" y="5"/>
      <point x="204" y="0"/>
      <point x="214" y="0" type="curve" smooth="yes"/>
    </contour>
    <contour>
      <point x="694" y="399" type="line" smooth="yes"/>
      <point x="703" y="399"/>
      <point x="711" y="405"/>
      <point x="711" y="410" type="curve"/>
      <point x="711" y="564" type="line"/>
      <point x="711" y="569"/>
      <point x="703" y="575"/>
      <point x="694" y="575" type="curve" smooth="yes"/>
      <point x="214" y="575" type="line" smooth="yes"/>
      <point x="204" y="575"/>
      <point x="196" y="570"/>
      <point x="196" y="564" type="curve" smooth="yes"/>
      <point x="196" y="410" type="line" smooth="yes"/>
      <point x="196" y="404"/>
      <point x="204" y="399"/>
      <point x="214" y="399" type="curve" smooth="yes"/>
    </contour>
  </outline>
</glyph>
<glyph name="four-persian" format="1">
  <advance width="1152"/>
  <unicode hex="06F4"/>
  <outline>
    <contour>
      <point x="448" y="1" type="curve"/>
      <point x="448" y="280"/>
      <point x="439" y="477"/>
      <point x="413" y="671" type="curve"/>
      <point x="466" y="649"/>
      <point x="541" y="637"/>
      <point x="626" y="637" type="curve" smooth="yes"/>
      <point x="767" y="637"/>
      <point x="918" y="666"/>
      <point x="989" y="690" type="curve" smooth="yes"/>
      <point x="998" y="693"/>
      <point x="1003" y="697"/>
      <point x="1004" y="704" type="curve" smooth="yes"/>
      <point x="1032" y="839" type="line"/>
      <point x="1033" y="847"/>
      <point x="1027" y="851"/>
      <point x="1015" y="848" type="curve" smooth="yes"/>
      <point x="915" y="823"/>
      <point x="760" y="803"/>
      <point x="659" y="805" type="curve" smooth="yes"/>
      <point x="599" y="806" type="line"/>
      <point x="539" y="889"/>
      <point x="513" y="1012"/>
      <point x="522" y="1118" type="curve"/>
      <point x="580" y="1147"/>
      <point x="639" y="1148"/>
      <point x="697" y="1148" type="curve" smooth="yes"/>
      <point x="758" y="1148"/>
      <point x="822" y="1143"/>
      <point x="892" y="1130" type="curve" smooth="yes"/>
      <point x="903" y="1128"/>
      <point x="910" y="1132"/>
      <point x="909" y="1141" type="curve" smooth="yes"/>
      <point x="893" y="1252" type="line" smooth="yes"/>
      <point x="892" y="1261"/>
      <point x="891" y="1262"/>
      <point x="878" y="1267" type="curve" smooth="yes"/>
      <point x="833" y="1284"/>
      <point x="769" y="1293"/>
      <point x="707" y="1293" type="curve" smooth="yes"/>
      <point x="510" y="1293"/>
      <point x="405" y="1206"/>
      <point x="405" y="1042" type="curve" smooth="yes"/>
      <point x="405" y="976"/>
      <point x="424" y="899"/>
      <point x="463" y="814" type="curve"/>
      <point x="380" y="882"/>
      <point x="316" y="1016"/>
      <point x="260" y="1171" type="curve"/>
      <point x="255" y="1181"/>
      <point x="241" y="1179"/>
      <point x="236" y="1172" type="curve" smooth="yes"/>
      <point x="120" y="1032" type="line"/>
      <point x="283" y="635"/>
      <point x="340" y="373"/>
      <point x="340" y="-21" type="curve" smooth="yes"/>
      <point x="340" y="-49"/>
      <point x="380" y="-25"/>
    </contour>
  </outline>
</glyph>
<glyph name="five-persian" format="1">
  <advance width="1017"/>
  <unicode hex="06F5"/>
  <outline>
    <contour>
      <point x="787" y="-32"/>
      <point x="897" y="144"/>
      <point x="897" y="310" type="curve" smooth="yes"/>
      <point x="897" y="568"/>
      <point x="676" y="795"/>
      <point x="416" y="1142" type="curve" smooth="yes"/>
      <point x="413" y="1146"/>
      <point x="403" y="1147"/>
      <point x="399" y="1137" type="curve"/>
      <point x="314" y="972" type="line"/>
      <point x="399" y="876" type="line"/>
      <point x="289" y="728"/>
      <point x="120" y="483"/>
      <point x="120" y="213" type="curve" smooth="yes"/>
      <point x="120" y="63"/>
      <point x="184" y="-25"/>
      <point x="291" y="-25" type="curve" smooth="yes"/>
      <point x="361" y="-25"/>
      <point x="425" y="22"/>
      <point x="468" y="104" type="curve"/>
      <point x="493" y="15"/>
      <point x="552" y="-32"/>
      <point x="639" y="-32" type="curve" smooth="yes"/>
    </contour>
    <contour>
      <point x="594" y="135"/>
      <point x="548" y="189"/>
      <point x="538" y="276" type="curve" smooth="yes"/>
      <point x="535" y="301"/>
      <point x="527" y="312"/>
      <point x="516" y="308" type="curve" smooth="yes"/>
      <point x="446" y="283"/>
      <point x="432" y="280"/>
      <point x="431" y="272" type="curve" smooth="yes"/>
      <point x="422" y="199"/>
      <point x="379" y="142"/>
      <point x="326" y="142" type="curve" smooth="yes"/>
      <point x="256" y="142"/>
      <point x="205" y="198"/>
      <point x="205" y="275" type="curve"/>
      <point x="205" y="446"/>
      <point x="390" y="718"/>
      <point x="468" y="799" type="curve"/>
      <point x="605" y="646"/>
      <point x="786" y="397"/>
      <point x="816" y="266" type="curve"/>
      <point x="791" y="196"/>
      <point x="718" y="135"/>
      <point x="660" y="135" type="curve" smooth="yes"/>
    </contour>
  </outline>
</glyph>
<glyph name="six-persian" format="1">
  <advance width="1134"/>
  <unicode hex="06F6"/>
  <outline>
    <contour>
      <point x="262" y="-23"/>
      <point x="266" y="-22"/>
      <point x="275" y="-11" type="curve" smooth="yes"/>
      <point x="454" y="260"/>
      <point x="639" y="575"/>
      <point x="998" y="886" type="curve" smooth="yes"/>
      <point x="1011" y="897"/>
      <point x="1015" y="903"/>
      <point x="1014" y="909" type="curve" smooth="yes"/>
      <point x="997" y="1069" type="line" smooth="yes"/>
      <point x="995" y="1081"/>
      <point x="980" y="1078"/>
      <point x="975" y="1074" type="curve" smooth="yes"/>
      <point x="939" y="1046"/>
      <point x="821" y="933"/>
      <point x="576" y="674" type="curve"/>
      <point x="380" y="753"/>
      <point x="260" y="854"/>
      <point x="229" y="961" type="curve"/>
      <point x="283" y="1083"/>
      <point x="409" y="1155"/>
      <point x="569" y="1155" type="curve" smooth="yes"/>
      <point x="603" y="1155"/>
      <point x="634" y="1152"/>
      <point x="664" y="1147" type="curve" smooth="yes"/>
      <point x="675" y="1145"/>
      <point x="683" y="1149"/>
      <point x="683" y="1156" type="curve" smooth="yes"/>
      <point x="689" y="1255" type="line" smooth="yes"/>
      <point x="689" y="1261"/>
      <point x="687" y="1265"/>
      <point x="675" y="1269" type="curve" smooth="yes"/>
      <point x="618" y="1287"/>
      <point x="562" y="1296"/>
      <point x="507" y="1296" type="curve" smooth="yes"/>
      <point x="290" y="1296"/>
      <point x="120" y="1124"/>
      <point x="120" y="906" type="curve" smooth="yes"/>
      <point x="120" y="739"/>
      <point x="315" y="606"/>
      <point x="470" y="553" type="curve"/>
      <point x="356" y="388"/>
      <point x="262" y="211"/>
      <point x="182" y="75" type="curve"/>
      <point x="253" y="-16" type="line"/>
    </contour>
  </outline>
</glyph>
<glyph name="hyphentwo" format="1">
  <advance width="865"/>
  <unicode hex="2010"/>
  <outline>
    <contour>
      <point x="728" y="408" type="line" smooth="yes"/>
      <point x="738" y="408"/>
      <point x="745" y="413"/>
      <point x="745" y="420" type="curve" smooth="yes"/>
      <point x="745" y="530" type="line" smooth="yes"/>
      <point x="745" y="537"/>
      <point x="739" y="541"/>
      <point x="728" y="541" type="curve" smooth="yes"/>
      <point x="137" y="541" type="line" smooth="yes"/>
      <point x="128" y="541"/>
      <point x="120" y="536"/>
      <point x="120" y="530" type="curve" smooth="yes"/>
      <point x="120" y="420" type="line" smooth="yes"/>
      <point x="120" y="413"/>
      <point x="127" y="408"/>
      <point x="137" y="408" type="curve" smooth="yes"/>
    </contour>
  </outline>
</glyph>
<glyph name="bullet" format="1">
  <advance width="961"/>
  <unicode hex="2022"/>
  <outline>
    <contour>
      <point x="680" y="120"/>
      <point x="841" y="279"/>
      <point x="841" y="476" type="curve" smooth="yes"/>
      <point x="841" y="671"/>
      <point x="679" y="830"/>
      <point x="481" y="830" type="curve" smooth="yes"/>
      <point x="282" y="830"/>
      <point x="120" y="671"/>
      <point x="120" y="476" type="curve" smooth="yes"/>
      <point x="120" y="279"/>
      <point x="281" y="120"/>
      <point x="481" y="120" type="curve" smooth="yes"/>
    </contour>
  </outline>
</glyph>
<glyph name="minus" format="1">
  <advance width="1228"/>
  <unicode hex="2212"/>
  <outline>
    <contour>
      <point x="1108" y="402" type="line"/>
      <point x="1108" y="547" type="line"/>
      <point x="120" y="547" type="line"/>
      <point x="120" y="402" type="line"/>
    </contour>
  </outline>
</glyph>
<glyph name="dottedCircle" format="1">
  <advance width="1039"/>
  <unicode hex="25CC"/>
  <outline>
    <contour>
      <point x="632" y="643"/>
      <point x="663" y="618"/>
      <point x="694" y="618" type="curve" smooth="yes"/>
      <point x="720" y="618"/>
      <point x="751" y="651"/>
      <point x="751" y="678" type="curve" smooth="yes"/>
      <point x="751" y="701"/>
      <point x="719" y="727"/>
      <point x="689" y="727" type="curve" smooth="yes"/>
      <point x="661" y="727"/>
      <point x="632" y="696"/>
      <point x="632" y="667" type="curve" smooth="yes"/>
    </contour>
    <contour>
      <point x="291" y="52"/>
      <point x="322" y="27"/>
      <point x="351" y="27" type="curve" smooth="yes"/>
      <point x="380" y="27"/>
      <point x="407" y="57"/>
      <point x="407" y="88" type="curve" smooth="yes"/>
      <point x="407" y="109"/>
      <point x="376" y="134"/>
      <point x="348" y="134" type="curve" smooth="yes"/>
      <point x="320" y="134"/>
      <point x="291" y="103"/>
      <point x="291" y="74" type="curve" smooth="yes"/>
    </contour>
    <contour>
      <point x="250" y="153"/>
      <point x="285" y="180"/>
      <point x="285" y="204" type="curve"/>
      <point x="285" y="231"/>
      <point x="256" y="259"/>
      <point x="229" y="259" type="curve" smooth="yes"/>
      <point x="199" y="259"/>
      <point x="164" y="232"/>
      <point x="164" y="209" type="curve" smooth="yes"/>
      <point x="164" y="180"/>
      <point x="191" y="153"/>
      <point x="219" y="153" type="curve" smooth="yes"/>
    </contour>
    <contour>
      <point x="557" y="-16"/>
      <point x="577" y="1"/>
      <point x="577" y="33" type="curve" smooth="yes"/>
      <point x="577" y="64"/>
      <point x="555" y="83"/>
      <point x="519" y="83" type="curve" smooth="yes"/>
      <point x="481" y="83"/>
      <point x="461" y="66"/>
      <point x="461" y="33" type="curve" smooth="yes"/>
      <point x="461" y="1"/>
      <point x="481" y="-16"/>
      <point x="519" y="-16" type="curve" smooth="yes"/>
    </contour>
    <contour>
      <point x="217" y="326"/>
      <point x="237" y="343"/>
      <point x="237" y="377" type="curve"/>
      <point x="237" y="407"/>
      <point x="215" y="426"/>
      <point x="178" y="426" type="curve" smooth="yes"/>
      <point x="140" y="426"/>
      <point x="120" y="409"/>
      <point x="120" y="377" type="curve" smooth="yes"/>
      <point x="120" y="343"/>
      <point x="139" y="326"/>
      <point x="178" y="326" type="curve" smooth="yes"/>
    </contour>
    <contour>
      <point x="162" y="518"/>
      <point x="192" y="494"/>
      <point x="223" y="494" type="curve" smooth="yes"/>
      <point x="251" y="494"/>
      <point x="280" y="525"/>
      <point x="280" y="554" type="curve"/>
      <point x="280" y="577"/>
      <point x="249" y="602"/>
      <point x="220" y="602" type="curve" smooth="yes"/>
      <point x="192" y="602"/>
      <point x="162" y="571"/>
      <point x="162" y="542" type="curve" smooth="yes"/>
    </contour>
    <contour>
      <point x="716" y="26"/>
      <point x="751" y="53"/>
      <point x="751" y="76" type="curve" smooth="yes"/>
      <point x="751" y="103"/>
      <point x="723" y="132"/>
      <point x="697" y="132" type="curve" smooth="yes"/>
      <point x="667" y="132"/>
      <point x="632" y="105"/>
      <point x="632" y="82" type="curve" smooth="yes"/>
      <point x="632" y="53"/>
      <point x="657" y="26"/>
      <point x="685" y="26" type="curve" smooth="yes"/>
    </contour>
    <contour>
      <point x="758" y="176"/>
      <point x="791" y="151"/>
      <point x="820" y="151" type="curve" smooth="yes"/>
      <point x="847" y="151"/>
      <point x="876" y="182"/>
      <point x="876" y="211" type="curve"/>
      <point x="876" y="234"/>
      <point x="844" y="258"/>
      <point x="815" y="258" type="curve" smooth="yes"/>
      <point x="787" y="258"/>
      <point x="758" y="227"/>
      <point x="758" y="198" type="curve" smooth="yes"/>
    </contour>
    <contour>
      <point x="370" y="622"/>
      <point x="407" y="650"/>
      <point x="407" y="672" type="curve"/>
      <point x="407" y="698"/>
      <point x="378" y="727"/>
      <point x="351" y="727" type="curve" smooth="yes"/>
      <point x="320" y="727"/>
      <point x="287" y="701"/>
      <point x="287" y="676" type="curve" smooth="yes"/>
      <point x="287" y="649"/>
      <point x="314" y="622"/>
      <point x="341" y="622" type="curve" smooth="yes"/>
    </contour>
    <contour>
      <point x="900" y="326"/>
      <point x="919" y="343"/>
      <point x="919" y="377" type="curve"/>
      <point x="919" y="408"/>
      <point x="898" y="426"/>
      <point x="862" y="426" type="curve" smooth="yes"/>
      <point x="824" y="426"/>
      <point x="804" y="409"/>
      <point x="804" y="377" type="curve" smooth="yes"/>
      <point x="804" y="343"/>
      <point x="823" y="326"/>
      <point x="862" y="326" type="curve" smooth="yes"/>
    </contour>
    <contour>
      <point x="557" y="671"/>
      <point x="577" y="688"/>
      <point x="577" y="721" type="curve"/>
      <point x="577" y="752"/>
      <point x="555" y="771"/>
      <point x="519" y="771" type="curve" smooth="yes"/>
      <point x="481" y="771"/>
      <point x="461" y="754"/>
      <point x="461" y="721" type="curve" smooth="yes"/>
      <point x="461" y="688"/>
      <point x="481" y="671"/>
      <point x="519" y="671" type="curve" smooth="yes"/>
    </contour>
    <contour>
      <point x="842" y="495"/>
      <point x="876" y="521"/>
      <point x="876" y="545" type="curve"/>
      <point x="876" y="573"/>
      <point x="850" y="599"/>
      <point x="822" y="599" type="curve" smooth="yes"/>
      <point x="790" y="599"/>
      <point x="757" y="574"/>
      <point x="757" y="550" type="curve" smooth="yes"/>
      <point x="757" y="522"/>
      <point x="783" y="495"/>
      <point x="810" y="495" type="curve" smooth="yes"/>
    </contour>
  </outline>
</glyph>
<glyph name="whiteStar.circled" format="1">
  <advance width="962"/>
  <unicode hex="272A"/>
  <outline>
    <contour>
      <point x="680" y="128"/>
      <point x="842" y="283"/>
      <point x="842" y="474" type="curve" smooth="yes"/>
      <point x="842" y="665"/>
      <point x="679" y="822"/>
      <point x="481" y="822" type="curve" smooth="yes"/>
      <point x="283" y="822"/>
      <point x="120" y="665"/>
      <point x="120" y="474" type="curve" smooth="yes"/>
      <point x="120" y="283"/>
      <point x="282" y="128"/>
      <point x="481" y="128" type="curve" smooth="yes"/>
    </contour>
    <contour>
      <point x="296" y="213" type="line"/>
      <point x="372" y="422" type="line"/>
      <point x="175" y="543" type="line"/>
      <point x="190" y="576" type="line"/>
      <point x="419" y="569" type="line"/>
      <point x="473" y="784" type="line"/>
      <point x="495" y="784" type="line"/>
      <point x="562" y="569" type="line"/>
      <point x="782" y="580" type="line"/>
      <point x="790" y="541" type="line"/>
      <point x="606" y="423" type="line"/>
      <point x="685" y="225" type="line"/>
      <point x="662" y="205" type="line"/>
      <point x="488" y="337" type="line"/>
      <point x="319" y="197" type="line"/>
    </contour>
  </outline>
</glyph>
<glyph name="peh-ar.fina" format="1">
  <advance width="1931"/>
  <unicode hex="FB57"/>
  <outline>
    <component base="behDotless-ar.fina"/>
    <component base="threedotsdownbelow-ar" xOffset="524" yOffset="-47"/>
    <contour>
      <point x="877" y="780" type="move" name="top"/>
    </contour>
  </outline>
</glyph>
<glyph name="veh-ar.medi" format="1">
  <advance width="1003"/>
  <unicode hex="FB6D"/>
  <outline>
    <component base="fehDotless-ar.medi"/>
    <component base="threedotsupabove-ar" xOffset="262" yOffset="545"/>
    <contour>
      <point x="372" y="-190" type="move" name="bottom"/>
    </contour>
  </outline>
</glyph>
<glyph name="tcheh-ar.init" format="1">
  <advance width="1602"/>
  <unicode hex="FB7C"/>
  <outline>
    <component base="hah-ar.init"/>
    <component base="threedotsdownbelow-ar" xOffset="278" yOffset="112"/>
    <contour>
      <point x="507" y="950" type="move" name="top"/>
    </contour>
  </outline>
</glyph>
<glyph name="tcheh-ar.medi" format="1">
  <advance width="1544"/>
  <unicode hex="FB7D"/>
  <outline>
    <component base="hah-ar.medi"/>
    <component base="threedotsdownbelow-ar" xOffset="414" yOffset="-49"/>
    <contour>
      <point x="504" y="980" type="move" name="top"/>
    </contour>
  </outline>
</glyph>
<glyph name="dul-ar.fina" format="1">
  <advance width="1275"/>
  <unicode hex="FB87"/>
  <outline>
    <component base="dal-ar.fina"/>
    <component base="threedotsupabove-ar" xOffset="577" yOffset="520"/>
    <contour>
      <point x="535" y="-230" type="move" name="bottom"/>
    </contour>
  </outline>
</glyph>
<glyph name="keheh-ar.fina" format="1">
  <advance width="1820"/>
  <unicode hex="FB8F"/>
  <outline>
    <contour>
      <point x="1783" y="161" type="line" smooth="yes"/>
      <point x="1662" y="161"/>
      <point x="1606" y="199"/>
      <point x="1543" y="322" type="curve" smooth="yes"/>
      <point x="1417" y="569"/>
      <point x="1330" y="820"/>
      <point x="981" y="1026" type="curve"/>
      <point x="976" y="1031"/>
      <point x="975" y="1038"/>
      <point x="989" y="1043" type="curve"/>
      <point x="1707" y="1270" type="line" smooth="yes"/>
      <point x="1719" y="1274"/>
      <point x="1724" y="1277"/>
      <point x="1726" y="1293" type="curve" smooth="yes"/>
      <point x="1741" y="1423" type="line" smooth="yes"/>
      <point x="1742" y="1430"/>
      <point x="1738" y="1434"/>
      <point x="1729" y="1434" type="curve"/>
      <point x="970" y="1177" type="line"/>
      <point x="860" y="920" type="line"/>
      <point x="1121" y="779"/>
      <point x="1309" y="541"/>
      <point x="1437" y="222" type="curve"/>
      <point x="1313" y="179"/>
      <point x="1073" y="123"/>
      <point x="770" y="123" type="curve" smooth="yes"/>
      <point x="448" y="123"/>
      <point x="281" y="218"/>
      <point x="281" y="403" type="curve" smooth="yes"/>
      <point x="281" y="412"/>
      <point x="282" y="422"/>
      <point x="296" y="572" type="curve"/>
      <point x="297" y="579"/>
      <point x="291" y="583"/>
      <point x="280" y="584" type="curve" smooth="yes"/>
      <point x="220" y="589" type="line" smooth="yes"/>
      <point x="209" y="590"/>
      <point x="201" y="585"/>
      <point x="200" y="578" type="curve" smooth="yes"/>
      <point x="177" y="414"/>
      <point x="180" y="391"/>
      <point x="180" y="344" type="curve" smooth="yes"/>
      <point x="180" y="74"/>
      <point x="336" y="-39"/>
      <point x="709" y="-39" type="curve" smooth="yes"/>
      <point x="994" y="-39"/>
      <point x="1279" y="22"/>
      <point x="1422" y="83" type="curve" smooth="yes"/>
      <point x="1443" y="92"/>
      <point x="1455" y="109"/>
      <point x="1500" y="198" type="curve"/>
      <point x="1586" y="66"/>
      <point x="1680" y="0"/>
      <point x="1783" y="0" type="curve" smooth="yes"/>
      <point x="1840" y="0" type="line"/>
      <point x="1862" y="28"/>
      <point x="1872" y="53"/>
      <point x="1872" y="81" type="curve" smooth="yes"/>
      <point x="1872" y="109"/>
      <point x="1862" y="133"/>
      <point x="1840" y="161" type="curve"/>
    </contour>
    <contour>
      <point x="563" y="1067" type="move" name="top"/>
    </contour>
    <contour>
      <point x="708" y="-242" type="move" name="bottom"/>
    </contour>
    <contour>
      <point x="1586" y="1069" type="move" name="ring"/>
    </contour>
  </outline>
</glyph>
<glyph name="gaf-ar.fina" format="1">
  <advance width="1821"/>
  <unicode hex="FB93"/>
  <outline>
    <contour>
      <point x="1556" y="1599" type="line" smooth="yes"/>
      <point x="1558" y="1606"/>
      <point x="1555" y="1611"/>
      <point x="1545" y="1609" type="curve"/>
      <point x="1124" y="1475" type="line" smooth="yes"/>
      <point x="1114" y="1472"/>
      <point x="1110" y="1469"/>
      <point x="1107" y="1463" type="curve"/>
      <point x="1079" y="1373" type="line"/>
      <point x="1520" y="1512" type="line"/>
      <point x="1531" y="1516"/>
      <point x="1535" y="1520"/>
      <point x="1537" y="1526" type="curve"/>
    </contour>
    <contour>
      <point x="1784" y="161" type="line" smooth="yes"/>
      <point x="1663" y="161"/>
      <point x="1607" y="199"/>
      <point x="1544" y="322" type="curve" smooth="yes"/>
      <point x="1421" y="560"/>
      <point x="1336" y="807"/>
      <point x="1017" y="1007" type="curve" smooth="yes"/>
      <point x="1003" y="1016"/>
      <point x="1008" y="1031"/>
      <point x="1019" y="1034" type="curve"/>
      <point x="1648" y="1235" type="line"/>
      <point x="1681" y="1388" type="line"/>
      <point x="1682" y="1396"/>
      <point x="1679" y="1401"/>
      <point x="1670" y="1398" type="curve" smooth="yes"/>
      <point x="1006" y="1176" type="line"/>
      <point x="882" y="907" type="line"/>
      <point x="1132" y="772"/>
      <point x="1392" y="462"/>
      <point x="1431" y="242" type="curve"/>
      <point x="1318" y="197"/>
      <point x="1058" y="123"/>
      <point x="764" y="123" type="curve" smooth="yes"/>
      <point x="449" y="123"/>
      <point x="281" y="220"/>
      <point x="281" y="404" type="curve" smooth="yes"/>
      <point x="281" y="411"/>
      <point x="280" y="434"/>
      <point x="296" y="572" type="curve" smooth="yes"/>
      <point x="297" y="578"/>
      <point x="291" y="582"/>
      <point x="280" y="583" type="curve" smooth="yes"/>
      <point x="220" y="588" type="line" smooth="yes"/>
      <point x="209" y="589"/>
      <point x="201" y="584"/>
      <point x="200" y="577" type="curve" smooth="yes"/>
      <point x="182" y="413"/>
      <point x="180" y="392"/>
      <point x="180" y="345" type="curve" smooth="yes"/>
      <point x="180" y="77"/>
      <point x="337" y="-38"/>
      <point x="704" y="-38" type="curve" smooth="yes"/>
      <point x="1030" y="-38"/>
      <point x="1340" y="59"/>
      <point x="1471" y="117" type="curve"/>
      <point x="1480" y="122"/>
      <point x="1493" y="155"/>
      <point x="1503" y="197" type="curve"/>
      <point x="1590" y="66"/>
      <point x="1676" y="0"/>
      <point x="1784" y="0" type="curve" smooth="yes"/>
      <point x="1841" y="0" type="line"/>
      <point x="1863" y="28"/>
      <point x="1873" y="53"/>
      <point x="1873" y="81" type="curve" smooth="yes"/>
      <point x="1873" y="109"/>
      <point x="1863" y="133"/>
      <point x="1841" y="161" type="curve"/>
    </contour>
    <contour>
      <point x="570" y="1068" type="move" name="top"/>
    </contour>
    <contour>
      <point x="708" y="-238" type="move" name="bottom"/>
    </contour>
  </outline>
</glyph>
<glyph name="gaf-ar.init" format="1">
  <advance width="820"/>
  <unicode hex="FB94"/>
  <outline>
    <contour>
      <point x="701" y="1599" type="line" smooth="yes"/>
      <point x="703" y="1606"/>
      <point x="700" y="1611"/>
      <point x="690" y="1609" type="curve"/>
      <point x="265" y="1471" type="line" smooth="yes"/>
      <point x="255" y="1468"/>
      <point x="251" y="1465"/>
      <point x="248" y="1459" type="curve"/>
      <point x="220" y="1369" type="line"/>
      <point x="665" y="1512" type="line"/>
      <point x="676" y="1516"/>
      <point x="680" y="1520"/>
      <point x="682" y="1526" type="curve"/>
    </contour>
    <contour>
      <point x="167" y="1164" type="line"/>
      <point x="48" y="915" type="line"/>
      <point x="429" y="720"/>
      <point x="569" y="434"/>
      <point x="594" y="282" type="curve"/>
      <point x="597" y="270"/>
      <point x="592" y="257"/>
      <point x="584" y="254" type="curve"/>
      <point x="438" y="173"/>
      <point x="257" y="161"/>
      <point x="44" y="161" type="curve" smooth="yes"/>
      <point x="-20" y="161" type="line" smooth="yes"/>
      <point x="-71" y="161"/>
      <point x="-105" y="129"/>
      <point x="-105" y="81" type="curve" smooth="yes"/>
      <point x="-105" y="33"/>
      <point x="-71" y="0"/>
      <point x="-20" y="0" type="curve" smooth="yes"/>
      <point x="44" y="0" type="line" smooth="yes"/>
      <point x="458" y="0"/>
      <point x="680" y="108"/>
      <point x="680" y="309" type="curve" smooth="yes"/>
      <point x="680" y="595"/>
      <point x="448" y="877"/>
      <point x="183" y="1012" type="curve"/>
      <point x="174" y="1022"/>
      <point x="174" y="1022"/>
      <point x="186" y="1030" type="curve"/>
      <point x="794" y="1235" type="line" smooth="yes"/>
      <point x="806" y="1239"/>
      <point x="811" y="1242"/>
      <point x="813" y="1258" type="curve" smooth="yes"/>
      <point x="828" y="1388" type="line" smooth="yes"/>
      <point x="829" y="1395"/>
      <point x="825" y="1399"/>
      <point x="816" y="1399" type="curve"/>
    </contour>
    <contour>
      <point x="476" y="1744" type="move" name="top"/>
    </contour>
    <contour>
      <point x="312" y="-196" type="move" name="bottom"/>
    </contour>
  </outline>
</glyph>
<glyph name="noonghunna-ar.fina" format="1">
  <advance width="1615"/>
  <unicode hex="FB9F"/>
  <outline>
    <contour>
      <point x="1570" y="161" type="line" smooth="yes"/>
      <point x="1368" y="161"/>
      <point x="1289" y="178"/>
      <point x="1274" y="317" type="curve" smooth="yes"/>
      <point x="1258" y="465" type="line" smooth="yes"/>
      <point x="1257" y="476"/>
      <point x="1243" y="482"/>
      <point x="1234" y="475" type="curve" smooth="yes"/>
      <point x="1114" y="387" type="line"/>
      <point x="1202" y="-178" type="line"/>
      <point x="1203" y="-187"/>
      <point x="1198" y="-194"/>
      <point x="1194" y="-196" type="curve" smooth="yes"/>
      <point x="1114" y="-236"/>
      <point x="907" y="-328"/>
      <point x="610" y="-328" type="curve" smooth="yes"/>
      <point x="405" y="-328"/>
      <point x="297" y="-236"/>
      <point x="297" y="-60" type="curve" smooth="yes"/>
      <point x="297" y="-1"/>
      <point x="304" y="31"/>
      <point x="343" y="215" type="curve"/>
      <point x="344" y="221"/>
      <point x="339" y="225"/>
      <point x="326" y="227" type="curve" smooth="yes"/>
      <point x="256" y="238" type="line" smooth="yes"/>
      <point x="248" y="239"/>
      <point x="237" y="234"/>
      <point x="236" y="229" type="curve" smooth="yes"/>
      <point x="187" y="-14"/>
      <point x="180" y="-47"/>
      <point x="180" y="-133" type="curve" smooth="yes"/>
      <point x="180" y="-379"/>
      <point x="320" y="-510"/>
      <point x="584" y="-510" type="curve" smooth="yes"/>
      <point x="867" y="-510"/>
      <point x="1321" y="-378"/>
      <point x="1321" y="-134" type="curve" smooth="yes"/>
      <point x="1321" y="-91"/>
      <point x="1315" y="-31"/>
      <point x="1307" y="59" type="curve"/>
      <point x="1355" y="17"/>
      <point x="1426" y="0"/>
      <point x="1570" y="0" type="curve" smooth="yes"/>
      <point x="1635" y="0" type="line"/>
      <point x="1657" y="28"/>
      <point x="1667" y="53"/>
      <point x="1667" y="81" type="curve" smooth="yes"/>
      <point x="1667" y="109"/>
      <point x="1657" y="133"/>
      <point x="1635" y="161" type="curve"/>
    </contour>
    <contour>
      <point x="715" y="510" type="move" name="top"/>
    </contour>
    <contour>
      <point x="681" y="-710" type="move" name="bottom"/>
    </contour>
    <contour>
      <point x="296" y="-415" type="move" name="ring"/>
    </contour>
  </outline>
</glyph>
<glyph name="hehgoal-ar.fina" format="1">
  <advance width="1206"/>
  <unicode hex="FBA7"/>
  <outline>
    <contour>
      <point x="1161" y="161" type="line" smooth="yes"/>
      <point x="1044" y="161"/>
      <point x="959" y="210"/>
      <point x="878" y="261" type="curve" smooth="yes"/>
      <point x="790" y="316"/>
      <point x="713" y="382"/>
      <point x="646" y="382" type="curve" smooth="yes"/>
      <point x="547" y="382"/>
      <point x="422" y="274"/>
      <point x="184" y="-24" type="curve" smooth="yes"/>
      <point x="180" y="-29"/>
      <point x="177" y="-39"/>
      <point x="184" y="-45" type="curve" smooth="yes"/>
      <point x="232" y="-85" type="line"/>
      <point x="237" y="-90"/>
      <point x="247" y="-84"/>
      <point x="249" y="-81" type="curve" smooth="yes"/>
      <point x="410" y="161"/>
      <point x="558" y="245"/>
      <point x="589" y="245" type="curve" smooth="yes"/>
      <point x="670" y="245"/>
      <point x="876" y="0"/>
      <point x="1107" y="0" type="curve" smooth="yes"/>
      <point x="1226" y="0" type="line"/>
      <point x="1248" y="28"/>
      <point x="1258" y="53"/>
      <point x="1258" y="81" type="curve" smooth="yes"/>
      <point x="1258" y="109"/>
      <point x="1248" y="133"/>
      <point x="1226" y="161" type="curve"/>
    </contour>
    <contour>
      <point x="651" y="582" type="move" name="top"/>
    </contour>
    <contour>
      <point x="599" y="-184" type="move" name="bottom"/>
    </contour>
  </outline>
</glyph>
<glyph name="hehgoal-ar.medi" format="1">
  <advance width="1212"/>
  <unicode hex="FBA9"/>
  <outline>
    <contour>
      <point x="1192" y="161" type="line" smooth="yes"/>
      <point x="781" y="161"/>
      <point x="623" y="70"/>
      <point x="643" y="-325" type="curve"/>
      <point x="638" y="-327" type="line"/>
      <point x="567" y="-161"/>
      <point x="533" y="12"/>
      <point x="533" y="199" type="curve" smooth="yes"/>
      <point x="533" y="242"/>
      <point x="524" y="278"/>
      <point x="554" y="517" type="curve" smooth="yes"/>
      <point x="555" y="525"/>
      <point x="547" y="529"/>
      <point x="536" y="528" type="curve" smooth="yes"/>
      <point x="472" y="520" type="line"/>
      <point x="460" y="518"/>
      <point x="456" y="515"/>
      <point x="455" y="508" type="curve" smooth="yes"/>
      <point x="435" y="333" type="line" smooth="yes"/>
      <point x="415" y="157"/>
      <point x="175" y="161"/>
      <point x="49" y="161" type="curve" smooth="yes"/>
      <point x="-20" y="161" type="line" smooth="yes"/>
      <point x="-71" y="161"/>
      <point x="-105" y="129"/>
      <point x="-105" y="81" type="curve" smooth="yes"/>
      <point x="-105" y="33"/>
      <point x="-71" y="0"/>
      <point x="-20" y="0" type="curve" smooth="yes"/>
      <point x="42" y="0" type="line" smooth="yes"/>
      <point x="162" y="0"/>
      <point x="313" y="13"/>
      <point x="421" y="110" type="curve"/>
      <point x="397" y="-220"/>
      <point x="602" y="-502"/>
      <point x="687" y="-635" type="curve"/>
      <point x="691" y="-640"/>
      <point x="701" y="-641"/>
      <point x="706" y="-637" type="curve"/>
      <point x="846" y="-436" type="line"/>
      <point x="764" y="-300"/>
      <point x="731" y="-219"/>
      <point x="720" y="-100" type="curve"/>
      <point x="720" y="-87"/>
      <point x="722" y="-81"/>
      <point x="729" y="-76" type="curve"/>
      <point x="846" y="-25"/>
      <point x="963" y="0"/>
      <point x="1192" y="0" type="curve" smooth="yes"/>
      <point x="1232" y="0" type="line"/>
      <point x="1254" y="28"/>
      <point x="1264" y="53"/>
      <point x="1264" y="81" type="curve" smooth="yes"/>
      <point x="1264" y="109"/>
      <point x="1254" y="133"/>
      <point x="1232" y="161" type="curve"/>
    </contour>
    <contour>
      <point x="502" y="722" type="move" name="top"/>
    </contour>
    <contour>
      <point x="701" y="-829" type="move" name="bottom"/>
    </contour>
  </outline>
</glyph>
<glyph name="hehDoachashmee-ar.fina" format="1">
  <advance width="1501"/>
  <unicode hex="FBAB"/>
  <outline>
    <contour>
      <point x="1388" y="161" type="line" smooth="yes"/>
      <point x="1296" y="161"/>
      <point x="1256" y="164"/>
      <point x="1156" y="182" type="curve"/>
      <point x="1182" y="218"/>
      <point x="1201" y="254"/>
      <point x="1201" y="306" type="curve" smooth="yes"/>
      <point x="1201" y="512"/>
      <point x="1058" y="712"/>
      <point x="667" y="1054" type="curve"/>
      <point x="658" y="1061"/>
      <point x="647" y="1061"/>
      <point x="642" y="1053" type="curve"/>
      <point x="563" y="903" type="line"/>
      <point x="557" y="893"/>
      <point x="554" y="889"/>
      <point x="547" y="886" type="curve" smooth="yes"/>
      <point x="365" y="808"/>
      <point x="180" y="548"/>
      <point x="180" y="357" type="curve" smooth="yes"/>
      <point x="180" y="244"/>
      <point x="251" y="157"/>
      <point x="380" y="115" type="curve"/>
      <point x="397" y="111"/>
      <point x="400" y="109"/>
      <point x="384" y="93" type="curve"/>
      <point x="188" y="-153" type="line"/>
      <point x="188" y="-161"/>
      <point x="250" y="-177"/>
      <point x="288" y="-177" type="curve" smooth="yes"/>
      <point x="348" y="-177"/>
      <point x="391" y="-145"/>
      <point x="452" y="-57" type="curve" smooth="yes"/>
      <point x="571" y="115" type="line"/>
      <point x="965" y="33"/>
      <point x="1095" y="0"/>
      <point x="1479" y="0" type="curve" smooth="yes"/>
      <point x="1521" y="0" type="line"/>
      <point x="1543" y="28"/>
      <point x="1553" y="53"/>
      <point x="1553" y="81" type="curve" smooth="yes"/>
      <point x="1553" y="109"/>
      <point x="1543" y="133"/>
      <point x="1521" y="161" type="curve"/>
    </contour>
    <contour>
      <point x="360" y="298"/>
      <point x="287" y="360"/>
      <point x="287" y="454" type="curve" smooth="yes"/>
      <point x="287" y="613"/>
      <point x="434" y="725"/>
      <point x="557" y="725" type="curve" smooth="yes"/>
      <point x="623" y="725"/>
      <point x="678" y="693"/>
      <point x="712" y="634" type="curve"/>
      <point x="506" y="267" type="line"/>
    </contour>
    <contour>
      <point x="700" y="271" type="line" smooth="yes"/>
      <point x="691" y="273"/>
      <point x="686" y="283"/>
      <point x="687" y="295" type="curve"/>
      <point x="830" y="659" type="line"/>
      <point x="942" y="549"/>
      <point x="1099" y="353"/>
      <point x="1105" y="215" type="curve"/>
      <point x="1105" y="201"/>
      <point x="1099" y="193"/>
      <point x="1088" y="195" type="curve" smooth="yes"/>
    </contour>
    <contour>
      <point x="651" y="1256" type="move" name="top"/>
    </contour>
    <contour>
      <point x="677" y="-322" type="move" name="bottom"/>
    </contour>
  </outline>
</glyph>
<glyph name="hehDoachashmee-ar.medi" format="1">
  <advance width="1503"/>
  <unicode hex="FBAD"/>
  <outline>
    <contour>
      <point x="1390" y="161" type="line" smooth="yes"/>
      <point x="1298" y="161"/>
      <point x="1265" y="157"/>
      <point x="1186" y="162" type="curve"/>
      <point x="1195" y="194"/>
      <point x="1203" y="254"/>
      <point x="1203" y="306" type="curve" smooth="yes"/>
      <point x="1203" y="512"/>
      <point x="1060" y="712"/>
      <point x="669" y="1054" type="curve"/>
      <point x="660" y="1061"/>
      <point x="649" y="1061"/>
      <point x="644" y="1053" type="curve"/>
      <point x="565" y="903" type="line"/>
      <point x="559" y="893"/>
      <point x="556" y="889"/>
      <point x="549" y="886" type="curve" smooth="yes"/>
      <point x="276" y="769"/>
      <point x="44" y="325"/>
      <point x="290" y="181" type="curve"/>
      <point x="233" y="168"/>
      <point x="93" y="161"/>
      <point x="44" y="161" type="curve" smooth="yes"/>
      <point x="-20" y="161" type="line" smooth="yes"/>
      <point x="-71" y="161"/>
      <point x="-105" y="129"/>
      <point x="-105" y="81" type="curve" smooth="yes"/>
      <point x="-105" y="33"/>
      <point x="-71" y="0"/>
      <point x="-20" y="0" type="curve" smooth="yes"/>
      <point x="44" y="0" type="line" smooth="yes"/>
      <point x="169" y="0"/>
      <point x="329" y="48"/>
      <point x="443" y="129" type="curve"/>
      <point x="837" y="47"/>
      <point x="1097" y="0"/>
      <point x="1481" y="0" type="curve" smooth="yes"/>
      <point x="1523" y="0" type="line"/>
      <point x="1545" y="28"/>
      <point x="1555" y="53"/>
      <point x="1555" y="81" type="curve" smooth="yes"/>
      <point x="1555" y="109"/>
      <point x="1545" y="133"/>
      <point x="1523" y="161" type="curve"/>
    </contour>
    <contour>
      <point x="289" y="613"/>
      <point x="436" y="725"/>
      <point x="559" y="725" type="curve" smooth="yes"/>
      <point x="625" y="725"/>
      <point x="690" y="693"/>
      <point x="724" y="634" type="curve"/>
      <point x="538" y="267" type="line"/>
      <point x="392" y="298"/>
      <point x="289" y="360"/>
      <point x="289" y="454" type="curve" smooth="yes"/>
    </contour>
    <contour>
      <point x="686" y="251" type="line" smooth="yes"/>
      <point x="677" y="253"/>
      <point x="672" y="262"/>
      <point x="673" y="274" type="curve"/>
      <point x="832" y="659" type="line"/>
      <point x="944" y="549"/>
      <point x="1101" y="377"/>
      <point x="1107" y="239" type="curve"/>
      <point x="1107" y="205"/>
      <point x="1101" y="173"/>
      <point x="1090" y="175" type="curve" smooth="yes"/>
    </contour>
    <contour>
      <point x="619" y="1277" type="move" name="top"/>
    </contour>
    <contour>
      <point x="498" y="-216" type="move" name="bottom"/>
    </contour>
  </outline>
</glyph>
<glyph name="yehbarree-ar.fina" format="1">
  <advance width="983"/>
  <unicode hex="FBAF"/>
  <outline>
    <contour>
      <point x="444" y="-332" type="line" smooth="yes"/>
      <point x="337" y="-332"/>
      <point x="283" y="-304"/>
      <point x="283" y="-248" type="curve" smooth="yes"/>
      <point x="283" y="-239"/>
      <point x="285" y="-229"/>
      <point x="288" y="-218" type="curve" smooth="yes"/>
      <point x="335" y="-96"/>
      <point x="509" y="0"/>
      <point x="708" y="0" type="curve" smooth="yes"/>
      <point x="1003" y="0" type="line"/>
      <point x="1025" y="28"/>
      <point x="1035" y="53"/>
      <point x="1035" y="81" type="curve" smooth="yes"/>
      <point x="1035" y="109"/>
      <point x="1025" y="133"/>
      <point x="1003" y="161" type="curve"/>
      <point x="727" y="161" type="line" smooth="yes"/>
      <point x="505" y="161"/>
      <point x="316" y="35"/>
      <point x="226" y="-172" type="curve" smooth="yes"/>
      <point x="195" y="-243"/>
      <point x="180" y="-297"/>
      <point x="180" y="-341" type="curve" smooth="yes"/>
      <point x="180" y="-438"/>
      <point x="252" y="-487"/>
      <point x="396" y="-487" type="curve" smooth="yes"/>
      <point x="1659" y="-487" type="line"/>
      <point x="1659" y="-356"/>
      <point x="1655" y="-333"/>
      <point x="1553" y="-333" type="curve" smooth="yes"/>
    </contour>
    <contour>
      <point x="751" y="362" type="move" name="top"/>
    </contour>
    <contour>
      <point x="695" y="-686" type="move" name="bottom"/>
    </contour>
  </outline>
</glyph>
<glyph name="dotabove-ar" format="1">
  <advance width="0"/>
  <unicode hex="FBB2"/>
  <outline>
    <component base="dotcenter-ar" yOffset="283"/>
    <contour>
      <point x="151" y="1240" type="move" name="top"/>
    </contour>
    <contour>
      <point x="179" y="714" type="move" name="_top"/>
    </contour>
  </outline>
</glyph>
<glyph name="twodotshorizontalabove-ar" format="1">
  <advance width="0"/>
  <unicode hex="FBB4"/>
  <outline>
    <component base="twodotshorizontalbelow-ar" yOffset="1341"/>
    <contour>
      <point x="320" y="1342" type="move" name="top"/>
    </contour>
    <contour>
      <point x="323" y="820" type="move" name="_top"/>
    </contour>
  </outline>
</glyph>
<glyph name="threedotsupabove-ar" format="1">
  <advance width="0"/>
  <unicode hex="FBB6"/>
  <outline>
    <component base="dotcenter-ar" xOffset="157" yOffset="497" xScale="0.844" yScale="0.844"/>
    <component base="dotcenter-ar" yOffset="245" xScale="0.844" yScale="0.844"/>
    <component base="dotcenter-ar" xOffset="326" yOffset="266" xScale="0.844" yScale="0.844"/>
    <contour>
      <point x="284" y="1337" type="move" name="top"/>
    </contour>
    <contour>
      <point x="300" y="610" type="move" name="_top"/>
    </contour>
  </outline>
</glyph>
